<?xml version="1.0" encoding="utf-8"?>
<!-- Generator: Adobe Illustrator 23.0.3, SVG Export Plug-In . SVG Version: 6.00 Build 0)  -->
<svg version="1.1" xmlns="http://www.w3.org/2000/svg" xmlns:xlink="http://www.w3.org/1999/xlink" x="0px" y="0px"
	 viewBox="0 0 960 1080" style="enable-background:new 0 0 960 1080;" xml:space="preserve">
<style type="text/css">
	.st0{fill:url(#SVGID_1_);}
	.st1{opacity:0.2;fill:url(#SVGID_2_);}
	.st2{opacity:0.2;fill:url(#SVGID_3_);}
	.st3{opacity:0.2;fill:url(#SVGID_4_);}
	.st4{display:none;}
	.st5{display:inline;}
	.st6{opacity:0.3;}
	.st7{fill:#FFFFFF;}
	.st8{opacity:0.3;fill:#FFFFFF;}
	.st9{fill:#2B454E;}
	.st10{fill:#D4ECFF;}
	.st11{fill:#046CD0;}
	.st12{fill:#0054A0;}
	.st13{fill:#5793CE;}
	.st14{fill:#396CAA;}
	.st15{fill:#0762A5;}
	.st16{opacity:0.15;}
	.st17{fill:#1482DD;}
	.st18{fill:#5867DD;}
	.st19{fill:#6174E2;}
	.st20{fill:#01DEBE;}
	.st21{fill:#7188EA;}
	.st22{fill:#E4EBF9;}
	.st23{fill:#0C68AD;}
	.st24{fill:#004477;}
	.st25{opacity:0.2;}
	.st26{fill:#F5F5F5;}
	.st27{fill:#E1E1E1;}
	.st28{opacity:0.8;}
	.st29{fill:#004D87;}
	.st30{opacity:0.5;}
	.st31{opacity:0.65;}
	.st32{fill:#375A64;}
	.st33{fill:#FFC44D;}
	.st34{fill:#FFB8E4;}
	.st35{fill:#FAFAFA;}
	.st36{fill:#EDF3FC;}
	.st37{fill:#00DFBF;}
	.st38{opacity:0.75;fill:#FFFFFF;}
	.st39{opacity:0.1;}
	.st40{fill:#B2D3EA;}
	.st41{fill:url(#SVGID_5_);}
	.st42{fill:#242993;}
	.st43{fill:url(#SVGID_6_);}
	.st44{fill:url(#SVGID_7_);}
	.st45{fill:#092C52;}
	.st46{fill:#001F40;}
	.st47{fill:#123F69;}
	.st48{fill:#011E41;}
	.st49{fill:#F0F6FF;}
	.st50{fill:#FCD1C5;}
	.st51{fill:#133F6A;}
	.st52{fill:#062844;}
	.st53{fill:#24126A;}
	.st54{fill:#113F69;}
	.st55{fill:#453C9E;}
	.st56{fill:#152A43;}
	.st57{fill:#C4CCD6;}
	.st58{fill:#FF5D6A;}
	.st59{fill:#E2B1A6;}
	.st60{fill:#033556;}
	.st61{fill:#09335B;}
	.st62{fill:#010C22;}
	.st63{fill:#F0F3FF;}
</style>
<g id="Layer_1">
	<linearGradient id="SVGID_1_" gradientUnits="userSpaceOnUse" x1="134.6328" y1="959.9707" x2="974.5271" y2="-61.3509">
		<stop  offset="0.0967" style="stop-color:#046CD0"/>
		<stop  offset="1" style="stop-color:#01DEBE"/>
	</linearGradient>
	<rect class="st0" width="960" height="1080"/>
	<linearGradient id="SVGID_2_" gradientUnits="userSpaceOnUse" x1="381.5807" y1="584.3569" x2="177.9507" y2="723.282">
		<stop  offset="0" style="stop-color:#FFFFFF"/>
		<stop  offset="1" style="stop-color:#FFFFFF;stop-opacity:0"/>
	</linearGradient>
	<polygon class="st1" points="0,313.44 433.78,1080 0,1080 	"/>
	<linearGradient id="SVGID_3_" gradientUnits="userSpaceOnUse" x1="697.395" y1="258.6014" x2="753.2188" y2="135.5353">
		<stop  offset="0" style="stop-color:#FFFFFF"/>
		<stop  offset="1" style="stop-color:#FFFFFF;stop-opacity:0"/>
	</linearGradient>
	<polygon class="st2" points="960,471.89 455.34,0 960,0 	"/>
	<linearGradient id="SVGID_4_" gradientUnits="userSpaceOnUse" x1="260.085" y1="757.2855" x2="90.7106" y2="907.629">
		<stop  offset="0" style="stop-color:#FFFFFF"/>
		<stop  offset="1" style="stop-color:#FFFFFF;stop-opacity:0"/>
	</linearGradient>
	<polygon class="st3" points="0,608.11 324.67,1080 0,1080 	"/>
</g>
<g id="Layer_2" class="st4">
	<g class="st5">
		<g>
			<g class="st6">
				<path class="st7" d="M409.15,577.57c-4.26,0-8.52-0.94-11.76-2.81l-98.2-56.7c-0.44-0.25-0.59-0.82-0.34-1.26
					c0.25-0.44,0.82-0.59,1.26-0.34l98.2,56.7c5.98,3.45,15.7,3.45,21.68,0l147.88-85.38c2.72-1.57,4.22-3.6,4.22-5.73
					c0-2.12-1.5-4.15-4.22-5.73l-98.91-57.1c-3.32-1.91-5.14-4.51-5.14-7.32c0-2.81,1.83-5.41,5.14-7.32l66.54-38.42
					c6.48-3.75,17.04-3.75,23.52,0L757.4,480.71c3.32,1.91,5.14,4.51,5.14,7.32c0,2.81-1.83,5.41-5.14,7.32L640.24,563
					c-2.72,1.57-4.22,3.6-4.22,5.73c0,2.12,1.5,4.15,4.22,5.73c0.44,0.25,0.59,0.82,0.34,1.26c-0.25,0.44-0.82,0.59-1.26,0.34
					c-3.32-1.91-5.14-4.51-5.14-7.32c0-2.81,1.83-5.41,5.14-7.32l117.16-67.64c2.72-1.57,4.22-3.6,4.22-5.73
					c0-2.12-1.5-4.16-4.22-5.73L558.1,367.77c-5.98-3.45-15.7-3.45-21.68,0l-66.54,38.42c-2.72,1.57-4.22,3.6-4.22,5.73
					c0,2.12,1.5,4.15,4.22,5.73l98.91,57.1c3.31,1.91,5.14,4.51,5.14,7.32s-1.83,5.41-5.14,7.32l-147.88,85.38
					C417.67,576.64,413.41,577.57,409.15,577.57z"/>
				<path class="st7" d="M776.82,602.15c-0.32,0-0.63-0.17-0.8-0.46c-0.25-0.44-0.1-1,0.34-1.26l174.62-100.82
					c3.75-2.16,5.81-4.99,5.81-7.95c0-2.96-2.07-5.78-5.81-7.95l-167.48-96.7c-8.1-4.67-21.27-4.67-29.37,0l-37.44,21.62
					c-0.44,0.25-1.01,0.1-1.26-0.34c-0.25-0.44-0.1-1,0.34-1.26l37.44-21.62c8.61-4.97,22.61-4.97,31.22,0l167.48,96.7
					c4.34,2.51,6.73,5.9,6.73,9.54c0,3.65-2.39,7.04-6.73,9.54L777.28,602.02C777.13,602.11,776.97,602.15,776.82,602.15z"/>
				<path class="st7" d="M360.98,881.12c-4.8,0-9.59-1.05-13.24-3.16L108.48,739.82c-3.71-2.14-5.76-5.05-5.76-8.18
					c0-3.13,2.04-6.04,5.76-8.18l81.6-47.11c7.3-4.22,19.19-4.22,26.49,0l150.94,87.15c6.79,3.92,17.85,3.92,24.65,0l142.77-82.43
					c0.44-0.25,1-0.1,1.26,0.34c0.25,0.44,0.1,1-0.34,1.26l-142.77,82.43c-7.3,4.22-19.19,4.22-26.49,0l-150.94-87.15
					c-6.8-3.92-17.85-3.92-24.65,0l-81.6,47.11c-3.12,1.8-4.84,4.14-4.83,6.59c0,2.44,1.72,4.78,4.83,6.58l239.26,138.13
					c6.8,3.92,17.85,3.92,24.65,0l309.6-178.74c0.44-0.25,1-0.1,1.26,0.34c0.25,0.44,0.1,1-0.34,1.26l-309.6,178.74
					C370.58,880.07,365.78,881.12,360.98,881.12z"/>
				<path class="st7" d="M388.89,674.41c-4.8,0-9.59-1.05-13.25-3.16L201.87,570.98c-6.79-3.92-17.85-3.92-24.65,0L1.38,672.51
					c-0.44,0.25-1,0.1-1.26-0.34c-0.25-0.44-0.1-1,0.34-1.26L176.3,569.39c7.3-4.22,19.19-4.22,26.49,0l173.78,100.26
					c6.79,3.92,17.85,3.92,24.65,0l57.08-32.95c0.44-0.25,1-0.1,1.26,0.34c0.25,0.44,0.1,1-0.34,1.26l-57.08,32.95
					C398.49,673.36,393.69,674.41,388.89,674.41z"/>
				<path class="st7" d="M589.91,812.7c-0.16,0-0.31-0.04-0.46-0.12L538,782.87c-0.44-0.25-0.59-0.82-0.34-1.26
					c0.25-0.44,0.81-0.59,1.26-0.34l51.45,29.7c0.44,0.25,0.59,0.82,0.34,1.26C590.53,812.53,590.22,812.7,589.91,812.7z"/>
				<path class="st7" d="M449.24,485.95c-0.32,0-0.63-0.17-0.8-0.46c-0.25-0.44-0.1-1,0.34-1.26l67.76-39.12
					c0.44-0.25,1-0.1,1.26,0.34c0.25,0.44,0.1,1-0.34,1.26l-67.77,39.12C449.56,485.91,449.4,485.95,449.24,485.95z"/>
				<path class="st7" d="M956.01,601.32c-0.16,0-0.31-0.04-0.46-0.12l-88.89-51.32c-0.44-0.25-0.59-0.82-0.34-1.26
					c0.25-0.44,0.81-0.59,1.26-0.34l88.89,51.32c0.44,0.25,0.59,0.82,0.34,1.26C956.64,601.16,956.33,601.32,956.01,601.32z"/>
				<path class="st7" d="M449.92,503.18h-30.52c-0.51,0-0.92-0.41-0.92-0.92l0-17.62c0-0.24,0.1-0.48,0.27-0.65
					c0.17-0.17,0.41-0.27,0.65-0.27h30.52c0.51,0,0.92,0.41,0.92,0.92v17.62C450.84,502.77,450.43,503.18,449.92,503.18z
					 M420.33,501.34H449v-15.78h-28.67L420.33,501.34z"/>
				<path class="st7" d="M814.72,464.59H784.2c-0.51,0-0.92-0.41-0.92-0.92v-17.62c0-0.51,0.41-0.92,0.92-0.92h30.52
					c0.51,0,0.92,0.41,0.92,0.92v17.62C815.64,464.18,815.23,464.59,814.72,464.59z M785.12,462.75h28.67v-15.78h-28.67V462.75z"/>
				<path class="st7" d="M368.27,840.23c-5.91,0-11.82-1.3-16.32-3.9c-4.53-2.62-7.03-6.15-7.03-9.96c0-3.8,2.5-7.34,7.03-9.96
					c9-5.2,23.64-5.2,32.65,0l0,0c4.53,2.62,7.03,6.15,7.03,9.96c0,3.8-2.5,7.34-7.03,9.96
					C380.09,838.93,374.18,840.23,368.27,840.23z M368.27,814.34c-5.58,0-11.16,1.22-15.4,3.68c-3.94,2.28-6.11,5.24-6.11,8.36
					c0,3.12,2.17,6.09,6.11,8.36c8.49,4.9,22.31,4.91,30.8,0c3.94-2.28,6.11-5.24,6.11-8.36c0-3.12-2.17-6.09-6.11-8.36
					C379.42,815.56,373.85,814.34,368.27,814.34z"/>
				<path class="st7" d="M311.25,807.31c-5.91,0-11.82-1.3-16.32-3.9c-4.53-2.62-7.03-6.15-7.03-9.96c0-3.8,2.5-7.34,7.03-9.96
					c9-5.2,23.65-5.2,32.65,0l0,0c4.53,2.62,7.03,6.15,7.03,9.96s-2.5,7.34-7.03,9.96C323.07,806.01,317.16,807.31,311.25,807.31z
					 M311.25,781.42c-5.58,0-11.15,1.22-15.4,3.68c-3.94,2.28-6.11,5.24-6.11,8.36c0,3.12,2.17,6.09,6.11,8.36
					c8.49,4.9,22.31,4.9,30.8,0c3.94-2.28,6.11-5.24,6.11-8.36c0-3.12-2.17-6.09-6.11-8.36l0,0
					C322.41,782.65,316.83,781.42,311.25,781.42z"/>
				<path class="st7" d="M254.23,774.39c-5.91,0-11.82-1.3-16.32-3.9c-4.53-2.62-7.03-6.15-7.03-9.96s2.5-7.34,7.03-9.96
					c9-5.2,23.64-5.2,32.64,0c4.53,2.62,7.03,6.15,7.03,9.96s-2.5,7.34-7.03,9.96C266.05,773.09,260.14,774.39,254.23,774.39z
					 M254.23,748.5c-5.58,0-11.15,1.23-15.4,3.68c-3.94,2.28-6.11,5.24-6.11,8.36c0,3.12,2.17,6.09,6.11,8.36
					c8.49,4.9,22.31,4.9,30.8,0c3.94-2.28,6.11-5.24,6.11-8.36c0-3.12-2.17-6.08-6.11-8.36l0,0
					C265.39,749.73,259.81,748.5,254.23,748.5z"/>
				<path class="st7" d="M197.21,741.47c-5.91,0-11.82-1.3-16.32-3.9c-4.53-2.62-7.03-6.15-7.03-9.96s2.5-7.34,7.03-9.96
					c9-5.2,23.64-5.2,32.65,0l0,0c4.53,2.62,7.03,6.15,7.03,9.96s-2.5,7.34-7.03,9.96C209.04,740.17,203.12,741.47,197.21,741.47z
					 M197.21,715.58c-5.58,0-11.16,1.23-15.4,3.68c-3.94,2.28-6.11,5.24-6.11,8.36c0,3.12,2.17,6.09,6.11,8.36
					c8.49,4.9,22.31,4.9,30.8,0c3.94-2.28,6.11-5.24,6.11-8.36c0-3.12-2.17-6.09-6.11-8.36
					C208.37,716.81,202.79,715.58,197.21,715.58z"/>
				<path class="st7" d="M213.08,719.38c-0.32,0-0.63-0.17-0.8-0.46c-0.25-0.44-0.1-1,0.34-1.26l37.3-21.53
					c0.44-0.25,1-0.1,1.26,0.34c0.25,0.44,0.1,1-0.34,1.26l-37.3,21.53C213.39,719.34,213.23,719.38,213.08,719.38z"/>
				<path class="st7" d="M417.51,852.83c-0.16,0-0.32-0.04-0.46-0.13l-30.91-18.07c-0.44-0.26-0.59-0.82-0.33-1.26
					c0.26-0.44,0.82-0.59,1.26-0.33l30.91,18.07c0.44,0.26,0.59,0.82,0.33,1.26C418.14,852.66,417.83,852.83,417.51,852.83z"/>
			</g>
			<path class="st8" d="M691.38,595.89c-0.25,0-0.5-0.13-0.63-0.36c-0.21-0.35-0.09-0.8,0.26-1.01l264.62-156.83
				c1.82-1.08,2.9-2.98,2.91-5.09c0.01-2.11-1.07-4.02-2.88-5.1l-63.92-38.35c-0.35-0.21-0.46-0.66-0.25-1.01
				c0.21-0.35,0.67-0.46,1.01-0.25l63.92,38.35c2.26,1.36,3.6,3.74,3.6,6.37c-0.01,2.63-1.37,5.01-3.63,6.35L691.75,595.78
				C691.63,595.85,691.5,595.89,691.38,595.89z"/>
		</g>
		<path class="st9" d="M247.7,551.57c-0.23,0-0.46-0.06-0.68-0.19l-19.89-11.77c-1.3-0.77-2.06-2.13-2.04-3.64
			c0.02-1.51,0.82-2.84,2.13-3.58l145.12-80.93c4.74-2.64,7.68-7.65,7.68-13.07v-77.47c0-1.3,0.67-2.47,1.8-3.12
			c1.13-0.65,2.47-0.65,3.61,0l13.71,7.92c0.64,0.37,0.86,1.19,0.49,1.83c-0.37,0.64-1.18,0.86-1.83,0.49l-13.71-7.92
			c-0.41-0.24-0.79-0.08-0.93,0c-0.14,0.08-0.46,0.32-0.46,0.8v77.47c0,6.39-3.47,12.29-9.05,15.41l-145.12,80.93
			c-0.68,0.38-0.76,1.02-0.76,1.28c0,0.26,0.06,0.9,0.73,1.3l19.89,11.77c0.64,0.38,0.85,1.2,0.47,1.83
			C248.6,551.33,248.16,551.57,247.7,551.57z"/>
		<g>
			<g>
				<g>
					<g>
						
							<rect x="244.4" y="539.45" transform="matrix(-0.4974 0.8675 -0.8675 -0.4974 852.5521 608.8337)" class="st10" width="11.05" height="23.84"/>
						<path class="st10" d="M235.69,547.7c-0.01-2.49,1.73-5.52,3.89-6.78c2.15-1.25,3.9-0.25,3.91,2.24
							c0.01,2.49-1.73,5.52-3.89,6.78S235.69,550.19,235.69,547.7z"/>
					</g>
					<g>
						
							<rect x="263.92" y="545.83" transform="matrix(-0.4974 0.8675 -0.8675 -0.4974 898.3192 608.6271)" class="st10" width="17.9" height="37.38"/>
						<path class="st11" d="M259.61,550.55l-7-4.01c-2.9,2.08-5.17,6.03-5.5,9.58l7,4.01C257.01,558.06,259.28,554.1,259.61,550.55z
							"/>
						<path class="st10" d="M250.33,558.89c-0.01-4.04,2.81-8.95,6.3-10.98c3.49-2.03,6.33-0.4,6.34,3.63
							c0.01,4.04-2.81,8.95-6.3,10.98C253.18,564.56,250.34,562.93,250.33,558.89z"/>
					</g>
				</g>
			</g>
			<path class="st12" d="M242.21,545.14c-1.01-0.58-1.02-1.53-0.01-2.12c1.01-0.59,2.65-0.59,3.66-0.01
				c1.01,0.58,1.02,1.53,0.01,2.12C244.86,545.72,243.22,545.72,242.21,545.14z"/>
		</g>
		<g>
			<g>
				<g>
					<g>
						
							<rect x="401.42" y="359.78" transform="matrix(-0.4974 0.8675 -0.8675 -0.4974 931.8273 203.5761)" class="st12" width="11.05" height="23.84"/>
						<path class="st12" d="M392.71,368.04c-0.01-2.49,1.73-5.52,3.89-6.78c2.15-1.25,3.9-0.25,3.91,2.24
							c0.01,2.49-1.73,5.52-3.89,6.78C394.47,371.54,392.72,370.53,392.71,368.04z"/>
					</g>
					<g>
						
							<rect x="420.94" y="366.17" transform="matrix(-0.4974 0.8675 -0.8675 -0.4974 977.594 203.3736)" class="st12" width="17.9" height="37.38"/>
						<path class="st10" d="M416.63,370.89l-7-4.01c-2.9,2.08-5.17,6.03-5.5,9.58l7,4.01C414.03,378.4,416.3,374.44,416.63,370.89z"
							/>
						<path class="st12" d="M407.35,379.23c-0.01-4.04,2.81-8.95,6.3-10.98c3.49-2.03,6.33-0.4,6.34,3.63
							c0.01,4.04-2.81,8.95-6.3,10.98C410.2,384.9,407.37,383.27,407.35,379.23z"/>
					</g>
				</g>
			</g>
			<path class="st10" d="M399.23,365.48c-1.01-0.58-1.02-1.53-0.01-2.12c1.01-0.59,2.65-0.59,3.66-0.01
				c1.01,0.58,1.02,1.53,0.01,2.12C401.88,366.06,400.24,366.06,399.23,365.48z"/>
		</g>
		<path class="st9" d="M479.27,415.01c-0.46,0-0.91-0.24-1.16-0.67c-0.37-0.64-0.15-1.46,0.49-1.83l50.02-28.88
			c4.21-2.43,6.82-6.96,6.82-11.82v-75.44c0-1.49,0.77-2.82,2.06-3.56c1.29-0.74,2.82-0.74,4.11,0.01l80.84,46.85v-62.97
			c0-0.74,0.6-1.34,1.34-1.34c0.74,0,1.34,0.6,1.34,1.34V342c0,0.48-0.26,0.92-0.67,1.16c-0.41,0.24-0.92,0.24-1.34,0l-82.85-48.02
			c-0.64-0.37-1.22-0.12-1.43,0c-0.22,0.12-0.72,0.49-0.72,1.24v75.44c0,5.81-3.13,11.23-8.16,14.13l-50.02,28.88
			C479.73,414.95,479.49,415.01,479.27,415.01z"/>
		<path class="st9" d="M579.32,471.24c-0.46,0-0.91-0.24-1.16-0.67c-0.37-0.64-0.15-1.46,0.49-1.83l62.21-35.92
			c4.21-2.43,6.82-6.96,6.82-11.82V291.08c0-0.74,0.6-1.34,1.34-1.34s1.34,0.6,1.34,1.34v129.93c0,5.81-3.13,11.23-8.16,14.13
			l-62.21,35.92C579.78,471.18,579.55,471.24,579.32,471.24z"/>
		<path class="st9" d="M690.87,533.7c-0.5,0-0.98-0.26-1.25-0.72c-0.4-0.69-0.16-1.57,0.53-1.96l56.41-32.57
			c4.19-2.42,6.79-6.93,6.77-11.77l-0.19-60.65c-0.01-4.81-2.62-9.3-6.79-11.7l-72.81-41.93c-0.44-0.26-0.72-0.73-0.72-1.25v-65.71
			c0-0.79,0.64-1.44,1.44-1.44c0.79,0,1.44,0.64,1.44,1.44v64.87l72.09,41.51c5.06,2.91,8.21,8.35,8.23,14.19l0.18,60.65
			c0.02,5.87-3.13,11.34-8.21,14.27l-56.41,32.57C691.36,533.64,691.12,533.7,690.87,533.7z"/>
		<g>
			<g>
				<g>
					<rect x="668.75" y="301.44" class="st13" width="11.05" height="23.84"/>
					<path class="st13" d="M678.18,327.54c-2.16,1.25-5.65,1.25-7.81,0c-2.16-1.25-2.16-3.26,0-4.51c2.16-1.25,5.65-1.25,7.81,0
						C680.33,324.27,680.33,326.29,678.18,327.54z"/>
				</g>
				<g>
					<rect x="665.32" y="268.22" class="st13" width="17.9" height="37.38"/>
					<path class="st14" d="M668.75,305.37v8.07c3.24,1.48,7.8,1.48,11.05,0v-8.07C676.55,303.89,671.99,303.89,668.75,305.37z"/>
					<path class="st13" d="M680.6,309.26c-3.49,2.02-9.16,2.02-12.66,0c-3.49-2.02-3.49-5.29,0-7.31c3.49-2.02,9.16-2.02,12.66,0
						C684.09,303.97,684.09,307.25,680.6,309.26z"/>
				</g>
			</g>
		</g>
		<g>
			<g>
				<g>
					<rect x="643.5" y="287.08" class="st13" width="11.05" height="23.84"/>
					<path class="st13" d="M652.93,313.17c-2.16,1.25-5.65,1.25-7.81,0c-2.16-1.25-2.16-3.26,0-4.51c2.16-1.25,5.65-1.25,7.81,0
						C655.09,309.9,655.09,311.92,652.93,313.17z"/>
				</g>
				<g>
					<rect x="640.08" y="253.86" class="st13" width="17.9" height="37.38"/>
					<path class="st14" d="M643.5,291v8.07c3.24,1.48,7.8,1.48,11.05,0V291C651.31,289.52,646.74,289.52,643.5,291z"/>
					<path class="st13" d="M655.35,294.9c-3.49,2.02-9.16,2.02-12.66,0c-3.49-2.02-3.5-5.29,0-7.31c3.49-2.02,9.16-2.02,12.66,0
						C658.85,289.61,658.85,292.88,655.35,294.9z"/>
				</g>
			</g>
		</g>
		<g>
			<g>
				<g>
					<rect x="618.26" y="272.71" class="st13" width="11.05" height="23.84"/>
					<path class="st13" d="M627.69,298.8c-2.16,1.25-5.65,1.25-7.81,0c-2.16-1.25-2.16-3.26,0-4.51c2.16-1.25,5.65-1.25,7.81,0
						C629.84,295.54,629.84,297.56,627.69,298.8z"/>
				</g>
				<g>
					<rect x="614.83" y="239.49" class="st13" width="17.9" height="37.38"/>
					<path class="st14" d="M618.26,276.63v8.07c3.24,1.48,7.8,1.48,11.05,0v-8.07C626.06,275.15,621.5,275.15,618.26,276.63z"/>
					<ellipse class="st13" cx="623.78" cy="276.87" rx="8.95" ry="5.17"/>
				</g>
			</g>
		</g>
		<g>
			<g>
				<polygon class="st12" points="742.36,334.51 766.36,320.38 743.51,291.85 737.5,301.67 				"/>
				<path class="st12" d="M568.11,177.95l38.3-22.04c0,0-1.44,21.99-1.44,22.04s-22,6.82-22,6.82L568.11,177.95z"/>
				<path class="st12" d="M749.03,262.78c-2.92-1.68-5.7-2.67-8.29-3.07c-3.86-20.3-17.98-41.85-34.82-51.57
					c-5.06-2.92-9.88-4.49-14.25-4.82c-2.3-24.6-19.4-52.56-40.17-64.55c-10.85-6.26-20.69-7.01-27.96-3.17l0-0.02l-0.35,0.2
					c-0.19,0.1-0.37,0.21-0.55,0.32l-22.59,13.34l7.5,5.93c-6.74,2.94-10.99,10.5-10.99,21.67c0,20.6,14.46,45.64,32.3,55.94
					l120.17,85.81c13.39,7.73,24.25,1.46,24.25-14C773.29,289.32,762.43,270.51,749.03,262.78z"/>
				<path class="st11" d="M597.68,167.97l51.84-30.29c-10.06-5.25-19.16-5.68-25.97-2.08l0-0.02l-0.35,0.2
					c-0.19,0.1-0.37,0.21-0.55,0.32l-22.59,13.34l7.5,5.93C602.85,157.43,599.36,161.74,597.68,167.97z"/>
				<path class="st11" d="M693.41,257.07l37.82-22.2c-6.49-11.22-15.42-21.02-25.31-26.73c-1.31-0.76-2.6-1.42-3.87-1.99
					l-48.11,28.13L693.41,257.07z"/>
				<path class="st15" d="M610.71,151.92l16.86,9.73l30.87-18.18c-2.25-1.75-4.57-3.33-6.94-4.7c-3.74-2.16-7.35-3.65-10.79-4.53
					L610.71,151.92z"/>
				<path class="st15" d="M727.06,228.34l-30.19,17.79l10.5,11.71l27.4-16.18C732.61,237.02,730.01,232.53,727.06,228.34z"/>
				<path class="st10" d="M725.32,276.75c-2.92-1.68-5.7-2.67-8.29-3.07c-3.86-20.3-17.98-41.85-34.82-51.57
					c-5.06-2.92-9.88-4.49-14.25-4.82c-2.3-24.6-19.4-52.56-40.17-64.55c-22.34-12.9-40.45-2.44-40.45,23.35
					c0,0.87,0.02,1.76,0.07,2.64c-16.33-7.58-29.1,0.96-29.1,20.31c0,20.6,14.46,45.64,32.3,55.94l134.71,77.78
					c13.39,7.73,24.25,1.46,24.25-14C749.57,303.29,738.72,284.48,725.32,276.75z"/>
				<g>
					<path class="st7" d="M587.41,178.73c-0.04-0.89-0.07-1.77-0.07-2.64c0-0.04,0-0.07,0-0.11c-9.02-3.51-16.78-1.98-21.65,3.65
						C570.98,175.27,578.67,174.68,587.41,178.73z"/>
					<path class="st7" d="M727.29,274.83c-2.92-1.68-5.7-2.67-8.29-3.07c-3.86-20.3-17.98-41.85-34.82-51.57
						c-5.06-2.92-9.88-4.49-14.25-4.82c-2.3-24.6-19.4-52.56-40.17-64.55c-13.92-8.03-26.19-7-33.47,1.15
						c7.41-6.34,18.76-6.58,31.49,0.77c20.77,11.99,37.88,39.95,40.17,64.55c4.37,0.34,9.19,1.9,14.25,4.82
						c16.84,9.72,30.96,31.27,34.82,51.57c2.59,0.41,5.37,1.39,8.29,3.07c13.39,7.73,24.25,26.54,24.25,42.01
						c0,5.58-1.43,9.94-3.87,12.9c3.63-2.8,5.84-7.87,5.84-14.82C751.55,301.37,740.69,282.56,727.29,274.83z"/>
				</g>
				<g>
					<path class="st11" d="M584.56,184.87l10.13,4.7l-0.52-11.15c-0.04-0.78-0.06-1.56-0.06-2.33c0-9.95,3.01-17.17,8.46-20.32
						c5.46-3.15,13.21-2.14,21.83,2.83c18.54,10.7,34.71,36.76,36.82,59.32l0.53,5.68l5.69,0.44c3.5,0.27,7.33,1.59,11.38,3.94
						c14.72,8.5,28,28.26,31.56,46.97l0.89,4.68l4.71,0.74c1.88,0.29,3.88,1.05,5.95,2.25c11.31,6.53,20.87,23.08,20.87,36.14
						c0,4.89-1.36,8.47-3.72,9.84c-2.36,1.36-6.14,0.74-10.38-1.7l-134.72-77.78c-15.67-9.05-28.91-31.98-28.91-50.08
						c0-7.1,2.09-12.51,5.75-14.84c1.5-0.96,3.32-1.44,5.37-1.44C578.69,182.76,581.53,183.47,584.56,184.87z"/>
				</g>
			</g>
			<g>
				<polygon class="st13" points="651.79,269.3 655.35,267.52 651.85,264.87 				"/>
				<polygon class="st13" points="641.12,221.3 644.57,219.55 644.63,221.36 				"/>
				<polygon class="st13" points="661.93,258.08 665.53,256.27 658.6,249.68 				"/>
				<g>
					<path class="st13" d="M654.31,267.41l-16.82-9.91c-0.85-0.5-1.54-1.77-1.54-2.83l0.06-19.48l19.92,11.73l-0.06,19.48
						C655.86,267.46,655.16,267.91,654.31,267.41z"/>
					<path class="st13" d="M644.53,219.58l-18.17,11.69c-0.77,0.5-0.15,2.35,1.02,3.04l18.56,10.93l18.56,10.93
						c1.17,0.69,1.8-0.42,1.04-1.82l-18.04-33.02C646.72,219.89,645.32,219.07,644.53,219.58z"/>
				</g>
				<g>
					<path class="st10" d="M650.7,269.22l-16.82-9.91c-0.85-0.5-1.54-1.77-1.54-2.83l0.06-19.48l19.92,11.73l-0.06,19.48
						C652.25,269.27,651.55,269.73,650.7,269.22z"/>
					<path class="st10" d="M640.93,221.39l-18.17,11.69c-0.77,0.5-0.15,2.35,1.02,3.04l18.56,10.93l18.56,10.93
						c1.17,0.69,1.8-0.42,1.04-1.82l-18.05-33.02C643.11,221.71,641.71,220.89,640.93,221.39z"/>
				</g>
			</g>
		</g>
		<path class="st10" d="M622.22,294.42c0,1.17-0.82,1.64-1.83,1.06c-1.01-0.58-1.83-2.01-1.83-3.17c0-1.17,0.82-1.64,1.83-1.06
			C621.4,291.83,622.22,293.25,622.22,294.42z"/>
		<g>
			<path class="st16" d="M473.39,566.4l50.51-29.16c3.1-1.79,2.71-4.92-0.87-6.98l-48.77-28.16c-3.58-2.07-8.99-2.29-12.09-0.5
				l-50.51,29.16c-3.1,1.79-2.71,4.92,0.87,6.98l48.77,28.16C464.88,567.97,470.29,568.19,473.39,566.4z"/>
			<g>
				<path class="st11" d="M394.9,497.54L394.9,497.54v-21.82l48.94-0.03l16.92-9.77c3.88-2.24,10.66-1.96,15.15,0.63l15.78,9.11
					l48.98-0.03v22.45c0.11,1.52-0.74,2.98-2.6,4.06l-63.25,36.52c-3.88,2.24-10.66,1.96-15.15-0.63l-61.07-35.26
					C396,501.28,394.75,499.34,394.9,497.54z"/>
				<path class="st11" d="M467.78,464.42c2.84,0.07,5.79,0.78,8.12,2.13l15.78,9.11l48.98-0.03v22.45c0.11,1.52-0.74,2.98-2.6,4.06
					l-63.25,36.52c-1.87,1.08-4.4,1.57-7.03,1.5V464.42z"/>
				<path class="st17" d="M535.12,475.64l5.54,0v22.45c0.11,1.52-0.74,2.98-2.6,4.06l-2.94,1.7V475.64z"/>
				<path class="st17" d="M473.83,539.14c-3.35,1.43-8.19,1.35-12.11-0.14v-25.49h12.11V539.14z"/>
				<path class="st10" d="M474.81,516.3l63.25-36.52c3.88-2.24,3.4-6.16-1.09-8.74l-61.08-35.26c-4.48-2.59-11.26-2.87-15.15-0.63
					l-63.25,36.52c-3.88,2.24-3.4,6.16,1.09,8.74l61.07,35.26C464.14,518.26,470.93,518.54,474.81,516.3z"/>
				<path class="st13" d="M473.67,509.72l53.01-30.6c3.25-1.88,2.85-5.16-0.91-7.33l-51.18-29.55c-3.76-2.17-9.44-2.4-12.69-0.53
					l-53.01,30.6c-3.25,1.88-2.85,5.16,0.91,7.33l51.18,29.55C464.73,511.37,470.42,511.6,473.67,509.72z"/>
				<g>
					<path class="st10" d="M418.16,503.3c0,1.63,1.14,3.61,2.55,4.42c1.41,0.81,2.55,0.15,2.55-1.47s-1.14-3.61-2.55-4.42
						C419.31,501.01,418.16,501.67,418.16,503.3z"/>
					<path class="st10" d="M409.94,498.56c0,1.63,1.14,3.61,2.55,4.42c1.41,0.81,2.55,0.15,2.55-1.47c0-1.63-1.14-3.61-2.55-4.42
						C411.09,496.27,409.94,496.93,409.94,498.56z"/>
					<path class="st10" d="M401.72,493.81c0,1.63,1.14,3.61,2.55,4.42c1.41,0.81,2.55,0.15,2.55-1.47c0-1.63-1.14-3.61-2.55-4.42
						C402.87,491.52,401.72,492.18,401.72,493.81z"/>
				</g>
			</g>
			<g>
				<path class="st18" d="M394.9,462.67L394.9,462.67v-21.82l48.94-0.03l16.92-9.77c3.88-2.24,10.66-1.96,15.15,0.63l15.78,9.11
					l48.98-0.03v22.45c0.11,1.52-0.74,2.98-2.6,4.06l-63.25,36.52c-3.88,2.24-10.66,1.96-15.15-0.63l-61.07-35.26
					C396,466.4,394.75,464.47,394.9,462.67z"/>
				<path class="st18" d="M467.78,429.55c2.84,0.07,5.79,0.78,8.12,2.13l15.78,9.11l48.98-0.03v22.45c0.11,1.52-0.74,2.98-2.6,4.06
					l-63.25,36.52c-1.87,1.08-4.4,1.57-7.03,1.5V429.55z"/>
				<path class="st19" d="M535.12,440.76l5.54,0v22.45c0.11,1.52-0.74,2.98-2.6,4.06l-2.94,1.7V440.76z"/>
				<path class="st19" d="M473.83,504.26c-3.35,1.43-8.19,1.35-12.11-0.14v-25.49h12.11V504.26z"/>
				<path class="st20" d="M474.81,481.42l63.25-36.52c3.88-2.24,3.4-6.16-1.09-8.74l-61.08-35.26c-4.48-2.59-11.26-2.87-15.15-0.63
					l-63.25,36.52c-3.88,2.24-3.4,6.16,1.09,8.74l61.07,35.26C464.14,483.38,470.93,483.66,474.81,481.42z"/>
				<path class="st21" d="M473.67,474.85l53.01-30.6c3.25-1.88,2.85-5.16-0.91-7.33l-51.18-29.55c-3.76-2.17-9.44-2.4-12.69-0.53
					l-53.01,30.6c-3.25,1.88-2.85,5.16,0.91,7.33l51.18,29.55C464.73,476.49,470.42,476.72,473.67,474.85z"/>
				<g>
					<path class="st10" d="M418.16,468.43c0,1.63,1.14,3.61,2.55,4.42c1.41,0.81,2.55,0.15,2.55-1.47c0-1.63-1.14-3.61-2.55-4.42
						C419.31,466.14,418.16,466.8,418.16,468.43z"/>
					<path class="st13" d="M409.94,463.68c0,1.63,1.14,3.61,2.55,4.42c1.41,0.81,2.55,0.15,2.55-1.47c0-1.63-1.14-3.61-2.55-4.42
						C411.09,461.39,409.94,462.05,409.94,463.68z"/>
					<path class="st13" d="M401.72,458.94c0,1.63,1.14,3.61,2.55,4.42c1.41,0.81,2.55,0.15,2.55-1.47s-1.14-3.61-2.55-4.42
						C402.87,456.65,401.72,457.31,401.72,458.94z"/>
				</g>
			</g>
			<g>
				<path class="st11" d="M394.9,427.79L394.9,427.79v-21.82l48.94-0.03l16.92-9.77c3.88-2.24,10.66-1.96,15.15,0.63l15.78,9.11
					l48.98-0.03v22.45c0.11,1.52-0.74,2.98-2.6,4.06l-63.25,36.52c-3.88,2.24-10.66,1.96-15.15-0.63l-61.07-35.26
					C396,431.52,394.75,429.59,394.9,427.79z"/>
				<path class="st11" d="M467.78,394.67c2.84,0.07,5.79,0.78,8.12,2.13l15.78,9.11l48.98-0.03v22.45c0.11,1.52-0.74,2.98-2.6,4.06
					l-63.25,36.52c-1.87,1.08-4.4,1.57-7.03,1.5V394.67z"/>
				<path class="st17" d="M535.12,405.89l5.54,0v22.45c0.11,1.52-0.74,2.98-2.6,4.06l-2.94,1.7V405.89z"/>
				<path class="st17" d="M473.83,469.38c-3.35,1.43-8.19,1.35-12.11-0.14v-25.49h12.11V469.38z"/>
				<path class="st10" d="M474.81,446.54l63.25-36.52c3.88-2.24,3.4-6.16-1.09-8.74l-61.08-35.26c-4.48-2.59-11.26-2.87-15.15-0.63
					l-63.25,36.52c-3.88,2.24-3.4,6.16,1.09,8.74l61.07,35.26C464.14,448.5,470.93,448.78,474.81,446.54z"/>
				<path class="st7" d="M398.59,406.36l61.08,35.26c4.48,2.59,11.26,2.87,15.15,0.63l63.25-36.52c0.87-0.5,1.5-1.09,1.94-1.72
					c1.33,2.15,0.73,4.47-1.94,6.01l-63.25,36.52c-3.88,2.24-10.66,1.96-15.15-0.63l-61.08-35.26c-3.48-2.01-4.54-4.82-3.02-7.03
					C396.17,404.61,397.18,405.55,398.59,406.36z"/>
				<g>
					<path class="st13" d="M418.16,433.55c0,1.63,1.14,3.61,2.55,4.42c1.41,0.81,2.55,0.15,2.55-1.47c0-1.63-1.14-3.61-2.55-4.42
						C419.31,431.26,418.16,431.92,418.16,433.55z"/>
					<path class="st10" d="M409.94,428.8c0,1.63,1.14,3.61,2.55,4.42c1.41,0.81,2.55,0.15,2.55-1.47s-1.14-3.61-2.55-4.42
						C411.09,426.51,409.94,427.18,409.94,428.8z"/>
					<path class="st10" d="M401.72,424.06c0,1.63,1.14,3.61,2.55,4.42c1.41,0.81,2.55,0.15,2.55-1.47c0-1.63-1.14-3.61-2.55-4.42
						C402.87,421.77,401.72,422.43,401.72,424.06z"/>
				</g>
				<g>
					<path class="st13" d="M471.07,423.9l29.6-17.09c1.82-1.05,1.59-2.88-0.51-4.09l-28.58-16.5c-2.1-1.21-5.27-1.34-7.09-0.29
						l-29.6,17.09c-1.82,1.05-1.59,2.88,0.51,4.09l28.58,16.5C466.08,424.82,469.25,424.95,471.07,423.9z"/>
					<path class="st10" d="M468.23,409.59l4.1-2.36c0.25-0.15,0.22-0.4-0.07-0.57l-3.95-2.28c-0.29-0.17-0.73-0.19-0.98-0.04
						l-4.1,2.36c-0.25,0.15-0.22,0.4,0.07,0.57l3.95,2.28C467.54,409.72,467.98,409.74,468.23,409.59z"/>
					<path class="st14" d="M500.67,406.81l-0.08,0.05c-0.14-0.1-0.27-0.2-0.43-0.29l-28.58-16.5c-2.1-1.21-5.27-1.34-7.09-0.29
						l-29.52,17.04c-1.67-1.2-1.76-2.83-0.08-3.8l29.6-17.09c1.82-1.05,4.99-0.92,7.09,0.29l28.58,16.5
						C502.26,403.93,502.48,405.76,500.67,406.81z"/>
				</g>
			</g>
		</g>
		<g>
			<path class="st16" d="M584.93,629.15l50.51-29.16c3.1-1.79,2.71-4.92-0.87-6.98l-48.77-28.16c-3.58-2.07-8.99-2.29-12.09-0.5
				l-50.51,29.16c-3.1,1.79-2.71,4.92,0.87,6.98l48.77,28.16C576.42,630.72,581.83,630.94,584.93,629.15z"/>
			<g>
				<path class="st18" d="M506.44,560.3L506.44,560.3v-21.82l48.94-0.03l16.92-9.77c3.88-2.24,10.66-1.96,15.15,0.63l15.78,9.11
					l48.98-0.03v22.45c0.11,1.52-0.74,2.98-2.6,4.06l-63.25,36.52c-3.88,2.24-10.66,1.96-15.15-0.63l-61.08-35.26
					C507.54,564.03,506.3,562.1,506.44,560.3z"/>
				<path class="st18" d="M579.32,527.18c2.84,0.07,5.79,0.78,8.12,2.13l15.78,9.11l48.98-0.03v22.45c0.11,1.52-0.74,2.98-2.6,4.06
					l-63.25,36.52c-1.87,1.08-4.4,1.57-7.03,1.5V527.18z"/>
				<path class="st19" d="M646.66,538.4l5.54,0v22.45c0.11,1.52-0.74,2.98-2.6,4.06l-2.94,1.7V538.4z"/>
				<path class="st19" d="M585.38,601.89c-3.35,1.43-8.19,1.35-12.11-0.14v-25.49h12.11V601.89z"/>
				<path class="st12" d="M586.35,579.05l63.25-36.52c3.88-2.24,3.4-6.16-1.09-8.74l-61.08-35.26c-4.48-2.59-11.26-2.87-15.15-0.63
					l-63.25,36.52c-3.88,2.24-3.4,6.16,1.09,8.74l61.08,35.26C575.69,581.01,582.47,581.29,586.35,579.05z"/>
				<path class="st20" d="M585.21,572.48l53.01-30.6c3.25-1.88,2.85-5.16-0.91-7.33L586.12,505c-3.76-2.17-9.44-2.4-12.69-0.53
					l-53.01,30.6c-3.25,1.88-2.85,5.16,0.91,7.33l51.18,29.55C576.28,574.12,581.96,574.36,585.21,572.48z"/>
				<g>
					<path class="st22" d="M529.71,566.06c0,1.63,1.14,3.61,2.55,4.42c1.41,0.81,2.55,0.15,2.55-1.48c0-1.63-1.14-3.61-2.55-4.42
						C530.85,563.77,529.71,564.43,529.71,566.06z"/>
					<path class="st22" d="M521.49,561.31c0,1.63,1.14,3.61,2.55,4.42c1.41,0.81,2.55,0.15,2.55-1.47s-1.14-3.61-2.55-4.42
						C522.63,559.02,521.49,559.68,521.49,561.31z"/>
					<path class="st22" d="M513.27,556.57c0,1.63,1.14,3.61,2.55,4.42c1.41,0.81,2.55,0.15,2.55-1.47s-1.14-3.61-2.55-4.42
						C514.41,554.28,513.27,554.94,513.27,556.57z"/>
				</g>
			</g>
			<g>
				<path class="st12" d="M506.44,525.42L506.44,525.42V503.6l48.94-0.03l16.92-9.77c3.88-2.24,10.66-1.96,15.15,0.63l15.78,9.11
					l48.98-0.03v22.45c0.11,1.52-0.74,2.98-2.6,4.06l-63.25,36.52c-3.88,2.24-10.66,1.96-15.15-0.63l-61.08-35.26
					C507.54,529.16,506.3,527.22,506.44,525.42z"/>
				<path class="st12" d="M579.32,492.3c2.84,0.07,5.79,0.78,8.12,2.13l15.78,9.11l48.98-0.03v22.45c0.11,1.52-0.74,2.98-2.6,4.06
					l-63.25,36.52c-1.87,1.08-4.4,1.57-7.03,1.5V492.3z"/>
				<path class="st23" d="M646.66,503.52l5.54,0v22.45c0.11,1.52-0.74,2.98-2.6,4.06l-2.94,1.7V503.52z"/>
				<path class="st23" d="M585.38,567.02c-3.35,1.43-8.19,1.35-12.11-0.14v-25.49h12.11V567.02z"/>
				<path class="st10" d="M586.35,544.17l63.25-36.52c3.88-2.24,3.4-6.16-1.09-8.74l-61.08-35.26c-4.48-2.59-11.26-2.87-15.15-0.63
					l-63.25,36.52c-3.88,2.24-3.4,6.16,1.09,8.74l61.08,35.26C575.69,546.13,582.47,546.41,586.35,544.17z"/>
				<path class="st11" d="M585.21,537.6l53.01-30.6c3.25-1.88,2.85-5.16-0.91-7.33l-51.18-29.55c-3.76-2.17-9.44-2.4-12.69-0.53
					l-53.01,30.6c-3.25,1.88-2.85,5.16,0.91,7.33l51.18,29.55C576.28,539.24,581.96,539.48,585.21,537.6z"/>
				<g>
					<path class="st10" d="M529.71,531.18c0,1.63,1.14,3.61,2.55,4.42c1.41,0.81,2.55,0.15,2.55-1.47s-1.14-3.61-2.55-4.42
						C530.85,528.89,529.71,529.55,529.71,531.18z"/>
					<path class="st10" d="M521.49,526.44c0,1.63,1.14,3.61,2.55,4.42c1.41,0.81,2.55,0.15,2.55-1.47c0-1.63-1.14-3.61-2.55-4.42
						C522.63,524.15,521.49,524.81,521.49,526.44z"/>
					<path class="st13" d="M513.27,521.69c0,1.63,1.14,3.61,2.55,4.42c1.41,0.81,2.55,0.15,2.55-1.47c0-1.63-1.14-3.61-2.55-4.42
						C514.41,519.4,513.27,520.06,513.27,521.69z"/>
				</g>
			</g>
			<g>
				<path class="st11" d="M506.44,490.54L506.44,490.54v-21.82l48.94-0.03l16.92-9.77c3.88-2.24,10.66-1.96,15.15,0.63l15.78,9.11
					l48.98-0.03v22.45c0.11,1.52-0.74,2.98-2.6,4.06l-63.25,36.52c-3.88,2.24-10.66,1.96-15.15-0.63l-61.08-35.26
					C507.54,494.28,506.3,492.34,506.44,490.54z"/>
				<path class="st11" d="M579.32,457.43c2.84,0.07,5.79,0.78,8.12,2.13l15.78,9.11l48.98-0.03v22.45c0.11,1.52-0.74,2.98-2.6,4.06
					l-63.25,36.52c-1.87,1.08-4.4,1.57-7.03,1.5V457.43z"/>
				<path class="st17" d="M646.66,468.64l5.54,0v22.45c0.11,1.52-0.74,2.98-2.6,4.06l-2.94,1.7V468.64z"/>
				<path class="st17" d="M585.38,532.14c-3.35,1.43-8.19,1.35-12.11-0.14v-25.48h12.11V532.14z"/>
				<path class="st10" d="M586.35,509.3l63.25-36.52c3.88-2.24,3.4-6.16-1.09-8.74l-61.08-35.26c-4.48-2.59-11.26-2.87-15.15-0.63
					l-63.25,36.52c-3.88,2.24-3.4,6.16,1.09,8.74l61.08,35.26C575.69,511.26,582.47,511.54,586.35,509.3z"/>
				<path class="st7" d="M510.13,469.11l61.08,35.26c4.48,2.59,11.26,2.87,15.15,0.63l63.25-36.52c0.87-0.5,1.5-1.09,1.94-1.72
					c1.33,2.15,0.73,4.47-1.94,6.01l-63.25,36.52c-3.88,2.24-10.66,1.96-15.15-0.63l-61.08-35.26c-3.48-2.01-4.54-4.82-3.02-7.03
					C507.71,467.36,508.73,468.3,510.13,469.11z"/>
				<g>
					<path class="st13" d="M529.71,496.3c0,1.63,1.14,3.61,2.55,4.42c1.41,0.81,2.55,0.15,2.55-1.47s-1.14-3.61-2.55-4.42
						C530.85,494.01,529.71,494.68,529.71,496.3z"/>
					<path class="st13" d="M521.49,491.56c0,1.63,1.14,3.61,2.55,4.42c1.41,0.81,2.55,0.15,2.55-1.47c0-1.63-1.14-3.61-2.55-4.42
						C522.63,489.27,521.49,489.93,521.49,491.56z"/>
					<path class="st10" d="M513.27,486.81c0,1.63,1.14,3.61,2.55,4.42c1.41,0.81,2.55,0.15,2.55-1.47c0-1.63-1.14-3.61-2.55-4.42
						C514.41,484.52,513.27,485.18,513.27,486.81z"/>
				</g>
				<g>
					<path class="st13" d="M582.61,486.66l29.6-17.09c1.82-1.05,1.59-2.88-0.51-4.09l-28.58-16.5c-2.1-1.21-5.27-1.34-7.09-0.29
						l-29.6,17.09c-1.82,1.05-1.59,2.88,0.51,4.09l28.58,16.5C577.62,487.57,580.79,487.7,582.61,486.66z"/>
					<path class="st10" d="M579.78,472.35l4.1-2.36c0.25-0.15,0.22-0.4-0.07-0.57l-3.95-2.28c-0.29-0.17-0.73-0.19-0.98-0.04
						l-4.1,2.36c-0.25,0.15-0.22,0.4,0.07,0.57l3.95,2.28C579.09,472.47,579.53,472.49,579.78,472.35z"/>
					<path class="st14" d="M612.21,469.57l-0.08,0.05c-0.14-0.1-0.27-0.2-0.43-0.29l-28.58-16.5c-2.1-1.21-5.27-1.34-7.09-0.29
						l-29.52,17.04c-1.67-1.2-1.76-2.83-0.08-3.8l29.6-17.09c1.82-1.05,4.99-0.92,7.09,0.29l28.58,16.5
						C613.8,466.69,614.03,468.52,612.21,469.57z"/>
				</g>
			</g>
			<g>
				<path class="st10" d="M591.97,549.38c0,1.17,0.82,1.64,1.83,1.06c1.01-0.58,1.83-2.01,1.83-3.17c0-1.17-0.82-1.64-1.83-1.06
					C592.79,546.79,591.97,548.21,591.97,549.38z"/>
				<path class="st10" d="M597.66,546.12c0,1.17,0.82,1.64,1.83,1.06c1.01-0.58,1.83-2.01,1.83-3.17s-0.82-1.64-1.83-1.06
					C598.48,543.53,597.66,544.95,597.66,546.12z"/>
				<path class="st10" d="M591.97,556.24c0,1.17,0.82,1.64,1.83,1.06c1.01-0.58,1.83-2.01,1.83-3.17s-0.82-1.64-1.83-1.06
					C592.79,553.65,591.97,555.07,591.97,556.24z"/>
				<path class="st13" d="M597.66,552.98c0,1.17,0.82,1.64,1.83,1.06c1.01-0.58,1.83-2,1.83-3.17c0-1.17-0.82-1.64-1.83-1.06
					C598.48,550.39,597.66,551.81,597.66,552.98z"/>
			</g>
		</g>
		<g>
			<path class="st16" d="M696.48,691.91l50.51-29.16c3.1-1.79,2.71-4.92-0.87-6.98l-48.77-28.16c-3.58-2.07-8.99-2.29-12.09-0.5
				l-50.51,29.16c-3.1,1.79-2.71,4.92,0.87,6.98l48.77,28.16C687.96,693.47,693.38,693.7,696.48,691.91z"/>
			<g>
				<path class="st12" d="M617.98,623.05L617.98,623.05v-21.82l48.94-0.03l16.92-9.77c3.88-2.24,10.66-1.96,15.15,0.63l15.78,9.11
					l48.98-0.03v22.45c0.11,1.52-0.74,2.98-2.6,4.06l-63.25,36.52c-3.88,2.24-10.66,1.96-15.15-0.63l-61.08-35.26
					C619.09,626.79,617.84,624.85,617.98,623.05z"/>
				<path class="st12" d="M690.86,589.93c2.84,0.07,5.79,0.78,8.12,2.13l15.78,9.11l48.98-0.03v22.45c0.11,1.52-0.74,2.98-2.6,4.06
					l-63.25,36.52c-1.87,1.08-4.4,1.57-7.03,1.5V589.93z"/>
				<path class="st23" d="M758.2,601.15l5.54,0v22.45c0.11,1.52-0.74,2.98-2.6,4.06l-2.94,1.7V601.15z"/>
				<path class="st23" d="M696.92,664.65c-3.35,1.43-8.19,1.35-12.11-0.14v-25.48h12.11V664.65z"/>
				<path class="st10" d="M697.89,641.8l63.25-36.52c3.88-2.24,3.4-6.16-1.09-8.74l-61.08-35.26c-4.48-2.59-11.26-2.87-15.15-0.63
					l-63.25,36.52c-3.88,2.24-3.4,6.16,1.09,8.74l61.08,35.26C687.23,643.76,694.01,644.05,697.89,641.8z"/>
				<path class="st13" d="M696.75,635.23l53.01-30.6c3.25-1.88,2.85-5.16-0.91-7.33l-51.18-29.55c-3.76-2.17-9.44-2.4-12.69-0.53
					l-53.01,30.6c-3.25,1.88-2.85,5.16,0.91,7.33l51.18,29.55C687.82,636.87,693.5,637.11,696.75,635.23z"/>
				<g>
					<path class="st10" d="M641.25,628.81c0,1.63,1.14,3.61,2.55,4.42c1.41,0.81,2.55,0.15,2.55-1.47s-1.14-3.61-2.55-4.42
						C642.39,626.52,641.25,627.18,641.25,628.81z"/>
					<path class="st13" d="M633.03,624.07c0,1.63,1.14,3.61,2.55,4.42c1.41,0.81,2.55,0.15,2.55-1.47c0-1.63-1.14-3.61-2.55-4.42
						C634.17,621.78,633.03,622.44,633.03,624.07z"/>
					<path class="st10" d="M624.81,619.32c0,1.63,1.14,3.61,2.55,4.42c1.41,0.81,2.55,0.15,2.55-1.47c0-1.63-1.14-3.61-2.55-4.42
						C625.95,617.03,624.81,617.69,624.81,619.32z"/>
				</g>
			</g>
			<g>
				<path class="st12" d="M617.98,588.18L617.98,588.18v-21.82l48.94-0.03l16.92-9.77c3.88-2.24,10.66-1.96,15.15,0.63l15.78,9.11
					l48.98-0.03v22.45c0.11,1.52-0.74,2.98-2.6,4.06l-63.25,36.52c-3.88,2.24-10.66,1.96-15.15-0.63l-61.08-35.26
					C619.09,591.91,617.84,589.98,617.98,588.18z"/>
				<path class="st12" d="M690.86,555.06c2.84,0.07,5.79,0.78,8.12,2.13l15.78,9.11l48.98-0.03v22.45c0.11,1.52-0.74,2.98-2.6,4.06
					l-63.25,36.52c-1.87,1.08-4.4,1.57-7.03,1.5V555.06z"/>
				<path class="st23" d="M758.2,566.27l5.54,0v22.45c0.11,1.52-0.74,2.98-2.6,4.06l-2.94,1.7V566.27z"/>
				<path class="st23" d="M696.92,629.77c-3.35,1.43-8.19,1.35-12.11-0.14v-25.49h12.11V629.77z"/>
				<path class="st10" d="M697.89,606.93l63.25-36.52c3.88-2.24,3.4-6.16-1.09-8.74l-61.08-35.26c-4.48-2.59-11.26-2.87-15.15-0.63
					l-63.25,36.52c-3.88,2.24-3.4,6.16,1.09,8.74l61.08,35.26C687.23,608.89,694.01,609.17,697.89,606.93z"/>
				<path class="st13" d="M696.75,600.35l53.01-30.6c3.25-1.88,2.85-5.16-0.91-7.33l-51.18-29.55c-3.76-2.17-9.44-2.4-12.69-0.53
					l-53.01,30.6c-3.25,1.88-2.85,5.16,0.91,7.33l51.18,29.55C687.82,602,693.5,602.23,696.75,600.35z"/>
				<g>
					<path class="st13" d="M641.25,593.94c0,1.63,1.14,3.61,2.55,4.42c1.41,0.81,2.55,0.15,2.55-1.47c0-1.63-1.14-3.61-2.55-4.42
						C642.39,591.65,641.25,592.31,641.25,593.94z"/>
					<path class="st13" d="M633.03,589.19c0,1.63,1.14,3.61,2.55,4.42c1.41,0.81,2.55,0.15,2.55-1.47s-1.14-3.61-2.55-4.42
						C634.17,586.9,633.03,587.56,633.03,589.19z"/>
					<path class="st10" d="M624.81,584.44c0,1.63,1.14,3.61,2.55,4.42c1.41,0.81,2.55,0.15,2.55-1.47s-1.14-3.61-2.55-4.42
						C625.95,582.15,624.81,582.82,624.81,584.44z"/>
				</g>
			</g>
			<g>
				<path class="st11" d="M617.98,553.3L617.98,553.3v-21.82l48.94-0.03l16.92-9.77c3.88-2.24,10.66-1.96,15.15,0.63l15.78,9.11
					l48.98-0.03v22.45c0.11,1.52-0.74,2.98-2.6,4.06l-63.25,36.52c-3.88,2.24-10.66,1.96-15.15-0.63l-61.08-35.26
					C619.09,557.03,617.84,555.1,617.98,553.3z"/>
				<path class="st11" d="M690.86,520.18c2.84,0.07,5.79,0.78,8.12,2.13l15.78,9.11l48.98-0.03v22.45c0.11,1.52-0.74,2.98-2.6,4.06
					l-63.25,36.52c-1.87,1.08-4.4,1.57-7.03,1.5V520.18z"/>
				<path class="st17" d="M758.2,531.4l5.54,0v22.45c0.11,1.52-0.74,2.98-2.6,4.06l-2.94,1.7V531.4z"/>
				<path class="st17" d="M696.92,594.89c-3.35,1.43-8.19,1.35-12.11-0.14v-25.49h12.11V594.89z"/>
				<path class="st10" d="M697.89,572.05l63.25-36.52c3.88-2.24,3.4-6.16-1.09-8.74l-61.08-35.26c-4.48-2.59-11.26-2.87-15.15-0.63
					l-63.25,36.52c-3.88,2.24-3.4,6.16,1.09,8.74l61.08,35.26C687.23,574.01,694.01,574.29,697.89,572.05z"/>
				<path class="st7" d="M621.67,531.87l61.08,35.26c4.48,2.59,11.26,2.87,15.15,0.63l63.25-36.52c0.87-0.5,1.5-1.09,1.94-1.72
					c1.33,2.15,0.73,4.47-1.94,6.01l-63.25,36.52c-3.88,2.24-10.66,1.96-15.15-0.63l-61.08-35.26c-3.48-2.01-4.54-4.82-3.02-7.03
					C619.26,530.11,620.27,531.06,621.67,531.87z"/>
				<g>
					<path class="st10" d="M641.25,559.06c0,1.63,1.14,3.61,2.55,4.42c1.41,0.81,2.55,0.15,2.55-1.47s-1.14-3.61-2.55-4.42
						C642.39,556.77,641.25,557.43,641.25,559.06z"/>
					<path class="st10" d="M633.03,554.31c0,1.63,1.14,3.61,2.55,4.42c1.41,0.81,2.55,0.15,2.55-1.47s-1.14-3.61-2.55-4.42
						C634.17,552.02,633.03,552.68,633.03,554.31z"/>
					<path class="st13" d="M624.81,549.57c0,1.63,1.14,3.61,2.55,4.42c1.41,0.81,2.55,0.15,2.55-1.47c0-1.63-1.14-3.61-2.55-4.42
						C625.95,547.28,624.81,547.94,624.81,549.57z"/>
				</g>
				<g>
					<path class="st13" d="M694.15,549.41l29.6-17.09c1.82-1.05,1.59-2.88-0.51-4.09l-28.58-16.5c-2.1-1.21-5.27-1.34-7.09-0.29
						l-29.6,17.09c-1.82,1.05-1.59,2.88,0.51,4.09l28.58,16.5C689.16,550.33,692.34,550.46,694.15,549.41z"/>
					<path class="st10" d="M691.32,535.1l4.1-2.36c0.25-0.15,0.22-0.4-0.07-0.57l-3.95-2.28c-0.29-0.17-0.73-0.19-0.98-0.04
						l-4.1,2.36c-0.25,0.15-0.22,0.4,0.07,0.57l3.95,2.28C690.63,535.23,691.07,535.25,691.32,535.1z"/>
					<path class="st14" d="M723.75,532.32l-0.08,0.05c-0.14-0.1-0.27-0.2-0.43-0.29l-28.58-16.5c-2.1-1.21-5.27-1.34-7.09-0.29
						l-29.52,17.04c-1.67-1.2-1.76-2.83-0.08-3.8l29.6-17.09c1.82-1.05,4.99-0.92,7.09,0.29l28.58,16.5
						C725.34,529.44,725.57,531.27,723.75,532.32z"/>
				</g>
			</g>
			<g>
				<path class="st10" d="M702.71,577.75c0,1.17,0.82,1.64,1.83,1.06c1.01-0.58,1.83-2.01,1.83-3.17c0-1.17-0.82-1.64-1.83-1.06
					C703.53,575.16,702.71,576.58,702.71,577.75z"/>
				<path class="st10" d="M708.39,574.49c0,1.17,0.82,1.64,1.83,1.06c1.01-0.58,1.83-2.01,1.83-3.17c0-1.17-0.82-1.64-1.83-1.06
					C709.21,571.9,708.39,573.32,708.39,574.49z"/>
				<path class="st10" d="M702.71,584.61c0,1.17,0.82,1.64,1.83,1.06c1.01-0.58,1.83-2.01,1.83-3.17c0-1.17-0.82-1.64-1.83-1.06
					C703.53,582.02,702.71,583.44,702.71,584.61z"/>
				<path class="st13" d="M708.39,581.35c0,1.17,0.82,1.64,1.83,1.06c1.01-0.58,1.83-2.01,1.83-3.17c0-1.17-0.82-1.64-1.83-1.06
					C709.21,578.76,708.39,580.18,708.39,581.35z"/>
			</g>
			<g>
				<path class="st13" d="M702.71,612.63c0,1.17,0.82,1.64,1.83,1.06c1.01-0.58,1.83-2.01,1.83-3.17c0-1.17-0.82-1.64-1.83-1.06
					C703.53,610.04,702.71,611.46,702.71,612.63z"/>
				<path class="st10" d="M708.39,609.37c0,1.17,0.82,1.64,1.83,1.06c1.01-0.58,1.83-2,1.83-3.17c0-1.17-0.82-1.64-1.83-1.06
					C709.21,606.78,708.39,608.2,708.39,609.37z"/>
				<path class="st13" d="M702.71,619.49c0,1.17,0.82,1.64,1.83,1.06c1.01-0.58,1.83-2.01,1.83-3.17s-0.82-1.64-1.83-1.06
					C703.53,616.9,702.71,618.32,702.71,619.49z"/>
				<path class="st10" d="M708.39,616.23c0,1.17,0.82,1.64,1.83,1.06c1.01-0.58,1.83-2.01,1.83-3.17c0-1.17-0.82-1.64-1.83-1.06
					C709.21,613.64,708.39,615.06,708.39,616.23z"/>
			</g>
			<g>
				<path class="st10" d="M702.71,647.51c0,1.17,0.82,1.64,1.83,1.06c1.01-0.58,1.83-2.01,1.83-3.17c0-1.17-0.82-1.64-1.83-1.06
					C703.53,644.92,702.71,646.34,702.71,647.51z"/>
				<path class="st13" d="M708.39,644.25c0,1.17,0.82,1.64,1.83,1.06c1.01-0.58,1.83-2.01,1.83-3.17c0-1.17-0.82-1.64-1.83-1.06
					C709.21,641.66,708.39,643.08,708.39,644.25z"/>
				<path class="st10" d="M702.71,654.37c0,1.17,0.82,1.64,1.83,1.06c1.01-0.58,1.83-2.01,1.83-3.17c0-1.17-0.82-1.64-1.83-1.06
					C703.53,651.78,702.71,653.2,702.71,654.37z"/>
				<path class="st10" d="M708.39,651.11c0,1.17,0.82,1.64,1.83,1.06c1.01-0.58,1.83-2.01,1.83-3.17c0-1.17-0.82-1.64-1.83-1.06
					C709.21,648.52,708.39,649.94,708.39,651.11z"/>
			</g>
		</g>
		<g>
			<polygon class="st10" points="700.91,466.8 705.01,465.15 701.82,462.69 			"/>
			<polygon class="st10" points="698.85,422.34 702.84,420.72 702.56,422.4 			"/>
			<polygon class="st10" points="713.79,456.41 717.95,454.73 711.89,448.63 			"/>
			<g>
				<path class="st10" d="M703.93,465.04l-15.9-9.18c-0.81-0.47-1.29-1.64-1.09-2.62l3.81-18.04l18.82,10.86l-3.81,18.04
					C705.56,465.09,704.74,465.51,703.93,465.04z"/>
				<path class="st10" d="M702.8,420.74l-21.48,10.83c-0.91,0.46-0.61,2.17,0.5,2.81l17.53,10.12l17.53,10.12
					c1.11,0.64,1.99-0.39,1.45-1.69l-12.74-30.58C705.04,421.04,703.73,420.28,702.8,420.74z"/>
			</g>
			<g>
				<path class="st12" d="M699.76,466.72l-15.9-9.18c-0.81-0.47-1.29-1.64-1.09-2.62l3.81-18.04l18.82,10.86l-3.81,18.04
					C701.39,466.77,700.57,467.19,699.76,466.72z"/>
				<path class="st12" d="M698.63,422.43l-21.48,10.83c-0.91,0.46-0.61,2.17,0.5,2.81l17.53,10.12l17.53,10.12
					c1.11,0.64,1.99-0.39,1.45-1.69l-12.74-30.58C700.88,422.72,699.56,421.96,698.63,422.43z"/>
			</g>
		</g>
		<g>
			<polygon class="st10" points="590.61,403.53 594.71,401.88 591.52,399.42 			"/>
			<polygon class="st10" points="588.56,359.07 592.54,357.45 592.26,359.13 			"/>
			<polygon class="st10" points="603.5,393.14 607.65,391.46 601.59,385.35 			"/>
			<g>
				<path class="st10" d="M593.63,401.77l-15.9-9.18c-0.81-0.47-1.29-1.64-1.09-2.62l3.81-18.04l18.82,10.86l-3.81,18.04
					C595.26,401.82,594.44,402.24,593.63,401.77z"/>
				<path class="st10" d="M592.5,357.47l-21.48,10.83c-0.91,0.46-0.61,2.17,0.5,2.81l17.53,10.12l17.53,10.12
					c1.11,0.64,1.99-0.39,1.45-1.69l-12.74-30.58C594.75,357.77,593.43,357.01,592.5,357.47z"/>
			</g>
			<g>
				<path class="st12" d="M589.47,403.45l-15.9-9.18c-0.81-0.47-1.29-1.64-1.09-2.62l3.81-18.04l18.82,10.86l-3.81,18.04
					C591.1,403.5,590.27,403.92,589.47,403.45z"/>
				<path class="st12" d="M588.33,359.16l-21.48,10.83c-0.91,0.46-0.61,2.17,0.5,2.81l17.53,10.12l17.53,10.12
					c1.11,0.64,1.99-0.39,1.45-1.69l-12.74-30.58C590.58,359.45,589.26,358.69,588.33,359.16z"/>
			</g>
		</g>
		<g>
			<path class="st16" d="M208.12,670.98l119.46-68.64c9.42-5.41,25.86-4.7,36.71,1.6l244.99,142.13c10.85,6.3,12.01,15.79,2.59,21.2
				l-119.46,68.64c-9.42,5.41-25.86,4.7-36.71-1.6L210.71,692.18C199.85,685.89,198.69,676.39,208.12,670.98z"/>
			<path class="st24" d="M497.17,795.46l122.33-70.29c5.36-3.08,8.05-7.18,8.19-11.5l0,0l0.1-21.06l-3.93,6.78
				c-1.88-2.2-4.44-4.3-7.68-6.18L369.84,550.29c-13.96-8.1-35.1-9.02-47.21-2.06l-122.33,70.29c-1.3,0.75-2.43,1.55-3.42,2.41
				l-4.69-6.01l-0.1,19.8l0-0.01c-0.17,5.45,3.73,11.25,11.52,15.77l246.35,142.92C463.91,801.5,485.05,802.42,497.17,795.46z"/>
			<path class="st12" d="M200.38,602.87l122.33-70.29c12.12-6.96,33.25-6.04,47.21,2.06l246.35,142.92
				c13.96,8.1,15.45,20.31,3.33,27.27l-122.33,70.29c-12.12,6.96-33.25,6.04-47.21-2.06L203.71,630.14
				C189.75,622.04,188.26,609.83,200.38,602.87z"/>
			<path class="st11" d="M619.61,704.83l-122.33,70.29c-12.12,6.96-33.26,6.04-47.21-2.06L203.71,630.14
				c-6.76-3.92-10.57-8.81-11.35-13.6c-0.97,5.85,2.87,12.28,11.35,17.2l246.35,142.92c13.96,8.1,35.1,9.02,47.21,2.06l122.33-70.29
				c6.25-3.59,8.85-8.57,8.02-13.67C627,698.55,624.37,702.1,619.61,704.83z"/>
			<path class="st7" d="M208.12,605.7l119.46-68.64c9.42-5.41,25.86-4.7,36.71,1.6L609.28,680.8c10.85,6.3,12.01,15.79,2.59,21.2
				l-119.46,68.64c-9.42,5.41-25.86,4.7-36.71-1.6L210.71,626.9C199.85,620.61,198.69,611.12,208.12,605.7z"/>
			<g id="XMLID_4666_">
				<polygon id="XMLID_4409_" class="st25" points="474.02,762.9 601.2,690.01 507.07,635.26 379.89,708.15 				"/>
				<g id="XMLID_4403_">
					<g id="XMLID_4400_">
						<g id="XMLID_2989_">
							<g id="XMLID_4683_">
								<polygon id="XMLID_4664_" class="st26" points="474.05,756.75 601.23,683.86 507.11,629.12 379.92,702 								"/>
							</g>
							<g id="XMLID_4686_">
								<polygon id="XMLID_4663_" class="st27" points="474.04,760.94 379.91,706.19 379.92,702 474.05,756.75 								"/>
							</g>
							<g id="XMLID_2987_">
								<g id="XMLID_4684_">
									<polygon id="XMLID_4662_" class="st12" points="601.23,683.86 601.22,688.05 474.04,760.94 474.05,756.75 									"/>
								</g>
								<g id="XMLID_4685_" class="st28">
									<polygon id="XMLID_4661_" class="st12" points="601.23,683.86 601.22,688.05 474.04,760.94 474.05,756.75 									"/>
								</g>
							</g>
							<g id="XMLID_2985_">
								<g id="XMLID_2959_">
									<polygon id="XMLID_4660_" class="st29" points="474.04,760.94 474.05,756.75 455.95,746.22 455.94,750.41 									"/>
								</g>
								<g id="XMLID_2960_" class="st30">
									<polygon id="XMLID_4643_" class="st29" points="474.04,760.94 474.05,756.75 455.95,746.22 455.94,750.41 									"/>
								</g>
							</g>
							<g id="XMLID_2980_">
								<g id="XMLID_2962_">
									<polygon id="XMLID_4641_" class="st13" points="455.95,746.22 583.13,673.33 601.23,683.86 474.05,756.75 									"/>
								</g>
								<g id="XMLID_2964_" class="st31">
									<polygon id="XMLID_4575_" class="st13" points="455.95,746.22 583.13,673.34 601.23,683.86 474.05,756.75 									"/>
								</g>
							</g>
							<g id="XMLID_4146_">
								<g id="XMLID_4316_">
									<path id="XMLID_5152_" class="st32" d="M455.53,736.01c-1-0.58-0.94-1.55,0.13-2.16l9.53-5.47
										c1.07-0.61,2.75-0.64,3.75-0.06c1,0.58,0.94,1.55-0.13,2.16l-9.53,5.47C458.21,736.57,456.53,736.59,455.53,736.01z"/>
								</g>
								<g id="XMLID_4312_">
									<path id="XMLID_5150_" class="st32" d="M471.62,726.79c-1-0.58-0.94-1.55,0.13-2.16l9.53-5.47
										c1.07-0.61,2.75-0.64,3.75-0.06c1,0.58,0.94,1.55-0.13,2.16l-9.53,5.47C474.3,727.35,472.62,727.38,471.62,726.79z"/>
								</g>
								<g id="XMLID_4308_">
									<path id="XMLID_5148_" class="st32" d="M487.7,717.58c-1-0.58-0.94-1.55,0.13-2.16l9.53-5.47
										c1.07-0.61,2.75-0.64,3.75-0.06s0.94,1.55-0.13,2.16l-9.53,5.47C490.38,718.13,488.7,718.16,487.7,717.58z"/>
								</g>
								<g id="XMLID_4302_">
									<path id="XMLID_5146_" class="st32" d="M503.79,708.36c-1-0.58-0.94-1.55,0.13-2.16l9.53-5.47
										c1.07-0.61,2.75-0.64,3.75-0.06c1,0.58,0.94,1.55-0.13,2.16l-9.53,5.47C506.47,708.91,504.79,708.94,503.79,708.36z"/>
								</g>
								<g id="XMLID_4299_">
									<path id="XMLID_5144_" class="st32" d="M519.88,699.14c-1-0.58-0.94-1.55,0.13-2.16l9.53-5.47
										c1.07-0.61,2.75-0.64,3.75-0.06c1,0.58,0.94,1.55-0.13,2.16l-9.53,5.47C522.55,699.7,520.88,699.72,519.88,699.14z"/>
								</g>
								<g id="XMLID_4297_">
									<path id="XMLID_5142_" class="st32" d="M535.96,689.92c-1-0.58-0.94-1.55,0.13-2.16l9.53-5.47
										c1.07-0.61,2.75-0.64,3.75-0.06c1,0.58,0.94,1.55-0.13,2.16l-9.53,5.47C538.64,690.48,536.96,690.5,535.96,689.92z"/>
								</g>
								<g id="XMLID_4296_">
									<path id="XMLID_5140_" class="st32" d="M552.05,680.7c-1-0.58-0.94-1.55,0.13-2.16l9.53-5.47
										c1.07-0.61,2.75-0.64,3.75-0.06c1,0.58,0.94,1.55-0.13,2.16l-9.53,5.47C554.73,681.26,553.05,681.28,552.05,680.7z"/>
								</g>
							</g>
							<g id="XMLID_2983_">
								<g id="XMLID_4290_">
									<path id="XMLID_4640_" class="st27" d="M506.69,637.27c-0.12,0.21-0.05,0.49,0.16,0.61l50.68,29.48
										c0.21,0.12,0.49,0.05,0.61-0.16c0.12-0.21,0.05-0.49-0.16-0.61l-50.68-29.48C507.09,636.98,506.82,637.05,506.69,637.27z"
										/>
								</g>
								<g id="XMLID_4289_">
									<path id="XMLID_4590_" class="st27" d="M490.6,646.49c-0.12,0.21-0.05,0.49,0.16,0.61l50.69,29.48
										c0.21,0.12,0.49,0.05,0.61-0.16c0.12-0.21,0.05-0.49-0.16-0.61l-50.69-29.48C491,646.2,490.72,646.28,490.6,646.49z"/>
								</g>
								<g id="XMLID_4285_">
									<path id="XMLID_4589_" class="st27" d="M474.51,655.71c-0.12,0.21-0.05,0.49,0.16,0.61l50.69,29.48
										c0.21,0.12,0.49,0.05,0.61-0.16c0.12-0.21,0.05-0.49-0.16-0.61l-50.69-29.48C474.91,655.43,474.63,655.5,474.51,655.71z"/>
								</g>
								<g id="XMLID_4284_">
									<path id="XMLID_4588_" class="st27" d="M458.42,664.93c-0.12,0.21-0.05,0.49,0.16,0.61l50.69,29.48
										c0.21,0.12,0.49,0.05,0.61-0.16s0.05-0.49-0.16-0.61l-50.69-29.48C458.81,664.65,458.54,664.72,458.42,664.93z"/>
								</g>
								<g id="XMLID_4200_">
									<path id="XMLID_4587_" class="st27" d="M442.32,674.16c-0.12,0.21-0.05,0.49,0.16,0.61l50.69,29.48
										c0.21,0.12,0.49,0.05,0.61-0.16c0.12-0.21,0.05-0.49-0.16-0.61l-50.69-29.48C442.72,673.87,442.45,673.94,442.32,674.16z"
										/>
								</g>
								<g id="XMLID_4199_">
									<path id="XMLID_4586_" class="st27" d="M426.23,683.38c-0.12,0.21-0.05,0.49,0.16,0.61l50.69,29.48
										c0.21,0.12,0.49,0.05,0.61-0.16c0.12-0.21,0.05-0.49-0.16-0.61l-50.69-29.48C426.63,683.09,426.36,683.17,426.23,683.38z"
										/>
								</g>
								<g id="XMLID_4147_">
									<path id="XMLID_4585_" class="st27" d="M410.14,692.6c-0.12,0.21-0.05,0.49,0.16,0.61l50.69,29.48
										c0.21,0.12,0.49,0.05,0.61-0.16c0.12-0.21,0.05-0.49-0.16-0.61l-50.69-29.48C410.54,692.32,410.26,692.39,410.14,692.6z"/>
								</g>
								<g id="XMLID_3014_">
									<path id="XMLID_4584_" class="st27" d="M394.05,701.82c-0.12,0.21-0.05,0.49,0.16,0.61l50.69,29.48
										c0.21,0.12,0.49,0.05,0.61-0.16c0.12-0.21,0.05-0.49-0.16-0.61l-50.69-29.48C394.44,701.54,394.17,701.61,394.05,701.82z"
										/>
								</g>
								<g id="XMLID_2981_">
									<path id="XMLID_4583_" class="st27" d="M432.06,723.93c-0.08,0.13-0.08,0.3,0,0.45c0.12,0.21,0.4,0.29,0.61,0.17
										l112.65-64.56c0.21-0.12,0.29-0.39,0.17-0.61c-0.12-0.21-0.4-0.29-0.61-0.17l-112.65,64.56
										C432.15,723.81,432.1,723.87,432.06,723.93z"/>
								</g>
								<g id="XMLID_2982_">
									<path id="XMLID_4582_" class="st27" d="M419.39,716.56c-0.08,0.13-0.08,0.3,0,0.45c0.12,0.21,0.4,0.29,0.61,0.17
										l112.64-64.56c0.22-0.12,0.29-0.39,0.17-0.61c-0.12-0.21-0.4-0.29-0.61-0.17L419.55,716.4
										C419.48,716.44,419.43,716.5,419.39,716.56z"/>
								</g>
								<g id="XMLID_2984_">
									<path id="XMLID_4581_" class="st27" d="M406.72,709.2c-0.08,0.13-0.08,0.3,0,0.45c0.12,0.21,0.4,0.29,0.61,0.17
										l112.64-64.56c0.21-0.12,0.29-0.4,0.17-0.61c-0.12-0.21-0.4-0.29-0.61-0.17l-112.65,64.56
										C406.81,709.07,406.76,709.13,406.72,709.2z"/>
								</g>
								<g id="XMLID_2968_">
									<path id="XMLID_4576_" class="st27" d="M394.21,701.66l112.65-64.56c0.14-0.08,0.31-0.08,0.45,0l50.68,29.48
										c0.14,0.08,0.22,0.23,0.22,0.39c0,0.16-0.09,0.31-0.22,0.39l-112.65,64.56c-0.14,0.08-0.31,0.08-0.45,0l-50.69-29.48
										c-0.14-0.08-0.22-0.23-0.22-0.39c0-0.08,0.02-0.16,0.06-0.22C394.09,701.76,394.14,701.7,394.21,701.66z M556.87,666.97
										l-49.79-28.96l-111.75,64.04l49.79,28.96L556.87,666.97z"/>
								</g>
							</g>
							<g id="XMLID_4398_">
								<g id="XMLID_4295_">
									<path id="XMLID_5110_" class="st33" d="M456.01,694.18l-1.21-1.76c-0.08-0.11-0.06-0.23,0.05-0.31l1.7-1.37
										c0.27-0.22-0.06-0.56-0.56-0.58l-3.13-0.12c-0.2-0.01-0.39-0.07-0.52-0.17l-1.99-1.56c-0.32-0.25-0.94-0.22-1.05,0.05
										l-0.72,1.69c-0.05,0.11-0.18,0.19-0.37,0.21l-2.93,0.4c-0.46,0.06-0.52,0.42-0.09,0.61l2.68,1.16
										c0.17,0.07,0.28,0.18,0.29,0.3l0.18,1.81c0.03,0.29,0.62,0.48,0.99,0.33l2.38-0.97c0.15-0.06,0.35-0.07,0.55-0.03
										l3.04,0.71C455.79,694.7,456.21,694.46,456.01,694.18z"/>
								</g>
								<g id="XMLID_4401_">
									<path id="XMLID_5108_" class="st33" d="M521.33,664.38c1.49,0.98,2.68,2.46,2.32,4.37c-0.43,2.34-2.91,3.07-4.91,3.52
										c-0.53,0.12-0.35-0.55,0.03-0.66c1.9-0.56,4.42-2.18,3.62-4.43c-0.78-2.21-3.51-2.89-5.61-3.21
										c-3.49-0.53-7.89,0.75-9.57,4.2c-3.66,7.53,13.59,7.11,16.79,3.25c0.26-0.31,0.94-0.24,0.75,0.26
										c-0.9,2.36-3.72,2.78-5.95,3.28c-2.49,0.56-4.98,0.69-7.51,0.26c-4.67-0.79-8.14-5.65-3.92-9.46
										C511.06,662.44,517.04,661.55,521.33,664.38z"/>
								</g>
								<g id="XMLID_55_">
									<path id="XMLID_56_" class="st34" d="M440.28,728.03c-1.49-0.98-2.68-2.46-2.32-4.37c0.43-2.34,2.91-3.07,4.91-3.52
										c0.53-0.12,0.35,0.55-0.03,0.66c-1.9,0.56-4.42,2.18-3.62,4.43c0.78,2.21,3.51,2.89,5.61,3.21
										c3.49,0.53,7.89-0.75,9.57-4.2c3.66-7.53-13.59-7.11-16.79-3.25c-0.26,0.31-0.94,0.24-0.75-0.26
										c0.9-2.36,3.72-2.78,5.95-3.28c2.49-0.56,4.98-0.69,7.51-0.26c4.67,0.79,8.14,5.65,3.92,9.46
										C450.55,729.97,444.57,730.85,440.28,728.03z"/>
								</g>
								<g id="XMLID_4407_">
									<path id="XMLID_5106_" class="st33" d="M425.95,697.25c0.47,0.81,0.58,1.67,0.88,2.53c0.12,0.34-0.46,0.68-0.68,0.39
										c-0.53-0.7-0.56-1.53-0.97-2.27c-0.07-0.12-0.13-0.25-0.2-0.39c0.2,1.3-0.63,3.36-0.89,4.24c-0.85,2.89-2.67,5.01-4.9,6.9
										c-0.21,0.18-0.38-0.04-0.28-0.25c0.2-0.45,0.47-0.59,0.8-0.95c1.01-1.06,1.8-2.35,2.48-3.64c0.66-1.24,1.93-4.36,1.73-6.15
										c-0.53,1.4-1.39,2.68-2.8,2.91c-0.16,0.03-0.37-0.08-0.29-0.28c0.37-0.86,1.06-1.36,1.5-2.18c0.52-0.97,0.9-1.92,1.11-3
										c0.08-0.42,0.6-0.46,0.9-0.27C425.2,695.38,425.47,696.41,425.95,697.25z"/>
								</g>
							</g>
						</g>
						<g id="XMLID_4319_">
							<g id="XMLID_4328_">
								<g id="XMLID_4329_">
									<path id="XMLID_5102_" class="st32" d="M588.75,678.86c0,0-0.04,0.01-0.12,0.04c-0.08,0.02-0.2,0.06-0.26,0.11
										c-0.18,0.09-0.11,0.23-0.12,0.4c0,0.35,0,0.84,0.01,1.44c0,0.6,0,1.29,0.02,2.03c0.02,0.74,0.02,1.54,0.06,2.33
										c0.01,0.24,0.77,0.25,0.79,0c0.04-0.79,0.05-1.59,0.07-2.33c0.02-0.74,0.03-1.44,0.03-2.03c0.01-0.6,0.01-1.09,0.02-1.44
										c-0.01-0.17,0.06-0.31-0.12-0.4c-0.06-0.05-0.17-0.08-0.26-0.11C588.79,678.87,588.75,678.86,588.75,678.86z"/>
								</g>
							</g>
							<g id="XMLID_4320_">
								<g id="XMLID_4326_">
									<g id="XMLID_4327_">
										<path id="XMLID_5099_" class="st9" d="M588.61,677.3c-1.92-0.01-3.49,0.9-3.55,2.77c0,0.03,0,0.07,0,0.1
											c0,0.01,0,0.03,0,0.04c0.02,0.51,0.36,1.01,1.03,1.41c1.38,0.8,3.62,0.81,5.01,0.02c0.65-0.37,0.99-0.85,1.03-1.34
											c0-0.03,0-0.07,0-0.1c0-0.06,0-0.12-0.01-0.18C592.05,678.19,590.51,677.3,588.61,677.3z"/>
									</g>
								</g>
								<g id="XMLID_4325_">
									<path id="XMLID_5096_" class="st32" d="M586.78,673.9l3.67-0.01c0.01,0.39-0.15,2.81,0.37,4.74
										c0.01,0.03,0.02,0.06,0.03,0.1c0.01,0.03,0.01,0.06,0.02,0.08l-0.01,0c0.05,0.37-0.16,0.76-0.66,1.04
										c-0.9,0.52-2.36,0.51-3.26-0.01c-0.45-0.26-0.67-0.6-0.67-0.94h0l0,0c0-0.11,0.03-0.21,0.07-0.32
										C586.89,676.38,586.81,674.33,586.78,673.9z"/>
								</g>
								<g id="XMLID_4323_">
									<g id="XMLID_4324_">
										<path id="XMLID_5094_" class="st9" d="M590.73,672.21c0.93,0.54,1.25,1.74,0.71,2.67c-0.12,0.21-0.28,0.39-0.46,0.53
											c-0.01,0.01-0.02,0.02-0.03,0.03c-0.02,0.02-0.05,0.03-0.07,0.05c-0.09,0.07-0.17,0.13-0.28,0.19
											c-1.1,0.63-2.87,0.62-3.96-0.01c-0.16-0.09-0.29-0.19-0.4-0.3c-0.71-0.6-0.92-1.64-0.43-2.47
											c0.54-0.93,1.74-1.25,2.67-0.71c0.05,0.03,0.1,0.07,0.15,0.11C589.24,671.88,590.05,671.81,590.73,672.21z"/>
									</g>
								</g>
								<g id="XMLID_4321_">
									<g id="XMLID_4322_">
										<path id="XMLID_5091_" class="st32" d="M590.61,674.4c1.1-0.63,1.1-1.65,0.01-2.29c-1.09-0.63-2.86-0.64-3.96-0.01
											c-1.1,0.63-1.1,1.65-0.01,2.29C587.74,675.02,589.51,675.03,590.61,674.4z"/>
									</g>
								</g>
							</g>
						</g>
						<g id="XMLID_4348_">
							<g id="XMLID_4382_">
								<g id="XMLID_4384_">
									<path id="XMLID_5086_" class="st32" d="M475.78,743.97c0,0-0.04,0.01-0.12,0.04c-0.08,0.02-0.2,0.06-0.26,0.11
										c-0.18,0.09-0.11,0.23-0.12,0.4c0,0.35,0,0.84,0.01,1.44c0,0.6,0,1.29,0.02,2.03c0.02,0.74,0.02,1.54,0.06,2.33
										c0.01,0.24,0.77,0.25,0.79,0c0.04-0.79,0.05-1.59,0.07-2.33c0.02-0.74,0.03-1.44,0.04-2.03c0.01-0.6,0.01-1.09,0.02-1.44
										c-0.01-0.17,0.06-0.31-0.12-0.4c-0.06-0.05-0.17-0.08-0.26-0.11C475.82,743.98,475.78,743.97,475.78,743.97z"/>
								</g>
							</g>
							<g id="XMLID_4349_">
								<g id="XMLID_4380_">
									<g id="XMLID_4381_">
										<path id="XMLID_5083_" class="st9" d="M475.65,742.41c-1.92-0.01-3.49,0.9-3.55,2.77c0,0.03,0,0.07,0,0.1
											c0,0.01,0,0.03,0,0.04c0.02,0.51,0.36,1.01,1.03,1.41c1.38,0.8,3.62,0.81,5.01,0.02c0.65-0.37,0.99-0.85,1.03-1.34
											c0-0.03,0-0.07,0-0.1c0-0.06,0-0.12-0.01-0.18C479.09,743.3,477.54,742.42,475.65,742.41z"/>
									</g>
								</g>
								<g id="XMLID_4378_">
									<path id="XMLID_5080_" class="st32" d="M473.81,739.02l3.67-0.01c0.01,0.39-0.15,2.81,0.37,4.74
										c0.01,0.03,0.02,0.06,0.03,0.1c0.01,0.03,0.01,0.06,0.02,0.08l-0.01,0c0.05,0.37-0.16,0.76-0.66,1.04
										c-0.9,0.52-2.36,0.51-3.26-0.01c-0.45-0.26-0.67-0.6-0.67-0.94l0,0l0,0c0-0.11,0.03-0.21,0.07-0.32
										C473.92,741.49,473.84,739.44,473.81,739.02z"/>
								</g>
								<g id="XMLID_4353_">
									<g id="XMLID_4357_">
										<path id="XMLID_5078_" class="st9" d="M477.76,737.32c0.93,0.54,1.25,1.74,0.71,2.67c-0.12,0.21-0.28,0.39-0.46,0.53
											c-0.01,0.01-0.02,0.02-0.03,0.03c-0.02,0.02-0.05,0.03-0.07,0.05c-0.09,0.07-0.17,0.13-0.28,0.19
											c-1.1,0.63-2.87,0.62-3.96-0.01c-0.16-0.09-0.29-0.19-0.4-0.3c-0.71-0.6-0.92-1.64-0.43-2.47
											c0.54-0.93,1.74-1.25,2.67-0.71c0.05,0.03,0.1,0.07,0.15,0.11C476.27,736.99,477.09,736.93,477.76,737.32z"/>
									</g>
								</g>
								<g id="XMLID_4350_">
									<g id="XMLID_4352_">
										<path id="XMLID_5075_" class="st32" d="M477.64,739.51c1.1-0.63,1.1-1.65,0.01-2.29c-1.09-0.63-2.86-0.64-3.96-0.01
											c-1.1,0.63-1.1,1.65-0.01,2.29C474.77,740.13,476.54,740.14,477.64,739.51z"/>
									</g>
								</g>
							</g>
						</g>
					</g>
				</g>
			</g>
			<g id="XMLID_4410_">
				<polygon id="XMLID_4404_" class="st25" points="423.69,665.83 365.62,700.08 293.38,659.25 351.46,625.01 				"/>
				<g id="XMLID_4156_">
					<g id="XMLID_3034_">
						<polygon id="XMLID_4347_" class="st35" points="365.6,697.49 423.67,663.24 423.63,658.05 365.55,692.3 						"/>
						<polygon id="XMLID_4385_" class="st27" points="365.6,697.49 293.36,656.67 293.32,651.48 365.55,692.3 						"/>
						<polygon id="XMLID_1_" class="st36" points="423.63,658.05 365.55,692.3 293.32,651.48 351.39,617.23 						"/>
					</g>
					<g id="XMLID_2888_">
						<polygon id="XMLID_2875_" class="st37" points="365.5,687.11 414.64,658.13 360.47,627.52 311.33,656.5 						"/>
						<polygon id="XMLID_2883_" class="st38" points="365.5,687.11 414.64,658.13 360.47,627.52 311.33,656.5 						"/>
					</g>
					<polygon id="XMLID_4177_" class="st37" points="329.39,666.71 363.72,664 362.05,639.34 365.15,648.62 377.11,647.96 
						375.52,636.02 360.47,627.52 311.33,656.5 					"/>
					<path id="XMLID_4242_" class="st37" d="M388.26,661.4c-2.47,1.46-6.49,1.49-8.98,0.08c-2.49-1.41-2.52-3.73-0.05-5.19
						c2.47-1.45,6.49-1.49,8.98-0.08C390.71,657.62,390.73,659.95,388.26,661.4z"/>
				</g>
				<g id="XMLID_4251_">
					<g id="XMLID_4396_">
						<path id="XMLID_4397_" class="st32" d="M388.65,667.5c0,0-0.05,0.02-0.15,0.05c-0.1,0.03-0.24,0.08-0.32,0.13
							c-0.22,0.12-0.13,0.29-0.14,0.5c0.01,0.43,0.02,1.04,0.03,1.78c0.01,0.74,0.02,1.6,0.06,2.52c0.03,0.92,0.05,1.9,0.11,2.89
							c0.02,0.3,0.96,0.3,0.97-0.01c0.03-0.98,0.04-1.97,0.05-2.89c0.02-0.92,0.01-1.78,0.01-2.52c0-0.74,0-1.35,0-1.78
							c-0.02-0.21,0.07-0.38-0.15-0.5c-0.08-0.06-0.22-0.1-0.32-0.13C388.7,667.52,388.65,667.5,388.65,667.5z"/>
					</g>
					<g id="XMLID_4252_">
						<g id="XMLID_4394_">
							<path id="XMLID_4395_" class="st9" d="M388.46,665.58c-2.38,0.02-4.3,1.16-4.35,3.49c-0.01,0.04,0,0.09,0,0.13
								c0,0.02,0,0.03,0,0.05c0.03,0.63,0.46,1.25,1.3,1.72c1.72,0.97,4.5,0.95,6.2-0.05c0.79-0.47,1.21-1.07,1.26-1.67
								c0.01-0.04,0-0.09,0-0.13c0-0.07,0-0.15-0.02-0.22C392.74,666.63,390.81,665.55,388.46,665.58z"/>
						</g>
						<path id="XMLID_4393_" class="st32" d="M386.14,661.4l4.55-0.07c0.02,0.48-0.15,3.48,0.53,5.86c0.02,0.04,0.02,0.08,0.03,0.12
							c0.01,0.03,0.02,0.07,0.03,0.1l-0.01,0c0.07,0.46-0.19,0.94-0.8,1.3c-1.11,0.65-2.92,0.67-4.04,0.04
							c-0.56-0.32-0.84-0.73-0.85-1.16h0l0,0c0-0.13,0.03-0.26,0.09-0.39C386.31,664.47,386.18,661.92,386.14,661.4z"/>
						<g id="XMLID_4389_">
							<path id="XMLID_4392_" class="st9" d="M391.01,659.24c1.16,0.66,1.57,2.13,0.92,3.3c-0.15,0.26-0.35,0.48-0.57,0.67
								c-0.01,0.01-0.02,0.02-0.04,0.04c-0.03,0.02-0.06,0.04-0.08,0.06c-0.1,0.08-0.21,0.17-0.34,0.25
								c-1.35,0.79-3.54,0.81-4.9,0.04c-0.2-0.11-0.36-0.24-0.5-0.37c-0.89-0.73-1.16-2.02-0.57-3.06c0.66-1.16,2.13-1.57,3.3-0.92
								c0.07,0.04,0.12,0.09,0.19,0.13C389.15,658.86,390.16,658.76,391.01,659.24z"/>
						</g>
						<g id="XMLID_4386_">
							<path id="XMLID_4388_" class="st32" d="M390.89,661.95c1.35-0.79,1.34-2.06-0.03-2.83c-1.36-0.77-3.56-0.75-4.9,0.04
								c-1.35,0.79-1.34,2.06,0.03,2.83C387.35,662.77,389.54,662.75,390.89,661.95z"/>
						</g>
					</g>
				</g>
			</g>
			<g id="XMLID_4402_">
				<polygon id="XMLID_4250_" class="st39" points="282.61,653.24 235.06,626.89 279.63,600.11 327.17,626.45 				"/>
				<g id="XMLID_4406_">
					<g id="XMLID_14190_">
						<polygon id="XMLID_4399_" class="st12" points="248.17,627.73 249.38,614.32 256.31,622.54 						"/>
						<path id="XMLID_4408_" class="st11" d="M279.79,594.28c0,0-25.9,16.04-29.14,18.06c-3.24,2.03,0.4,6.53,3.24,8.14
							c-3.49,1.89-7.98,7.23-4.42,9.6l25.93,17.1l44.56-26.78L279.79,594.28z"/>
						<polygon id="XMLID_14191_" class="st12" points="319.96,620.38 275.4,647.17 282.7,651.22 327.26,624.43 						"/>
					</g>
				</g>
			</g>
		</g>
		<path class="st10" d="M647.54,308.09c0,1.17-0.82,1.64-1.83,1.06c-1.01-0.58-1.83-2.01-1.83-3.17c0-1.17,0.82-1.64,1.83-1.06
			C646.72,305.5,647.54,306.92,647.54,308.09z"/>
		<path class="st10" d="M672.87,321.77c0,1.17-0.82,1.64-1.83,1.06c-1.01-0.58-1.83-2.01-1.83-3.17c0-1.17,0.82-1.64,1.83-1.06
			C672.05,319.18,672.87,320.6,672.87,321.77z"/>
		<g>
			<path class="st40" d="M388.65,573.45l-48.2-27.83c-1.79-1.03-1.56-2.83,0.5-4.03l0,0c2.06-1.19,5.19-1.32,6.97-0.29l48.2,27.83
				c1.79,1.03,1.56,2.83-0.5,4.03l0,0C393.56,574.35,390.44,574.48,388.65,573.45z"/>
			<path class="st40" d="M342.96,564.02l-17.19-9.93c-1.79-1.03-1.56-2.83,0.5-4.03l0,0c2.06-1.19,5.19-1.32,6.97-0.29l17.19,9.93
				c1.79,1.03,1.56,2.83-0.5,4.03l0,0C347.87,564.92,344.75,565.05,342.96,564.02z"/>
			<path class="st14" d="M371.82,580.68l-17.19-9.93c-1.79-1.03-1.56-2.83,0.5-4.03l0,0c2.06-1.19,5.19-1.32,6.97-0.29l17.19,9.93
				c1.79,1.03,1.56,2.83-0.5,4.03l0,0C376.73,581.58,373.6,581.71,371.82,580.68z"/>
			<path class="st40" d="M430.17,614.37l-46.69-26.95c-1.79-1.03-1.56-2.83,0.5-4.03l0,0c2.06-1.19,5.19-1.32,6.97-0.29l46.69,26.95
				c1.79,1.03,1.56,2.83-0.5,4.03l0,0C435.07,615.27,431.95,615.4,430.17,614.37z"/>
			<path class="st40" d="M371.31,597.34l-60.23-34.77c-1.79-1.03-1.56-2.83,0.5-4.03l0,0c2.06-1.19,5.19-1.32,6.97-0.29l60.23,34.77
				c1.79,1.03,1.56,2.83-0.5,4.03l0,0C376.22,598.24,373.1,598.37,371.31,597.34z"/>
			<path class="st14" d="M443.74,656.12L296.4,571.04c-1.79-1.03-1.56-2.83,0.5-4.03l0,0c2.06-1.19,5.19-1.32,6.97-0.29
				l147.34,85.07c1.79,1.03,1.56,2.83-0.5,4.03l0,0C448.65,657.02,445.53,657.15,443.74,656.12z"/>
			<path class="st40" d="M486.73,630.08l-84.78-48.95c-1.79-1.03-1.56-2.83,0.5-4.03l0,0c2.06-1.19,5.19-1.32,6.97-0.29l84.78,48.95
				c1.79,1.03,1.56,2.83-0.5,4.03l0,0C491.64,630.98,488.52,631.11,486.73,630.08z"/>
		</g>
		<path class="st40" d="M600.63,727.77c0,2.38-1.67,5.26-3.72,6.45c-2.06,1.19-3.72,0.22-3.72-2.15c0-2.38,1.67-5.26,3.72-6.45
			C598.96,724.43,600.63,725.39,600.63,727.77z"/>
		<g>
			<path class="st11" d="M504.45,418.22l4.1-2.36c0.25-0.15,0.22-0.4-0.07-0.57l-3.95-2.28c-0.29-0.17-0.73-0.19-0.98-0.04
				l-4.1,2.36c-0.25,0.15-0.22,0.4,0.07,0.57l3.95,2.28C503.76,418.34,504.2,418.36,504.45,418.22z"/>
			<path class="st11" d="M495.01,423.67l4.1-2.36c0.25-0.15,0.22-0.4-0.07-0.57l-3.95-2.28c-0.29-0.17-0.73-0.19-0.98-0.04
				l-4.1,2.36c-0.25,0.15-0.22,0.4,0.07,0.57l3.95,2.28C494.32,423.79,494.76,423.81,495.01,423.67z"/>
			<path class="st11" d="M485.57,429.12l4.1-2.36c0.25-0.15,0.22-0.4-0.07-0.57l-3.95-2.28c-0.29-0.17-0.73-0.19-0.98-0.04
				l-4.1,2.36c-0.25,0.15-0.22,0.4,0.07,0.57l3.95,2.28C484.88,429.24,485.32,429.26,485.57,429.12z"/>
		</g>
		<g>
			<path class="st11" d="M450.37,385.81l4.1-2.36c0.25-0.15,0.22-0.4-0.07-0.57l-3.95-2.28c-0.29-0.17-0.73-0.19-0.98-0.04
				l-4.1,2.36c-0.25,0.15-0.22,0.4,0.07,0.57l3.95,2.28C449.68,385.93,450.12,385.95,450.37,385.81z"/>
			<path class="st11" d="M440.93,391.26l4.1-2.36c0.25-0.15,0.22-0.4-0.07-0.57l-3.95-2.28c-0.29-0.17-0.73-0.19-0.98-0.04
				l-4.1,2.36c-0.25,0.15-0.22,0.4,0.07,0.57l3.95,2.28C440.24,391.38,440.68,391.4,440.93,391.26z"/>
			<path class="st11" d="M431.49,396.71l4.1-2.36c0.25-0.15,0.22-0.4-0.07-0.57l-3.95-2.28c-0.29-0.17-0.73-0.19-0.98-0.04
				l-4.1,2.36c-0.25,0.15-0.22,0.4,0.07,0.57l3.95,2.28C430.8,396.83,431.24,396.85,431.49,396.71z"/>
		</g>
		<g>
			<path class="st18" d="M617.86,479.23l4.1-2.36c0.25-0.15,0.22-0.4-0.07-0.57l-3.95-2.28c-0.29-0.17-0.73-0.19-0.98-0.04
				l-4.1,2.36c-0.25,0.15-0.22,0.4,0.07,0.57l3.95,2.28C617.17,479.36,617.61,479.38,617.86,479.23z"/>
			<path class="st18" d="M608.42,484.68l4.1-2.36c0.25-0.15,0.22-0.4-0.07-0.57l-3.95-2.28c-0.29-0.17-0.73-0.19-0.98-0.04
				l-4.1,2.36c-0.25,0.15-0.22,0.4,0.07,0.57l3.95,2.28C607.73,484.81,608.17,484.83,608.42,484.68z"/>
			<path class="st18" d="M598.98,490.13l4.1-2.36c0.25-0.15,0.22-0.4-0.07-0.57l-3.95-2.28c-0.29-0.17-0.73-0.19-0.98-0.04
				l-4.1,2.36c-0.25,0.15-0.22,0.4,0.07,0.57l3.95,2.28C598.29,490.26,598.73,490.28,598.98,490.13z"/>
		</g>
		<g>
			<path class="st18" d="M563.78,446.82l4.1-2.36c0.25-0.15,0.22-0.4-0.07-0.57l-3.95-2.28c-0.29-0.17-0.73-0.19-0.98-0.04
				l-4.1,2.36c-0.25,0.15-0.22,0.4,0.07,0.57l3.95,2.28C563.09,446.95,563.53,446.97,563.78,446.82z"/>
			<path class="st18" d="M554.34,452.27l4.1-2.36c0.25-0.15,0.22-0.4-0.07-0.57l-3.95-2.28c-0.29-0.17-0.73-0.19-0.98-0.04
				l-4.1,2.36c-0.25,0.15-0.22,0.4,0.07,0.57l3.95,2.28C553.65,452.4,554.09,452.42,554.34,452.27z"/>
			<path class="st18" d="M544.9,457.72l4.1-2.36c0.25-0.15,0.22-0.4-0.07-0.57l-3.95-2.28c-0.29-0.17-0.73-0.19-0.98-0.04l-4.1,2.36
				c-0.25,0.15-0.22,0.4,0.07,0.57l3.95,2.28C544.21,457.85,544.65,457.87,544.9,457.72z"/>
		</g>
		<g>
			<path class="st9" d="M729.51,541.81l4.1-2.36c0.25-0.15,0.22-0.4-0.07-0.57l-3.95-2.28c-0.29-0.17-0.73-0.19-0.98-0.04l-4.1,2.36
				c-0.25,0.15-0.22,0.4,0.07,0.57l3.95,2.28C728.82,541.94,729.26,541.96,729.51,541.81z"/>
			<path class="st9" d="M720.07,547.26l4.1-2.36c0.25-0.15,0.22-0.4-0.07-0.57l-3.95-2.28c-0.29-0.17-0.73-0.19-0.98-0.04l-4.1,2.36
				c-0.25,0.15-0.22,0.4,0.07,0.57l3.95,2.28C719.38,547.39,719.82,547.41,720.07,547.26z"/>
			<path class="st9" d="M710.63,552.71l4.1-2.36c0.25-0.15,0.22-0.4-0.07-0.57l-3.95-2.28c-0.29-0.17-0.73-0.19-0.98-0.04l-4.1,2.36
				c-0.25,0.15-0.22,0.4,0.07,0.57l3.95,2.28C709.94,552.84,710.38,552.86,710.63,552.71z"/>
		</g>
		<g>
			<path class="st9" d="M675.43,509.4l4.1-2.36c0.25-0.15,0.22-0.4-0.07-0.57l-3.95-2.28c-0.29-0.17-0.73-0.19-0.98-0.04l-4.1,2.36
				c-0.25,0.15-0.22,0.4,0.07,0.57l3.95,2.28C674.74,509.53,675.18,509.55,675.43,509.4z"/>
			<path class="st9" d="M665.99,514.85l4.1-2.36c0.25-0.15,0.22-0.4-0.07-0.57l-3.95-2.28c-0.29-0.17-0.73-0.19-0.98-0.04l-4.1,2.36
				c-0.25,0.15-0.22,0.4,0.07,0.57l3.95,2.28C665.3,514.98,665.74,515,665.99,514.85z"/>
			<path class="st9" d="M656.55,520.3l4.1-2.36c0.25-0.15,0.22-0.4-0.07-0.57l-3.95-2.28c-0.29-0.17-0.73-0.19-0.98-0.04l-4.1,2.36
				c-0.25,0.15-0.22,0.4,0.07,0.57l3.95,2.28C655.86,520.43,656.3,520.45,656.55,520.3z"/>
		</g>
		<g>
			<path class="st16" d="M113.91,777.53l-61.31-35.4c-1.05-0.61-0.92-1.66,0.29-2.36l60.72-35.05c1.21-0.7,3.04-0.78,4.09-0.17
				l61.31,35.39c1.05,0.61,0.92,1.66-0.29,2.36L118,777.36C116.79,778.06,114.96,778.13,113.91,777.53z"/>
			<g>
				<path class="st12" d="M179.71,713.37v-11.83l-19.26,0.01l-42.74-24.68c-1.05-0.61-2.88-0.53-4.09,0.17l-42.55,24.57l-19.17,0.01
					l0,11.86h0.01c0.02,0.37,0.24,0.72,0.69,0.98l61.31,35.39c1.05,0.61,2.88,0.53,4.09-0.17l60.72-35.05
					C179.34,714.28,179.67,713.82,179.71,713.37z"/>
				
					<linearGradient id="SVGID_5_" gradientUnits="userSpaceOnUse" x1="246.9651" y1="1256.1052" x2="156.426" y2="1328.7074" gradientTransform="matrix(0.866 0.5 -1 0.5774 1213.4584 -145.9798)">
					<stop  offset="0" style="stop-color:#C0D6FF"/>
					<stop  offset="0.2978" style="stop-color:#C5DBFF"/>
					<stop  offset="0.6488" style="stop-color:#D3E9FF"/>
					<stop  offset="1" style="stop-color:#E9FFFF"/>
				</linearGradient>
				<path class="st41" d="M113.91,738.04l-61.31-35.4c-1.05-0.61-0.92-1.66,0.29-2.36l60.72-35.05c1.21-0.7,3.04-0.78,4.09-0.17
					l61.31,35.39c1.05,0.61,0.92,1.66-0.29,2.36L118,737.87C116.79,738.57,114.96,738.64,113.91,738.04z"/>
				<path class="st42" d="M114.12,733.89l-54.34-31.37c-0.93-0.54-0.81-1.47,0.26-2.09l53.82-31.07c1.07-0.62,2.7-0.69,3.63-0.15
					l54.34,31.37c0.93,0.54,0.81,1.47-0.26,2.09l-53.82,31.07C116.68,734.36,115.05,734.43,114.12,733.89z"/>
				<path class="st13" d="M114.26,731.27l-49.93-28.82c-0.85-0.49-0.75-1.35,0.24-1.92l49.45-28.55c0.99-0.57,2.48-0.63,3.33-0.14
					l49.93,28.82c0.85,0.49,0.75,1.35-0.24,1.92l-49.45,28.55C116.6,731.7,115.11,731.76,114.26,731.27z"/>
			</g>
			<g>
				<polygon class="st36" points="114.66,699.67 108.82,696.3 112.01,694.46 117.84,697.83 				"/>
				<polygon class="st36" points="125.51,699.19 119.67,702.57 116.48,700.72 122.32,697.35 				"/>
				<polygon class="st36" points="113.33,700.44 110.14,702.28 106.96,700.44 110.14,698.6 				"/>
				<polygon class="st36" points="124.35,706.8 121.16,708.64 111.97,703.33 115.16,701.49 				"/>
			</g>
		</g>
		<g>
			<path class="st16" d="M884.01,529.44l61.31-35.4c1.05-0.61,0.92-1.66-0.29-2.36l-60.72-35.05c-1.21-0.7-3.04-0.78-4.09-0.17
				l-61.31,35.39c-1.05,0.61-0.92,1.66,0.29,2.36l60.72,35.05C881.13,529.97,882.96,530.04,884.01,529.44z"/>
			<g>
				<path class="st12" d="M818.21,465.28v-11.83l19.26,0.01l42.74-24.68c1.05-0.61,2.88-0.53,4.09,0.17l42.55,24.57l19.17,0.01
					l0,11.86h-0.01c-0.02,0.37-0.24,0.72-0.69,0.98l-61.31,35.39c-1.05,0.61-2.88,0.53-4.09-0.17l-60.72-35.05
					C818.57,466.19,818.24,465.73,818.21,465.28z"/>
				
					<linearGradient id="SVGID_6_" gradientUnits="userSpaceOnUse" x1="1041.8125" y1="138.1347" x2="951.2734" y2="210.7368" gradientTransform="matrix(-0.866 0.5 1 0.5774 1590.7665 -145.9798)">
					<stop  offset="0" style="stop-color:#C0D6FF"/>
					<stop  offset="0.2978" style="stop-color:#C5DBFF"/>
					<stop  offset="0.6488" style="stop-color:#D3E9FF"/>
					<stop  offset="1" style="stop-color:#E9FFFF"/>
				</linearGradient>
				<path class="st43" d="M884.01,489.95l61.31-35.4c1.05-0.61,0.92-1.66-0.29-2.36l-60.72-35.05c-1.21-0.7-3.04-0.78-4.09-0.17
					l-61.31,35.39c-1.05,0.61-0.92,1.66,0.29,2.36l60.72,35.05C881.13,490.48,882.96,490.55,884.01,489.95z"/>
				<path class="st42" d="M883.79,485.8l54.34-31.37c0.93-0.54,0.81-1.47-0.26-2.09l-53.82-31.07c-1.07-0.62-2.7-0.69-3.63-0.15
					l-54.34,31.37c-0.93,0.54-0.81,1.47,0.26,2.09l53.82,31.07C881.24,486.27,882.87,486.34,883.79,485.8z"/>
				<path class="st13" d="M883.66,483.17l49.93-28.82c0.85-0.49,0.75-1.35-0.24-1.92l-49.45-28.55c-0.99-0.57-2.48-0.63-3.33-0.14
					l-49.93,28.82c-0.85,0.49-0.75,1.35,0.24,1.92l49.45,28.55C881.31,483.6,882.8,483.67,883.66,483.17z"/>
			</g>
			<g>
				<polygon class="st36" points="883.26,451.58 889.1,448.21 885.91,446.37 880.07,449.74 				"/>
				<polygon class="st36" points="872.41,451.1 878.25,454.47 881.44,452.63 875.6,449.26 				"/>
				<polygon class="st36" points="884.59,452.34 887.77,454.18 890.96,452.34 887.77,450.5 				"/>
				<polygon class="st36" points="873.57,458.7 876.76,460.55 885.95,455.24 882.76,453.4 				"/>
			</g>
		</g>
		<g>
			<g>
				<g>
					<path class="st8" d="M658.17,941.77c-0.17,0-0.34-0.04-0.49-0.13l-144.74-83.57c-0.3-0.17-0.49-0.5-0.49-0.85
						s0.19-0.68,0.49-0.85l144.74-83.57c0.15-0.09,0.32-0.13,0.49-0.13c0.17,0,0.34,0.04,0.49,0.13l144.74,83.57
						c0.3,0.17,0.49,0.5,0.49,0.85s-0.19,0.68-0.49,0.85l-144.74,83.57C658.51,941.73,658.34,941.77,658.17,941.77z M515.4,857.22
						l142.77,82.43l142.78-82.43l-142.77-82.43L515.4,857.22z"/>
					<g>
						<path class="st16" d="M655.41,910.89l-89.33-51.96c-1.53-0.89-1.34-2.44,0.43-3.47L654.97,804c1.76-1.03,4.43-1.14,5.96-0.25
							l89.33,51.96c1.53,0.89,1.34,2.44-0.43,3.47l-88.47,51.46C659.6,911.67,656.93,911.78,655.41,910.89z"/>
						<g>
							<path class="st12" d="M751.28,816.71v-17.36l-28.07,0.02l-62.28-36.23c-1.53-0.89-4.2-0.78-5.96,0.25l-62,36.06l-27.93,0.02
								l0.01,17.4h0.02c0.03,0.54,0.35,1.05,1.01,1.44l89.33,51.96c1.53,0.89,4.2,0.78,5.96-0.25l88.47-51.46
								C750.75,818.04,751.23,817.36,751.28,816.71z"/>
							
								<linearGradient id="SVGID_7_" gradientUnits="userSpaceOnUse" x1="673.103" y1="1057.4435" x2="541.1819" y2="1163.2295" gradientTransform="matrix(0.866 0.5 -1 0.5774 1213.4584 -145.9798)">
								<stop  offset="0" style="stop-color:#C0D6FF"/>
								<stop  offset="0.2978" style="stop-color:#C5DBFF"/>
								<stop  offset="0.6488" style="stop-color:#D3E9FF"/>
								<stop  offset="1" style="stop-color:#E9FFFF"/>
							</linearGradient>
							<path class="st44" d="M655.41,852.92l-89.33-51.96c-1.53-0.89-1.34-2.44,0.43-3.47l88.47-51.46
								c1.76-1.03,4.43-1.14,5.96-0.25l89.33,51.96c1.53,0.89,1.34,2.44-0.43,3.47l-88.47,51.46
								C659.6,853.69,656.93,853.81,655.41,852.92z"/>
							<path class="st42" d="M655.72,846.83l-79.18-46.06c-1.35-0.79-1.18-2.16,0.38-3.07l78.42-45.62
								c1.56-0.91,3.93-1.01,5.28-0.22l79.18,46.06c1.35,0.79,1.18,2.16-0.38,3.07L661,846.61
								C659.44,847.52,657.07,847.62,655.72,846.83z"/>
							<path class="st13" d="M655.92,842.97l-72.74-42.32c-1.24-0.72-1.09-1.99,0.35-2.82l72.05-41.91c1.44-0.84,3.61-0.93,4.85-0.2
								l72.74,42.31c1.24,0.72,1.09,1.99-0.35,2.82l-72.05,41.91C659.34,843.61,657.16,843.7,655.92,842.97z"/>
						</g>
					</g>
				</g>
				<g>
					<path d="M633.69,766.27c0,0-1.52,1.51-3.1,3.29c-1.58,1.78-5.96,4.2-7.81,5.29c-1.84,1.08-10.31,7.18-12.2,13.34
						c-1.89,6.16,4.03,7.13,10.13,6.2c6.1-0.93,11.92-6.39,13.62-8.37c1.7-1.98,7.57-6.43,15.12-10.11
						c7.55-3.67,3.17-8.98,3.17-8.98L633.69,766.27z"/>
					<path d="M688.6,786.08c0,0,1.16,2.82,1.42,6.42c0.26,3.6,0.57,11.39,0.7,13.67c0.13,2.28,0.07,7.85-4.07,13.08
						c-4.14,5.23-6.26,7.29-11.53,5.06c-5.27-2.23-4.93-11.16-3.87-15.73s2.19-14.83,2.12-15.91c-0.07-1.08,0.35-1.76,0.35-1.76
						L688.6,786.08z"/>
					<path class="st45" d="M617.94,660.4c0,0,0.1,41,9.11,62.99c0,0,6.36,19.32,6.7,42.13c0,0-1.68,3.88,0.48,7.13
						c2.16,3.25,16.11,6.51,18.68-3.91c2.58-10.42,2.17-30.05-0.17-38.29c-2.34-8.24,1.67-30.69,1.67-30.69s3.77,2.54,8.39,18.86
						c4.62,16.31,8.16,22.58,9.78,27.1c1.62,4.51,2.52,31.99,1.1,45.36c0,0,11.31,1.89,14.73-3.45c3.42-5.35,5.21-33.39,4.6-42.36
						c-0.61-8.97-3.64-37.74-2.91-46.6c0.73-8.86,2.76-16.02,0.95-24.93c-1.81-8.91-61.22-30.09-61.22-30.09L617.94,660.4z"/>
					<path class="st46" d="M690.12,698.67c0.73-8.86,2.76-16.02,0.95-24.93c-0.68-3.35-9.5-8.43-20.25-13.47
						c-18.29-2.13-41.49-4.65-43.1-4.45c-1.45,0.18-5.28,1.53-8.45,2.71l-1.33,1.87c0,0,0.01,2.49,0.15,6.57
						c4.24,1.39,12.5,0.27,12.5,0.27c1.09,2.9,7.98,13.3,16.75,17.93c8.78,4.63,34.81,3.76,36.26,5.48c1.45,1.71,1.18,24.15,0.95,27
						c-0.24,2.85,1.93,20.87,3.96,36.81c1.99,15.68-2.1,34.58-2.23,35.18c0.85-0.52,1.6-1.16,2.14-2c3.42-5.35,5.21-33.39,4.6-42.36
						C692.41,736.3,689.38,707.53,690.12,698.67z"/>
					<path class="st47" d="M641.32,526.88c0,0-13.36,2.7-17.86,3.64c-0.75,0.16-1.36,0.66-1.65,1.36
						c-1.37,3.24-4.86,13.31-2.79,28.19c2.55,18.29,1.29,30.53,1.29,30.53l-6.94,31.84c0,0-8.48,30.28-7.84,31.13
						c0.65,0.85,17.45,14.31,22.85,12.61c5.4-1.7,3.71-4.78,3.71-4.78s3.79,22.19,22.99,22.46c19.2,0.26,34.88,0.72,38.33-6.96
						c3.45-7.68,0.11-40.4-2.95-53.4c-3.06-13-10.47-38.94-10.47-38.94l28.89-30.42L685.3,535.2c0,0-5.48-10.81-7.8-12.22
						c-2.33-1.41-3.59-0.3-3.59-0.3L641.32,526.88z"/>
					<g>
						<path class="st48" d="M628.88,659.16c-0.01,1.11-0.7,2.74-4.18,3.84c-3.76,1.19-12.75-4.59-18.64-8.92
							c2.93,2.56,17.37,13.66,22.31,12.11c1.07-0.34,1.86-0.73,2.44-1.14C629.77,662.56,629.18,660.42,628.88,659.16z"/>
						<path class="st48" d="M693.33,674.31c-3.64,8.1-20.19,7.63-40.45,7.35c-5.15-0.07-9.25-1.64-12.5-3.94
							c3.42,3.43,8.17,6.06,14.7,6.15c19.2,0.26,34.88,0.72,38.33-6.96c1.13-2.52,1.53-7.75,1.45-14.08
							C694.78,667.97,694.32,672.12,693.33,674.31z"/>
					</g>
					<path class="st49" d="M676.99,522.7c0,0,4.76,6.06-2.5,13.9c-4.47,4.83-12.21,15.28-18.86,26.17
						c-4.15,6.8-7.92,10.39-10.16,16.27c0,0-0.12-7.05-0.13-17.94c-0.01-10.27,0.12-20.94,0.64-23.62
						C647.07,531.98,671.63,519.87,676.99,522.7z"/>
					<path class="st50" d="M658.18,540.11c0,0-2.55,1.5-3.42,1.35c-0.86-0.15-3.58-2.93-3.58-2.93s-6.96-0.3-7.65-3.3
						c-0.69-3-1.11-6.03-1.78-7.59c-0.67-1.57-3.49-9.09-3.44-12.11c0.05-3.02,0.3-8.42-0.93-11.31
						c-1.23-2.89-2.28-31.53,25.31-30.04c27.59,1.49,18.3,29.95,18.3,29.95s2,0.91,0.68,4.57c-1.31,3.66-1.6,4.04-2.26,5.85
						c-0.67,1.82-1,2.98-2.8,4.43l-0.54,3.39c0,0,1.18,5.23-2.38,10.19C670.15,537.52,658.18,540.11,658.18,540.11z"/>
					<path class="st51" d="M622.69,530.83c0,0-2.95,0.36-13.11,24.16c-5.66,13.28-14.24,26.96-16.23,36.89
						c-1.99,9.92-1.28,20.6,0.67,21.4c1.88,0.77,35.89,14.47,46.53,18.79c0.59,0.24,1.24-0.12,1.37-0.74l3.37-16.5l-21.1-8.76
						c0,0-3.93-5.06-7.7-7.01c0,0,4.47-7.76,4.25-9.92c-0.22-2.16,0.99-24.37-1.29-33.48C617.19,546.54,622.69,530.83,622.69,530.83
						z"/>
					<path class="st50" d="M633.59,594.66c0,0-2.88-2.04-3.6-2.34c-0.72-0.3-4.61-1.74-5.35-2.09c-0.55-0.26-2.84-0.13-3.99-0.04
						c-0.42,0.03-0.78,0.26-0.99,0.62c-0.95,1.66-3.59,6.49-3.36,8.36c0,0,6.98,4.66,7.72,6.68l1.13,0.27
						C625.15,606.12,630.15,596.05,633.59,594.66z"/>
					<path class="st52" d="M690.45,623.51c-0.74-3.13-1.73-7.01-2.8-11.09l-43.6,17.42c0,0,12.52,16.2,35.18,15.74
						c6.2-0.13,10.76-2.25,14.13-4.08C692.53,634.41,691.48,627.86,690.45,623.51z"/>
					<path class="st53" d="M708.87,554.15c0,0-11.42,1.28-20.97,15.62c-9.55,14.34-16.67,31.03-16.67,31.03l-0.36,1.89
						c-0.95,4.93-6.3,7.64-10.84,5.48c-9.6-4.57-23.81-11.48-26.44-13.52c0,0-8.71,4.54-11.34,15.71c-2.09,8.91-1.62,8.95-1.62,8.95
						s37.86,18.83,52.66,19.02c14.8,0.19,34.78-47.99,37.09-57.99C712.71,570.34,715.31,557.15,708.87,554.15z"/>
					<path class="st54" d="M708.87,554.15c0,0-11.42,1.28-20.97,15.62c-9.55,14.34-16.67,31.03-16.67,31.03l-0.36,1.89
						c-0.95,4.93-6.3,7.64-10.84,5.48c-9.6-4.57-23.81-11.48-26.44-13.52c0,0-8.71,4.54-11.34,15.71c-2.09,8.91-1.62,8.95-1.62,8.95
						s37.86,18.83,52.66,19.02c14.8,0.19,34.78-47.99,37.09-57.99C712.71,570.34,715.31,557.15,708.87,554.15z"/>
					<path class="st55" d="M665.47,610.58c0,0,4.72,4.64,6.89,2.22c2.17-2.42,1.55-2.71,1.55-2.71s4.35,0.07,4.95-2.64
						c0.6-2.71,2.7-1.22,2.9-4.25c0.2-3.03-3.46-2.5-3.46-2.5L665.47,610.58z"/>
					<path class="st50" d="M659.7,608.02c0,0,1.36-1.2,3.11-2.61c1.75-1.41,4.67-7.34,5.15-7.86c0.48-0.52,6.37-4.81,9.16-4.82
						c2.79-0.01,0.64,3.06-0.01,3.48c-0.65,0.42-3.41,1.71-3.41,1.71s-2.86,2.28-3.18,2.62c-0.33,0.34,7.8-0.36,9.06,0.46
						c1.27,0.82,0.92,2.88-0.01,3.42c-0.92,0.54-1.61,0.5-1.61,0.5s0.85,2.46-1.61,3.53c-2.46,1.07-3,0.43-3,0.43
						s-0.31,4.21-4.31,3.27L659.7,608.02z"/>
					<path class="st56" d="M637.13,489.58c0,0-3.89,11.39,5.68,8.36c9.57-3.03,18.29-8.28,21.22-6.13c2.23,1.64,2,6.49,1.77,8.72
						c-0.08,0.76,0.1,1.52,0.52,2.15l2.71,4.16c0.31,0.47,0.48,1.01,0.51,1.57l0.13,2.85c0.03,0.72,0.59,1.3,1.31,1.36l0.65,0.05
						c0.72,0.06,1.37-0.43,1.52-1.14l0.84-4.16c0,0,2.37-5.56,7.04-3.24c0,0,3.26-4.16,2.44-13.26c-0.82-9.1-4.65-18.63-22.41-20.58
						C643.27,468.34,637.13,489.58,637.13,489.58z"/>
					<path class="st57" d="M662.83,550.33l-2.61-2.13c0,0-2.51,1.99-3.53,4.13c-1.01,2.15-0.22,9.07-0.22,9.07l-0.85,1.38
						l-0.95-1.85l-0.64-8.18c0,0,1.06-6.01,1.15-6.16c0.09-0.15,5.12,0.66,5.12,0.66S662.02,548.63,662.83,550.33z"/>
					<path class="st57" d="M650.23,541.89c0,0-2.85,0.12-4.16,1.15c0,0,2.98,0.22,3.45,0.29C650,543.4,650.23,541.89,650.23,541.89z
						"/>
					<path class="st58" d="M655.63,542.67l4.66,4.58c0,0-4.24,1.83-5.5,5.54c0,0-5.22,0.84-5.65-1.05
						c-0.43-1.89,0.18-6.62-0.39-8.74C648.19,540.88,655.63,542.67,655.63,542.67z"/>
					<path class="st58" d="M649.34,551.64c0,0-0.98,3.89-1.99,5.48c-1.01,1.59-2.05,3.37-2.05,3.37l-0.45,22.92
						c0,0,8.86-17.16,10.77-20.63c0,0-0.07-8.37-0.83-9.98C654.04,551.19,649.34,551.64,649.34,551.64z"/>
					<path class="st59" d="M672.81,518.34c-5.93,15.84-21.63,20.19-21.63,20.19s2.72,2.77,3.58,2.93c0.86,0.15,3.42-1.35,3.42-1.35
						s11.96-2.59,15.52-7.55c3.56-4.96,2.38-10.19,2.38-10.19l0.54-3.39C674.13,519.73,672.81,518.34,672.81,518.34z"/>
					<path class="st60" d="M685.02,537.35c0,0-2.37,7.48-2.66,7.76s-5.48-0.45-5.48-0.45l2.41,4.86c0,0-26.92,27.47-32.73,42.45
						c0,0,12.88-18.86,35.29-41.21l-2.97-4.75l5.33,1.18L685.02,537.35z"/>
					<path class="st60" d="M642.11,529.63l-1.43,1.55l1.6,1.57l-4.96,4.26c0,0-2.25,30.72,3.17,51.24c0,0-7.57-18.89-4.92-52.12
						l5.33-3.43l-1.67-1.73L642.11,529.63z"/>
					<path class="st46" d="M654.42,699.77c0,0,0.06,0.04,0.18,0.15l-6.61-7.4c3.03,4.5-1.09,24.65-1.58,29.28
						c-0.49,4.63,3.27,14.3,4.49,25.55c1.22,11.24-2.24,27.15-2.26,27.2c1.97-1.08,3.56-2.91,4.28-5.8
						c2.58-10.42,2.17-30.05-0.17-38.29C650.41,722.22,654.42,699.77,654.42,699.77z"/>
					<path class="st61" d="M673.3,638.33c14.8,0.19,34.78-47.99,37.09-57.99c0.39-1.67,0.78-3.43,1.14-5.21
						c-0.06,0.14-4.15,10.55-8.08,19.77c-3.96,9.28-24.43,37.21-34.58,38.81c-9.15,1.44-41.55-14.67-47.82-17.85
						c-0.66,3.4-0.41,3.44-0.41,3.44S658.5,638.14,673.3,638.33z"/>
					<path class="st62" d="M671.61,512.67c0.72,0.06,1.37-0.43,1.52-1.14l0.84-4.16c0,0,2.37-5.56,7.04-3.24
						c0,0,3.08-3.96,2.49-12.55c-5.44,7.75-17.18,11.1-17.18,11.1l2.71,4.16c0.31,0.47,0.48,1.01,0.51,1.57l0.13,2.85
						c0.03,0.72,0.59,1.3,1.31,1.36L671.61,512.67z"/>
				</g>
			</g>
		</g>
		<g class="st6">
			<path class="st63" d="M60.66,597.05c-2.14,0-4.12-0.5-5.88-1.52c-4.23-2.44-6.55-7.5-6.55-14.25c0-13.48,9.5-29.92,21.17-36.66
				c3.67-2.11,7.29-3.1,10.56-2.9c4.22-15.85,15.26-31.19,27.68-38.36c7.94-4.59,15.49-5.35,21.25-2.14
				c5.21,2.9,8.38,8.74,9.05,16.56c0.85-0.65,1.7-1.22,2.53-1.71l0,0c4.4-2.54,8.59-2.92,11.79-1.07c3.21,1.85,4.97,5.67,4.97,10.74
				c0,10.03-7.07,22.28-15.76,27.29l-71.08,41.04C66.98,596.06,63.66,597.05,60.66,597.05z M79.08,543.7c-2.68,0-5.66,0.91-8.7,2.66
				c-11.12,6.42-20.17,22.09-20.17,34.93c0,6,1.97,10.45,5.55,12.51c3.58,2.07,8.42,1.55,13.61-1.45l71.08-41.04
				c8.14-4.7,14.76-16.17,14.76-25.56c0-4.33-1.41-7.53-3.97-9.01c-2.56-1.48-6.04-1.1-9.79,1.07c-1.23,0.71-2.49,1.63-3.75,2.75
				l-1.6,1.41l-0.07-2.13c-0.25-8.09-3.14-14.08-8.14-16.87c-5.12-2.85-11.97-2.1-19.28,2.12c-12.2,7.04-23.03,22.29-26.96,37.95
				l-0.22,0.87l-0.89-0.12C80.09,543.73,79.59,543.7,79.08,543.7z"/>
		</g>
		<g class="st6">
			<path class="st63" d="M312.76,378.52c-1.35,0-2.6-0.32-3.71-0.96c-2.65-1.53-4.12-4.68-4.12-8.86c0-8.18,5.76-18.16,12.84-22.25
				c2.3-1.33,4.55-1.93,6.59-1.79c-0.08-0.93-0.12-1.79-0.12-2.65c0-16.74,11.8-37.18,26.3-45.55c5.75-3.32,11.27-4.4,15.96-3.13
				c3.16,0.85,5.82,2.76,7.75,5.56c2.41-2.71,5.07-4.94,7.76-6.5c4.93-2.85,9.63-3.3,13.23-1.28c3.03,1.7,4.95,4.97,5.53,9.33
				c1.32-1.3,2.7-2.36,4.12-3.19v0c3.49-2.02,6.83-2.31,9.39-0.83c2.56,1.48,3.98,4.52,3.98,8.55c0,7.87-5.55,17.48-12.37,21.42
				l-87.11,50.29C316.67,377.91,314.62,378.52,312.76,378.52z M323.75,346.65c-1.52,0-3.21,0.52-4.98,1.54
				c-6.53,3.77-11.84,12.97-11.84,20.51c0,3.43,1.11,5.96,3.12,7.12c2.01,1.16,4.75,0.85,7.73-0.86l87.11-50.29
				c6.27-3.62,11.37-12.45,11.37-19.69c0-3.29-1.06-5.71-2.98-6.82c-1.92-1.11-4.54-0.81-7.39,0.83c-1.81,1.04-3.55,2.54-5.18,4.46
				l-1.7,2l-0.06-2.62c-0.11-4.79-1.78-8.33-4.68-9.96c-2.96-1.66-6.96-1.21-11.25,1.26c-2.82,1.63-5.63,4.08-8.11,7.08l-0.92,1.11
				l-0.72-1.25c-1.7-2.97-4.22-4.98-7.28-5.81c-4.17-1.13-9.17-0.11-14.44,2.94c-13.95,8.05-25.3,27.71-25.3,43.82
				c0,1.17,0.08,2.35,0.25,3.72l0.18,1.46l-1.43-0.37C324.77,346.71,324.27,346.65,323.75,346.65z"/>
		</g>
	</g>
</g>
</svg>
