<?xml version="1.0" encoding="utf-8"?>
<!-- Generator: Adobe Illustrator 23.0.3, SVG Export Plug-In . SVG Version: 6.00 Build 0)  -->
<svg version="1.1" xmlns="http://www.w3.org/2000/svg" xmlns:xlink="http://www.w3.org/1999/xlink" x="0px" y="0px"
	 viewBox="0 0 960 808.52" style="enable-background:new 0 0 960 808.52;" xml:space="preserve">
<style type="text/css">
	.st0{display:none;}
	.st1{display:inline;fill:url(#SVGID_1_);}
	.st2{display:inline;opacity:0.2;fill:url(#SVGID_2_);}
	.st3{display:inline;opacity:0.2;fill:url(#SVGID_3_);}
	.st4{display:inline;opacity:0.2;fill:url(#SVGID_4_);}
	.st5{opacity:0.3;}
	.st6{fill:#FFFFFF;}
	.st7{opacity:0.3;fill:#FFFFFF;}
	.st8{fill:#2B454E;}
	.st9{fill:#D4ECFF;}
	.st10{fill:#046CD0;}
	.st11{fill:#0054A0;}
	.st12{fill:#5793CE;}
	.st13{fill:#396CAA;}
	.st14{fill:#0762A5;}
	.st15{opacity:0.15;}
	.st16{fill:#1482DD;}
	.st17{fill:#5867DD;}
	.st18{fill:#6174E2;}
	.st19{fill:#01DEBE;}
	.st20{fill:#7188EA;}
	.st21{fill:#E4EBF9;}
	.st22{fill:#0C68AD;}
	.st23{fill:#004477;}
	.st24{opacity:0.2;}
	.st25{fill:#F5F5F5;}
	.st26{fill:#E1E1E1;}
	.st27{opacity:0.8;}
	.st28{fill:#004D87;}
	.st29{opacity:0.5;}
	.st30{opacity:0.65;}
	.st31{fill:#375A64;}
	.st32{fill:#FFC44D;}
	.st33{fill:#FFB8E4;}
	.st34{fill:#FAFAFA;}
	.st35{fill:#EDF3FC;}
	.st36{fill:#00DFBF;}
	.st37{opacity:0.75;fill:#FFFFFF;}
	.st38{opacity:0.1;}
	.st39{fill:#B2D3EA;}
	.st40{fill:url(#SVGID_5_);}
	.st41{fill:#242993;}
	.st42{fill:url(#SVGID_6_);}
	.st43{fill:url(#SVGID_7_);}
	.st44{fill:#092C52;}
	.st45{fill:#001F40;}
	.st46{fill:#123F69;}
	.st47{fill:#011E41;}
	.st48{fill:#F0F6FF;}
	.st49{fill:#FCD1C5;}
	.st50{fill:#133F6A;}
	.st51{fill:#062844;}
	.st52{fill:#24126A;}
	.st53{fill:#113F69;}
	.st54{fill:#453C9E;}
	.st55{fill:#152A43;}
	.st56{fill:#C4CCD6;}
	.st57{fill:#FF5D6A;}
	.st58{fill:#E2B1A6;}
	.st59{fill:#033556;}
	.st60{fill:#09335B;}
	.st61{fill:#010C22;}
	.st62{fill:#F0F3FF;}
</style>
<g id="Layer_1" class="st0">
	<linearGradient id="SVGID_1_" gradientUnits="userSpaceOnUse" x1="134.6327" y1="826.7175" x2="974.527" y2="-194.604">
		<stop  offset="0.0967" style="stop-color:#046CD0"/>
		<stop  offset="1" style="stop-color:#01DEBE"/>
	</linearGradient>
	<rect x="0" y="-133.25" class="st1" width="960" height="1080"/>
	<linearGradient id="SVGID_2_" gradientUnits="userSpaceOnUse" x1="381.5806" y1="451.1038" x2="177.9506" y2="590.0289">
		<stop  offset="0" style="stop-color:#FFFFFF"/>
		<stop  offset="1" style="stop-color:#FFFFFF;stop-opacity:0"/>
	</linearGradient>
	<polygon class="st2" points="0,180.18 433.78,946.75 0,946.75 	"/>
	<linearGradient id="SVGID_3_" gradientUnits="userSpaceOnUse" x1="697.3948" y1="125.3482" x2="753.2186" y2="2.2821">
		<stop  offset="0" style="stop-color:#FFFFFF"/>
		<stop  offset="1" style="stop-color:#FFFFFF;stop-opacity:0"/>
	</linearGradient>
	<polygon class="st3" points="960,338.64 455.34,-133.25 960,-133.25 	"/>
	<linearGradient id="SVGID_4_" gradientUnits="userSpaceOnUse" x1="260.0849" y1="624.0323" x2="90.7105" y2="774.3759">
		<stop  offset="0" style="stop-color:#FFFFFF"/>
		<stop  offset="1" style="stop-color:#FFFFFF;stop-opacity:0"/>
	</linearGradient>
	<polygon class="st4" points="0,474.86 324.67,946.75 0,946.75 	"/>
</g>
<g id="Layer_2">
	<g>
		<g>
			<g class="st5">
				<path class="st6" d="M409.15,444.32c-4.26,0-8.52-0.94-11.76-2.81l-98.2-56.7c-0.44-0.25-0.59-0.82-0.34-1.26
					c0.25-0.44,0.82-0.59,1.26-0.34l98.2,56.7c5.98,3.45,15.7,3.45,21.68,0l147.88-85.38c2.72-1.57,4.22-3.6,4.22-5.73
					c0-2.12-1.5-4.15-4.22-5.73l-98.91-57.1c-3.32-1.91-5.14-4.51-5.14-7.32c0-2.81,1.83-5.41,5.14-7.32l66.54-38.42
					c6.48-3.75,17.04-3.75,23.52,0L757.4,347.46c3.32,1.91,5.14,4.51,5.14,7.32c0,2.81-1.83,5.41-5.14,7.32l-117.16,67.64
					c-2.72,1.57-4.22,3.6-4.22,5.73c0,2.12,1.5,4.15,4.22,5.73c0.44,0.25,0.59,0.82,0.34,1.26c-0.25,0.44-0.82,0.59-1.26,0.34
					c-3.32-1.91-5.14-4.51-5.14-7.32c0-2.81,1.83-5.41,5.14-7.32l117.16-67.64c2.72-1.57,4.22-3.6,4.22-5.73
					c0-2.12-1.5-4.16-4.22-5.73L558.1,234.52c-5.98-3.45-15.7-3.45-21.68,0l-66.54,38.42c-2.72,1.57-4.22,3.6-4.22,5.73
					c0,2.12,1.5,4.15,4.22,5.73l98.91,57.1c3.31,1.91,5.14,4.51,5.14,7.32s-1.83,5.41-5.14,7.32l-147.88,85.38
					C417.67,443.38,413.41,444.32,409.15,444.32z"/>
				<path class="st6" d="M776.82,468.89c-0.32,0-0.63-0.17-0.8-0.46c-0.25-0.44-0.1-1,0.34-1.26l174.62-100.82
					c3.75-2.16,5.81-4.99,5.81-7.95c0-2.96-2.07-5.78-5.81-7.95l-167.48-96.7c-8.1-4.67-21.27-4.67-29.37,0l-37.44,21.62
					c-0.44,0.25-1.01,0.1-1.26-0.34c-0.25-0.44-0.1-1,0.34-1.26l37.44-21.62c8.61-4.97,22.61-4.97,31.22,0l167.48,96.7
					c4.34,2.51,6.73,5.9,6.73,9.54c0,3.65-2.39,7.04-6.73,9.54L777.28,468.77C777.13,468.85,776.97,468.89,776.82,468.89z"/>
				<path class="st6" d="M360.98,747.87c-4.8,0-9.59-1.05-13.24-3.16L108.48,606.57c-3.71-2.14-5.76-5.05-5.76-8.18
					c0-3.13,2.04-6.04,5.76-8.18l81.6-47.11c7.3-4.22,19.19-4.22,26.49,0l150.94,87.15c6.79,3.92,17.85,3.92,24.65,0l142.77-82.43
					c0.44-0.25,1-0.1,1.26,0.34c0.25,0.44,0.1,1-0.34,1.26l-142.77,82.43c-7.3,4.22-19.19,4.22-26.49,0l-150.94-87.15
					c-6.8-3.92-17.85-3.92-24.65,0l-81.6,47.11c-3.12,1.8-4.84,4.14-4.83,6.59c0,2.44,1.72,4.78,4.83,6.58l239.26,138.13
					c6.8,3.92,17.85,3.92,24.65,0l309.6-178.74c0.44-0.25,1-0.1,1.26,0.34c0.25,0.44,0.1,1-0.34,1.26L374.23,744.7
					C370.58,746.81,365.78,747.87,360.98,747.87z"/>
				<path class="st6" d="M388.89,541.16c-4.8,0-9.59-1.05-13.25-3.16L201.87,437.73c-6.79-3.92-17.85-3.92-24.65,0L1.38,539.25
					c-0.44,0.25-1,0.1-1.26-0.34c-0.25-0.44-0.1-1,0.34-1.26L176.3,436.14c7.3-4.22,19.19-4.22,26.49,0L376.57,536.4
					c6.79,3.92,17.85,3.92,24.65,0l57.08-32.95c0.44-0.25,1-0.1,1.26,0.34c0.25,0.44,0.1,1-0.34,1.26l-57.08,32.95
					C398.49,540.1,393.69,541.16,388.89,541.16z"/>
				<path class="st6" d="M589.91,679.44c-0.16,0-0.31-0.04-0.46-0.12L538,649.62c-0.44-0.25-0.59-0.82-0.34-1.26
					c0.25-0.44,0.81-0.59,1.26-0.34l51.45,29.7c0.44,0.25,0.59,0.82,0.34,1.26C590.53,679.28,590.22,679.44,589.91,679.44z"/>
				<path class="st6" d="M449.24,352.7c-0.32,0-0.63-0.17-0.8-0.46c-0.25-0.44-0.1-1,0.34-1.26l67.76-39.12
					c0.44-0.25,1-0.1,1.26,0.34c0.25,0.44,0.1,1-0.34,1.26l-67.77,39.12C449.56,352.66,449.4,352.7,449.24,352.7z"/>
				<path class="st6" d="M956.01,468.07c-0.16,0-0.31-0.04-0.46-0.12l-88.89-51.32c-0.44-0.25-0.59-0.82-0.34-1.26
					c0.25-0.44,0.81-0.59,1.26-0.34l88.89,51.32c0.44,0.25,0.59,0.82,0.34,1.26C956.64,467.91,956.33,468.07,956.01,468.07z"/>
				<path class="st6" d="M449.92,369.92h-30.52c-0.51,0-0.92-0.41-0.92-0.92l0-17.62c0-0.24,0.1-0.48,0.27-0.65
					c0.17-0.17,0.41-0.27,0.65-0.27h30.52c0.51,0,0.92,0.41,0.92,0.92V369C450.84,369.51,450.43,369.92,449.92,369.92z
					 M420.33,368.08H449v-15.78h-28.67L420.33,368.08z"/>
				<path class="st6" d="M814.72,331.34H784.2c-0.51,0-0.92-0.41-0.92-0.92V312.8c0-0.51,0.41-0.92,0.92-0.92h30.52
					c0.51,0,0.92,0.41,0.92,0.92v17.62C815.64,330.93,815.23,331.34,814.72,331.34z M785.12,329.5h28.67v-15.78h-28.67V329.5z"/>
				<path class="st6" d="M368.27,706.98c-5.91,0-11.82-1.3-16.32-3.9c-4.53-2.62-7.03-6.15-7.03-9.96c0-3.8,2.5-7.34,7.03-9.96
					c9-5.2,23.64-5.2,32.65,0l0,0c4.53,2.62,7.03,6.15,7.03,9.96c0,3.8-2.5,7.34-7.03,9.96
					C380.09,705.68,374.18,706.98,368.27,706.98z M368.27,681.09c-5.58,0-11.16,1.22-15.4,3.68c-3.94,2.28-6.11,5.24-6.11,8.36
					c0,3.12,2.17,6.09,6.11,8.36c8.49,4.9,22.31,4.91,30.8,0c3.94-2.28,6.11-5.24,6.11-8.36c0-3.12-2.17-6.09-6.11-8.36
					C379.42,682.31,373.85,681.09,368.27,681.09z"/>
				<path class="st6" d="M311.25,674.06c-5.91,0-11.82-1.3-16.32-3.9c-4.53-2.62-7.03-6.15-7.03-9.96c0-3.8,2.5-7.34,7.03-9.96
					c9-5.2,23.65-5.2,32.65,0l0,0c4.53,2.62,7.03,6.15,7.03,9.96s-2.5,7.34-7.03,9.96C323.07,672.76,317.16,674.06,311.25,674.06z
					 M311.25,648.17c-5.58,0-11.15,1.22-15.4,3.68c-3.94,2.28-6.11,5.24-6.11,8.36c0,3.12,2.17,6.09,6.11,8.36
					c8.49,4.9,22.31,4.9,30.8,0c3.94-2.28,6.11-5.24,6.11-8.36c0-3.12-2.17-6.09-6.11-8.36l0,0
					C322.41,649.39,316.83,648.17,311.25,648.17z"/>
				<path class="st6" d="M254.23,641.14c-5.91,0-11.82-1.3-16.32-3.9c-4.53-2.62-7.03-6.15-7.03-9.96c0-3.8,2.5-7.34,7.03-9.96
					c9-5.2,23.64-5.2,32.64,0c4.53,2.62,7.03,6.15,7.03,9.96c0,3.8-2.5,7.34-7.03,9.96C266.05,639.84,260.14,641.14,254.23,641.14z
					 M254.23,615.25c-5.58,0-11.15,1.23-15.4,3.68c-3.94,2.28-6.11,5.24-6.11,8.36c0,3.12,2.17,6.09,6.11,8.36
					c8.49,4.9,22.31,4.9,30.8,0c3.94-2.28,6.11-5.24,6.11-8.36c0-3.12-2.17-6.08-6.11-8.36l0,0
					C265.39,616.47,259.81,615.25,254.23,615.25z"/>
				<path class="st6" d="M197.21,608.22c-5.91,0-11.82-1.3-16.32-3.9c-4.53-2.62-7.03-6.15-7.03-9.96s2.5-7.34,7.03-9.96
					c9-5.2,23.64-5.2,32.65,0l0,0c4.53,2.62,7.03,6.15,7.03,9.96s-2.5,7.34-7.03,9.96C209.04,606.92,203.12,608.22,197.21,608.22z
					 M197.21,582.33c-5.58,0-11.16,1.23-15.4,3.68c-3.94,2.28-6.11,5.24-6.11,8.36c0,3.12,2.17,6.09,6.11,8.36
					c8.49,4.9,22.31,4.9,30.8,0c3.94-2.28,6.11-5.24,6.11-8.36c0-3.12-2.17-6.09-6.11-8.36
					C208.37,583.55,202.79,582.33,197.21,582.33z"/>
				<path class="st6" d="M213.08,586.13c-0.32,0-0.63-0.17-0.8-0.46c-0.25-0.44-0.1-1,0.34-1.26l37.3-21.53
					c0.44-0.25,1-0.1,1.26,0.34c0.25,0.44,0.1,1-0.34,1.26L213.54,586C213.39,586.09,213.23,586.13,213.08,586.13z"/>
				<path class="st6" d="M417.51,719.57c-0.16,0-0.32-0.04-0.46-0.13l-30.91-18.07c-0.44-0.26-0.59-0.82-0.33-1.26
					c0.26-0.44,0.82-0.59,1.26-0.33l30.91,18.07c0.44,0.26,0.59,0.82,0.33,1.26C418.14,719.41,417.83,719.57,417.51,719.57z"/>
			</g>
			<path class="st7" d="M691.38,462.63c-0.25,0-0.5-0.13-0.63-0.36c-0.21-0.35-0.09-0.8,0.26-1.01l264.62-156.83
				c1.82-1.08,2.9-2.98,2.91-5.09c0.01-2.11-1.07-4.02-2.88-5.1l-63.92-38.35c-0.35-0.21-0.46-0.66-0.25-1.01
				c0.21-0.35,0.67-0.46,1.01-0.25l63.92,38.35c2.26,1.36,3.6,3.74,3.6,6.37c-0.01,2.63-1.37,5.01-3.63,6.35L691.75,462.53
				C691.63,462.6,691.5,462.63,691.38,462.63z"/>
		</g>
		<path class="st8" d="M247.7,418.31c-0.23,0-0.46-0.06-0.68-0.19l-19.89-11.77c-1.3-0.77-2.06-2.13-2.04-3.64
			c0.02-1.51,0.82-2.84,2.13-3.58l145.12-80.93c4.74-2.64,7.68-7.65,7.68-13.07v-77.47c0-1.3,0.67-2.47,1.8-3.12
			c1.13-0.65,2.47-0.65,3.61,0l13.71,7.92c0.64,0.37,0.86,1.19,0.49,1.83c-0.37,0.64-1.18,0.86-1.83,0.49l-13.71-7.92
			c-0.41-0.24-0.79-0.08-0.93,0c-0.14,0.08-0.46,0.32-0.46,0.8v77.47c0,6.39-3.47,12.29-9.05,15.41l-145.12,80.93
			c-0.68,0.38-0.76,1.02-0.76,1.28c0,0.26,0.06,0.9,0.73,1.3l19.89,11.77c0.64,0.38,0.85,1.2,0.47,1.83
			C248.6,418.08,248.16,418.31,247.7,418.31z"/>
		<g>
			<g>
				<g>
					<g>
						
							<rect x="244.4" y="406.19" transform="matrix(-0.4974 0.8675 -0.8675 -0.4974 736.9557 409.2939)" class="st9" width="11.05" height="23.84"/>
						<path class="st9" d="M235.69,414.45c-0.01-2.49,1.73-5.52,3.89-6.78c2.15-1.25,3.9-0.25,3.91,2.24
							c0.01,2.49-1.73,5.52-3.89,6.78C237.44,417.94,235.69,416.94,235.69,414.45z"/>
					</g>
					<g>
						
							<rect x="263.92" y="412.57" transform="matrix(-0.4974 0.8675 -0.8675 -0.4974 782.7224 409.088)" class="st9" width="17.9" height="37.38"/>
						<path class="st10" d="M259.61,417.3l-7-4.01c-2.9,2.08-5.17,6.03-5.5,9.58l7,4.01C257.01,424.8,259.28,420.85,259.61,417.3z"
							/>
						<path class="st9" d="M250.33,425.64c-0.01-4.04,2.81-8.95,6.3-10.98c3.49-2.03,6.33-0.4,6.34,3.63
							c0.01,4.04-2.81,8.95-6.3,10.98C253.18,431.3,250.34,429.68,250.33,425.64z"/>
					</g>
				</g>
			</g>
			<path class="st11" d="M242.21,411.89c-1.01-0.58-1.02-1.53-0.01-2.12c1.01-0.59,2.65-0.59,3.66-0.01
				c1.01,0.58,1.02,1.53,0.01,2.12S243.22,412.47,242.21,411.89z"/>
		</g>
		<g>
			<g>
				<g>
					<g>
						
							<rect x="401.42" y="226.53" transform="matrix(-0.4974 0.8675 -0.8675 -0.4974 816.2299 4.0381)" class="st11" width="11.05" height="23.84"/>
						<path class="st11" d="M392.71,234.79c-0.01-2.49,1.73-5.52,3.89-6.78c2.15-1.25,3.9-0.25,3.91,2.24
							c0.01,2.49-1.73,5.52-3.89,6.78C394.47,238.28,392.72,237.28,392.71,234.79z"/>
					</g>
					<g>
						
							<rect x="420.94" y="232.91" transform="matrix(-0.4974 0.8675 -0.8675 -0.4974 861.9966 3.8356)" class="st11" width="17.9" height="37.38"/>
						<path class="st9" d="M416.63,237.64l-7-4.01c-2.9,2.08-5.17,6.03-5.5,9.58l7,4.01C414.03,245.14,416.3,241.19,416.63,237.64z"
							/>
						<path class="st11" d="M407.35,245.98c-0.01-4.04,2.81-8.95,6.3-10.98c3.49-2.03,6.33-0.4,6.34,3.63
							c0.01,4.04-2.81,8.95-6.3,10.98C410.2,251.64,407.37,250.01,407.35,245.98z"/>
					</g>
				</g>
			</g>
			<path class="st9" d="M399.23,232.23c-1.01-0.58-1.02-1.53-0.01-2.12c1.01-0.59,2.65-0.59,3.66-0.01
				c1.01,0.58,1.02,1.53,0.01,2.12C401.88,232.81,400.24,232.81,399.23,232.23z"/>
		</g>
		<path class="st8" d="M479.27,281.76c-0.46,0-0.91-0.24-1.16-0.67c-0.37-0.64-0.15-1.46,0.49-1.83l50.02-28.88
			c4.21-2.43,6.82-6.96,6.82-11.82v-75.44c0-1.49,0.77-2.82,2.06-3.56c1.29-0.74,2.82-0.74,4.11,0.01l80.84,46.85v-62.97
			c0-0.74,0.6-1.34,1.34-1.34s1.34,0.6,1.34,1.34v65.29c0,0.48-0.26,0.92-0.67,1.16c-0.41,0.24-0.92,0.24-1.34,0l-82.85-48.02
			c-0.64-0.37-1.22-0.12-1.43,0c-0.22,0.12-0.72,0.49-0.72,1.24v75.44c0,5.81-3.13,11.23-8.16,14.13l-50.02,28.88
			C479.73,281.7,479.49,281.76,479.27,281.76z"/>
		<path class="st8" d="M579.32,337.99c-0.46,0-0.91-0.24-1.16-0.67c-0.37-0.64-0.15-1.46,0.49-1.83l62.21-35.92
			c4.21-2.43,6.82-6.96,6.82-11.82V157.82c0-0.74,0.6-1.34,1.34-1.34c0.74,0,1.34,0.6,1.34,1.34v129.93
			c0,5.81-3.13,11.23-8.16,14.13l-62.21,35.92C579.78,337.93,579.55,337.99,579.32,337.99z"/>
		<path class="st8" d="M690.87,400.45c-0.5,0-0.98-0.26-1.25-0.72c-0.4-0.69-0.16-1.57,0.53-1.96l56.41-32.57
			c4.19-2.42,6.79-6.93,6.77-11.77l-0.18-60.65c-0.01-4.81-2.62-9.3-6.79-11.7l-72.81-41.93c-0.44-0.26-0.72-0.73-0.72-1.25v-65.71
			c0-0.79,0.64-1.44,1.44-1.44c0.79,0,1.44,0.64,1.44,1.44v64.87l72.09,41.51c5.06,2.91,8.21,8.35,8.23,14.19l0.18,60.65
			c0.02,5.87-3.13,11.34-8.21,14.27l-56.41,32.57C691.36,400.39,691.12,400.45,690.87,400.45z"/>
		<g>
			<g>
				<g>
					<rect x="668.75" y="168.19" class="st12" width="11.05" height="23.84"/>
					<path class="st12" d="M678.18,194.28c-2.16,1.25-5.65,1.25-7.81,0c-2.16-1.25-2.16-3.26,0-4.51c2.16-1.25,5.65-1.25,7.81,0
						C680.33,191.02,680.33,193.04,678.18,194.28z"/>
				</g>
				<g>
					<rect x="665.32" y="134.97" class="st12" width="17.9" height="37.38"/>
					<path class="st13" d="M668.75,172.11v8.07c3.24,1.48,7.8,1.48,11.05,0v-8.07C676.55,170.63,671.99,170.63,668.75,172.11z"/>
					<path class="st12" d="M680.6,176.01c-3.49,2.02-9.16,2.02-12.66,0c-3.49-2.02-3.49-5.29,0-7.31c3.49-2.02,9.16-2.02,12.66,0
						C684.09,170.72,684.09,173.99,680.6,176.01z"/>
				</g>
			</g>
		</g>
		<g>
			<g>
				<g>
					<rect x="643.5" y="153.82" class="st12" width="11.05" height="23.84"/>
					<path class="st12" d="M652.93,179.92c-2.16,1.25-5.65,1.25-7.81,0c-2.16-1.25-2.16-3.26,0-4.51c2.16-1.25,5.65-1.25,7.81,0
						C655.09,176.65,655.09,178.67,652.93,179.92z"/>
				</g>
				<g>
					<rect x="640.08" y="120.6" class="st12" width="17.9" height="37.38"/>
					<path class="st13" d="M643.5,157.75v8.07c3.24,1.48,7.8,1.48,11.05,0v-8.07C651.31,156.26,646.74,156.26,643.5,157.75z"/>
					<path class="st12" d="M655.35,161.64c-3.49,2.02-9.16,2.02-12.66,0c-3.49-2.02-3.5-5.29,0-7.31c3.49-2.02,9.16-2.02,12.66,0
						C658.85,156.35,658.85,159.62,655.35,161.64z"/>
				</g>
			</g>
		</g>
		<g>
			<g>
				<g>
					<rect x="618.26" y="139.46" class="st12" width="11.05" height="23.84"/>
					<path class="st12" d="M627.68,165.55c-2.16,1.25-5.65,1.25-7.81,0c-2.16-1.25-2.16-3.26,0-4.51c2.16-1.25,5.65-1.25,7.81,0
						C629.84,162.28,629.84,164.3,627.68,165.55z"/>
				</g>
				<g>
					<rect x="614.83" y="106.24" class="st12" width="17.9" height="37.38"/>
					<path class="st13" d="M618.26,143.38v8.07c3.24,1.48,7.8,1.48,11.05,0v-8.07C626.06,141.9,621.5,141.9,618.26,143.38z"/>
					<ellipse class="st12" cx="623.78" cy="143.62" rx="8.95" ry="5.17"/>
				</g>
			</g>
		</g>
		<g>
			<g>
				<polygon class="st11" points="742.36,201.26 766.36,187.13 743.51,158.6 737.5,168.42 				"/>
				<path class="st11" d="M568.11,44.7l38.3-22.04c0,0-1.44,21.99-1.44,22.04c0,0.05-22,6.82-22,6.82L568.11,44.7z"/>
				<path class="st11" d="M749.03,129.53c-2.92-1.68-5.7-2.67-8.29-3.07c-3.86-20.3-17.98-41.85-34.82-51.57
					c-5.06-2.92-9.88-4.49-14.25-4.82c-2.3-24.6-19.4-52.56-40.17-64.55c-10.85-6.26-20.69-7.01-27.96-3.17l0-0.02l-0.35,0.2
					c-0.19,0.1-0.37,0.21-0.55,0.32l-22.59,13.34l7.5,5.93c-6.74,2.94-10.99,10.5-10.99,21.67c0,20.6,14.46,45.64,32.3,55.94
					l120.17,85.81c13.39,7.73,24.25,1.46,24.25-14C773.29,156.07,762.43,137.26,749.03,129.53z"/>
				<path class="st10" d="M597.68,34.71l51.84-30.29c-10.06-5.25-19.16-5.68-25.97-2.08l0-0.02l-0.35,0.2
					c-0.19,0.1-0.37,0.21-0.55,0.32l-22.59,13.34l7.5,5.93C602.85,24.17,599.36,28.49,597.68,34.71z"/>
				<path class="st10" d="M693.41,123.82l37.82-22.2c-6.49-11.22-15.42-21.02-25.31-26.73c-1.31-0.76-2.6-1.42-3.87-1.99
					l-48.11,28.13L693.41,123.82z"/>
				<path class="st14" d="M610.71,18.66l16.86,9.73l30.87-18.18c-2.25-1.75-4.57-3.33-6.94-4.7c-3.74-2.16-7.35-3.65-10.79-4.53
					L610.71,18.66z"/>
				<path class="st14" d="M727.06,95.09l-30.19,17.79l10.5,11.71l27.4-16.18C732.61,103.76,730.01,99.28,727.06,95.09z"/>
				<path class="st9" d="M725.32,143.5c-2.92-1.68-5.7-2.67-8.29-3.07c-3.86-20.3-17.98-41.85-34.82-51.57
					c-5.06-2.92-9.88-4.49-14.25-4.82c-2.3-24.6-19.4-52.56-40.17-64.55c-22.34-12.9-40.45-2.44-40.45,23.35
					c0,0.87,0.02,1.76,0.07,2.64c-16.33-7.58-29.1,0.96-29.1,20.31c0,20.6,14.46,45.64,32.3,55.94l134.71,77.78
					c13.39,7.73,24.25,1.46,24.25-14C749.57,170.04,738.72,151.23,725.32,143.5z"/>
				<g>
					<path class="st6" d="M587.41,45.48c-0.04-0.89-0.07-1.77-0.07-2.64c0-0.04,0-0.07,0-0.11c-9.02-3.51-16.78-1.98-21.65,3.65
						C570.98,42.02,578.67,41.43,587.41,45.48z"/>
					<path class="st6" d="M727.29,141.57c-2.92-1.68-5.7-2.67-8.29-3.07c-3.86-20.3-17.98-41.85-34.82-51.57
						c-5.06-2.92-9.88-4.49-14.25-4.82c-2.3-24.6-19.4-52.56-40.17-64.55c-13.92-8.03-26.19-7-33.47,1.15
						c7.41-6.34,18.76-6.58,31.49,0.77c20.77,11.99,37.88,39.95,40.17,64.55c4.37,0.34,9.19,1.9,14.25,4.82
						c16.84,9.72,30.96,31.27,34.82,51.57c2.59,0.41,5.37,1.39,8.29,3.07c13.39,7.73,24.25,26.54,24.25,42.01
						c0,5.58-1.43,9.94-3.87,12.9c3.63-2.8,5.84-7.87,5.84-14.82C751.55,168.11,740.69,149.31,727.29,141.57z"/>
				</g>
				<g>
					<path class="st10" d="M584.56,51.62l10.13,4.7l-0.52-11.15c-0.04-0.78-0.06-1.56-0.06-2.33c0-9.95,3.01-17.17,8.46-20.32
						c5.46-3.15,13.21-2.14,21.83,2.83c18.54,10.7,34.71,36.76,36.82,59.32l0.53,5.68l5.69,0.44c3.5,0.27,7.33,1.59,11.38,3.94
						c14.72,8.5,28,28.26,31.56,46.97l0.89,4.68l4.71,0.74c1.88,0.29,3.88,1.05,5.95,2.25c11.31,6.53,20.87,23.08,20.87,36.14
						c0,4.89-1.36,8.47-3.72,9.84c-2.36,1.36-6.14,0.74-10.38-1.7l-134.72-77.78c-15.67-9.05-28.91-31.98-28.91-50.08
						c0-7.1,2.09-12.51,5.75-14.84c1.5-0.96,3.32-1.44,5.37-1.44C578.69,49.51,581.53,50.21,584.56,51.62z"/>
				</g>
			</g>
			<g>
				<polygon class="st12" points="651.79,136.05 655.35,134.27 651.85,131.62 				"/>
				<polygon class="st12" points="641.12,88.05 644.57,86.3 644.63,88.11 				"/>
				<polygon class="st12" points="661.93,124.83 665.53,123.02 658.6,116.43 				"/>
				<g>
					<path class="st12" d="M654.31,134.15l-16.83-9.91c-0.85-0.5-1.54-1.77-1.54-2.83l0.06-19.48l19.92,11.73l-0.06,19.48
						C655.86,134.21,655.16,134.66,654.31,134.15z"/>
					<path class="st12" d="M644.53,86.32l-18.17,11.69c-0.77,0.5-0.15,2.35,1.02,3.04l18.56,10.93l18.56,10.93
						c1.17,0.69,1.8-0.42,1.04-1.82l-18.04-33.02C646.72,86.64,645.32,85.82,644.53,86.32z"/>
				</g>
				<g>
					<path class="st9" d="M650.7,135.97l-16.82-9.91c-0.85-0.5-1.54-1.77-1.54-2.83l0.06-19.48l19.92,11.73l-0.06,19.48
						C652.25,136.02,651.55,136.47,650.7,135.97z"/>
					<path class="st9" d="M640.93,88.14l-18.17,11.69c-0.77,0.5-0.15,2.35,1.02,3.04l18.56,10.93l18.56,10.93
						c1.17,0.69,1.8-0.42,1.04-1.82l-18.05-33.02C643.11,88.46,641.71,87.63,640.93,88.14z"/>
				</g>
			</g>
		</g>
		<path class="st9" d="M622.22,161.16c0,1.17-0.82,1.64-1.83,1.06c-1.01-0.58-1.83-2.01-1.83-3.17c0-1.17,0.82-1.64,1.83-1.06
			C621.4,158.57,622.22,159.99,622.22,161.16z"/>
		<g>
			<path class="st15" d="M473.39,433.15l50.51-29.16c3.1-1.79,2.71-4.92-0.87-6.98l-48.77-28.16c-3.58-2.07-8.99-2.29-12.09-0.5
				l-50.51,29.16c-3.1,1.79-2.71,4.92,0.87,6.98l48.77,28.16C464.88,434.71,470.29,434.94,473.39,433.15z"/>
			<g>
				<path class="st10" d="M394.9,364.29L394.9,364.29v-21.82l48.94-0.03l16.92-9.77c3.88-2.24,10.66-1.96,15.15,0.63l15.78,9.11
					l48.98-0.03v22.45c0.11,1.52-0.74,2.98-2.6,4.06l-63.25,36.52c-3.88,2.24-10.66,1.96-15.15-0.63l-61.07-35.26
					C396,368.02,394.75,366.09,394.9,364.29z"/>
				<path class="st10" d="M467.78,331.17c2.84,0.07,5.79,0.78,8.12,2.13l15.78,9.11l48.98-0.03v22.45c0.11,1.52-0.74,2.98-2.6,4.06
					l-63.25,36.52c-1.87,1.08-4.4,1.57-7.03,1.5V331.17z"/>
				<path class="st16" d="M535.12,342.39l5.54,0v22.45c0.11,1.52-0.74,2.98-2.6,4.06l-2.94,1.7V342.39z"/>
				<path class="st16" d="M473.83,405.88c-3.35,1.43-8.19,1.35-12.11-0.14v-25.49h12.11V405.88z"/>
				<path class="st9" d="M474.81,383.04l63.25-36.52c3.88-2.24,3.4-6.16-1.09-8.74l-61.08-35.26c-4.48-2.59-11.26-2.87-15.15-0.63
					l-63.25,36.52c-3.88,2.24-3.4,6.16,1.09,8.74l61.07,35.26C464.14,385,470.93,385.28,474.81,383.04z"/>
				<path class="st12" d="M473.67,376.47l53.01-30.6c3.25-1.88,2.85-5.16-0.91-7.33l-51.18-29.55c-3.76-2.17-9.44-2.4-12.69-0.53
					l-53.01,30.6c-3.25,1.88-2.85,5.16,0.91,7.33l51.18,29.55C464.73,378.11,470.42,378.35,473.67,376.47z"/>
				<g>
					<path class="st9" d="M418.16,370.05c0,1.63,1.14,3.61,2.55,4.42s2.55,0.15,2.55-1.47c0-1.63-1.14-3.61-2.55-4.42
						S418.16,368.42,418.16,370.05z"/>
					<path class="st9" d="M409.94,365.31c0,1.63,1.14,3.61,2.55,4.42c1.41,0.81,2.55,0.15,2.55-1.47c0-1.63-1.14-3.61-2.55-4.42
						C411.09,363.02,409.94,363.68,409.94,365.31z"/>
					<path class="st9" d="M401.72,360.56c0,1.63,1.14,3.61,2.55,4.42c1.41,0.81,2.55,0.15,2.55-1.47c0-1.63-1.14-3.61-2.55-4.42
						C402.87,358.27,401.72,358.93,401.72,360.56z"/>
				</g>
			</g>
			<g>
				<path class="st17" d="M394.9,329.41L394.9,329.41v-21.82l48.94-0.03l16.92-9.77c3.88-2.24,10.66-1.96,15.15,0.63l15.78,9.11
					l48.98-0.03v22.45c0.11,1.52-0.74,2.98-2.6,4.06l-63.25,36.52c-3.88,2.24-10.66,1.96-15.15-0.63l-61.07-35.26
					C396,333.15,394.75,331.21,394.9,329.41z"/>
				<path class="st17" d="M467.78,296.29c2.84,0.07,5.79,0.78,8.12,2.13l15.78,9.11l48.98-0.03v22.45c0.11,1.52-0.74,2.98-2.6,4.06
					l-63.25,36.52c-1.87,1.08-4.4,1.57-7.03,1.5V296.29z"/>
				<path class="st18" d="M535.12,307.51l5.54,0v22.45c0.11,1.52-0.74,2.98-2.6,4.06l-2.94,1.7V307.51z"/>
				<path class="st18" d="M473.83,371.01c-3.35,1.43-8.19,1.35-12.11-0.14v-25.49h12.11V371.01z"/>
				<path class="st19" d="M474.81,348.17l63.25-36.52c3.88-2.24,3.4-6.16-1.09-8.74l-61.08-35.26c-4.48-2.59-11.26-2.87-15.15-0.63
					l-63.25,36.52c-3.88,2.24-3.4,6.16,1.09,8.74l61.07,35.26C464.14,350.13,470.93,350.41,474.81,348.17z"/>
				<path class="st20" d="M473.67,341.59l53.01-30.6c3.25-1.88,2.85-5.16-0.91-7.33l-51.18-29.55c-3.76-2.17-9.44-2.4-12.69-0.53
					l-53.01,30.6c-3.25,1.88-2.85,5.16,0.91,7.33l51.18,29.55C464.73,343.24,470.42,343.47,473.67,341.59z"/>
				<g>
					<path class="st9" d="M418.16,335.17c0,1.63,1.14,3.61,2.55,4.42s2.55,0.15,2.55-1.47s-1.14-3.61-2.55-4.42
						C419.31,332.88,418.16,333.54,418.16,335.17z"/>
					<path class="st12" d="M409.94,330.43c0,1.63,1.14,3.61,2.55,4.42c1.41,0.81,2.55,0.15,2.55-1.47c0-1.63-1.14-3.61-2.55-4.42
						C411.09,328.14,409.94,328.8,409.94,330.43z"/>
					<path class="st12" d="M401.72,325.68c0,1.63,1.14,3.61,2.55,4.42c1.41,0.81,2.55,0.15,2.55-1.47c0-1.63-1.14-3.61-2.55-4.42
						C402.87,323.39,401.72,324.05,401.72,325.68z"/>
				</g>
			</g>
			<g>
				<path class="st10" d="M394.9,294.54L394.9,294.54v-21.82l48.94-0.03l16.92-9.77c3.88-2.24,10.66-1.96,15.15,0.63l15.78,9.11
					l48.98-0.03v22.45c0.11,1.52-0.74,2.98-2.6,4.06l-63.25,36.52c-3.88,2.24-10.66,1.96-15.15-0.63l-61.07-35.26
					C396,298.27,394.75,296.34,394.9,294.54z"/>
				<path class="st10" d="M467.78,261.42c2.84,0.07,5.79,0.78,8.12,2.13l15.78,9.11l48.98-0.03v22.45c0.11,1.52-0.74,2.98-2.6,4.06
					l-63.25,36.52c-1.87,1.08-4.4,1.57-7.03,1.5V261.42z"/>
				<path class="st16" d="M535.12,272.63l5.54,0v22.45c0.11,1.52-0.74,2.98-2.6,4.06l-2.94,1.7V272.63z"/>
				<path class="st16" d="M473.83,336.13c-3.35,1.43-8.19,1.35-12.11-0.14v-25.49h12.11V336.13z"/>
				<path class="st9" d="M474.81,313.29l63.25-36.52c3.88-2.24,3.4-6.16-1.09-8.74l-61.08-35.26c-4.48-2.59-11.26-2.87-15.15-0.63
					l-63.25,36.52c-3.88,2.24-3.4,6.16,1.09,8.74l61.07,35.26C464.14,315.25,470.93,315.53,474.81,313.29z"/>
				<path class="st6" d="M398.59,273.1l61.08,35.26c4.48,2.59,11.26,2.87,15.15,0.63l63.25-36.52c0.87-0.5,1.5-1.09,1.94-1.72
					c1.33,2.15,0.73,4.47-1.94,6.01l-63.25,36.52c-3.88,2.24-10.66,1.96-15.15-0.63l-61.08-35.26c-3.48-2.01-4.54-4.82-3.02-7.03
					C396.17,271.35,397.18,272.29,398.59,273.1z"/>
				<g>
					<path class="st12" d="M418.16,300.3c0,1.63,1.14,3.61,2.55,4.42c1.41,0.81,2.55,0.15,2.55-1.47c0-1.63-1.14-3.61-2.55-4.42
						S418.16,298.67,418.16,300.3z"/>
					<path class="st9" d="M409.94,295.55c0,1.63,1.14,3.61,2.55,4.42c1.41,0.81,2.55,0.15,2.55-1.47c0-1.63-1.14-3.61-2.55-4.42
						C411.09,293.26,409.94,293.92,409.94,295.55z"/>
					<path class="st9" d="M401.72,290.81c0,1.63,1.14,3.61,2.55,4.42c1.41,0.81,2.55,0.15,2.55-1.47s-1.14-3.61-2.55-4.42
						C402.87,288.52,401.72,289.18,401.72,290.81z"/>
				</g>
				<g>
					<path class="st12" d="M471.07,290.65l29.6-17.09c1.82-1.05,1.59-2.88-0.51-4.09l-28.58-16.5c-2.1-1.21-5.27-1.34-7.09-0.29
						l-29.6,17.09c-1.82,1.05-1.59,2.88,0.51,4.09l28.58,16.5C466.08,291.57,469.25,291.7,471.07,290.65z"/>
					<path class="st9" d="M468.23,276.34l4.1-2.36c0.25-0.15,0.22-0.4-0.07-0.57l-3.95-2.28c-0.29-0.17-0.73-0.19-0.98-0.04
						l-4.1,2.36c-0.25,0.15-0.22,0.4,0.07,0.57l3.95,2.28C467.54,276.47,467.98,276.48,468.23,276.34z"/>
					<path class="st13" d="M500.67,273.56l-0.08,0.05c-0.14-0.1-0.27-0.2-0.43-0.29l-28.58-16.5c-2.1-1.21-5.27-1.34-7.09-0.29
						l-29.52,17.04c-1.67-1.2-1.76-2.83-0.08-3.8l29.6-17.09c1.82-1.05,4.99-0.92,7.09,0.29l28.58,16.5
						C502.25,270.68,502.48,272.51,500.67,273.56z"/>
				</g>
			</g>
		</g>
		<g>
			<path class="st15" d="M584.93,495.9l50.51-29.16c3.1-1.79,2.71-4.92-0.87-6.98L585.8,431.6c-3.58-2.07-8.99-2.29-12.09-0.5
				l-50.51,29.16c-3.1,1.79-2.71,4.92,0.87,6.98l48.77,28.16C576.42,497.47,581.83,497.69,584.93,495.9z"/>
			<g>
				<path class="st17" d="M506.44,427.05L506.44,427.05v-21.82l48.94-0.03l16.92-9.77c3.88-2.24,10.66-1.96,15.15,0.63l15.78,9.11
					l48.98-0.03v22.45c0.11,1.52-0.74,2.98-2.6,4.06l-63.25,36.52c-3.88,2.24-10.66,1.96-15.15-0.63l-61.08-35.26
					C507.54,430.78,506.3,428.85,506.44,427.05z"/>
				<path class="st17" d="M579.32,393.93c2.84,0.07,5.79,0.78,8.12,2.13l15.78,9.11l48.98-0.03v22.45c0.11,1.52-0.74,2.98-2.6,4.06
					l-63.25,36.52c-1.87,1.08-4.4,1.57-7.03,1.5V393.93z"/>
				<path class="st18" d="M646.66,405.14l5.54,0v22.45c0.11,1.52-0.74,2.98-2.6,4.06l-2.94,1.7V405.14z"/>
				<path class="st18" d="M585.38,468.64c-3.35,1.43-8.19,1.35-12.11-0.14v-25.49h12.11V468.64z"/>
				<path class="st11" d="M586.35,445.8l63.25-36.52c3.88-2.24,3.4-6.16-1.09-8.74l-61.08-35.26c-4.48-2.59-11.26-2.87-15.15-0.63
					l-63.25,36.52c-3.88,2.24-3.4,6.16,1.09,8.74l61.08,35.26C575.69,447.76,582.47,448.04,586.35,445.8z"/>
				<path class="st19" d="M585.21,439.22l53.01-30.6c3.25-1.88,2.85-5.16-0.91-7.33l-51.18-29.55c-3.76-2.17-9.44-2.4-12.69-0.53
					l-53.01,30.6c-3.25,1.88-2.85,5.16,0.91,7.33l51.18,29.55C576.28,440.87,581.96,441.1,585.21,439.22z"/>
				<g>
					<path class="st21" d="M529.71,432.81c0,1.63,1.14,3.61,2.55,4.42c1.41,0.81,2.55,0.15,2.55-1.48c0-1.63-1.14-3.61-2.55-4.42
						C530.85,430.52,529.71,431.18,529.71,432.81z"/>
					<path class="st21" d="M521.49,428.06c0,1.63,1.14,3.61,2.55,4.42c1.41,0.81,2.55,0.15,2.55-1.47s-1.14-3.61-2.55-4.42
						C522.63,425.77,521.49,426.43,521.49,428.06z"/>
					<path class="st21" d="M513.27,423.31c0,1.63,1.14,3.61,2.55,4.42c1.41,0.81,2.55,0.15,2.55-1.47c0-1.63-1.14-3.61-2.55-4.42
						C514.41,421.02,513.27,421.68,513.27,423.31z"/>
				</g>
			</g>
			<g>
				<path class="st11" d="M506.44,392.17L506.44,392.17v-21.82l48.94-0.03l16.92-9.77c3.88-2.24,10.66-1.96,15.15,0.63l15.78,9.11
					l48.98-0.03v22.45c0.11,1.52-0.74,2.98-2.6,4.06l-63.25,36.52c-3.88,2.24-10.66,1.96-15.15-0.63l-61.08-35.26
					C507.54,395.9,506.3,393.97,506.44,392.17z"/>
				<path class="st11" d="M579.32,359.05c2.84,0.07,5.79,0.78,8.12,2.13l15.78,9.11l48.98-0.03v22.45c0.11,1.52-0.74,2.98-2.6,4.06
					l-63.25,36.52c-1.87,1.08-4.4,1.57-7.03,1.5V359.05z"/>
				<path class="st22" d="M646.66,370.27l5.54,0v22.45c0.11,1.52-0.74,2.98-2.6,4.06l-2.94,1.7V370.27z"/>
				<path class="st22" d="M585.38,433.76c-3.35,1.43-8.19,1.35-12.11-0.14v-25.49h12.11V433.76z"/>
				<path class="st9" d="M586.35,410.92l63.25-36.52c3.88-2.24,3.4-6.16-1.09-8.74l-61.08-35.26c-4.48-2.59-11.26-2.87-15.15-0.63
					l-63.25,36.52c-3.88,2.24-3.4,6.16,1.09,8.74l61.08,35.26C575.69,412.88,582.47,413.16,586.35,410.92z"/>
				<path class="st10" d="M585.21,404.35l53.01-30.6c3.25-1.88,2.85-5.16-0.91-7.33l-51.18-29.55c-3.76-2.17-9.44-2.4-12.69-0.53
					l-53.01,30.6c-3.25,1.88-2.85,5.16,0.91,7.33l51.18,29.55C576.28,405.99,581.96,406.23,585.21,404.35z"/>
				<g>
					<path class="st9" d="M529.71,397.93c0,1.63,1.14,3.61,2.55,4.42c1.41,0.81,2.55,0.15,2.55-1.47c0-1.63-1.14-3.61-2.55-4.42
						C530.85,395.64,529.71,396.3,529.71,397.93z"/>
					<path class="st9" d="M521.49,393.18c0,1.63,1.14,3.61,2.55,4.42c1.41,0.81,2.55,0.15,2.55-1.47c0-1.63-1.14-3.61-2.55-4.42
						C522.63,390.89,521.49,391.55,521.49,393.18z"/>
					<path class="st12" d="M513.27,388.44c0,1.63,1.14,3.61,2.55,4.42c1.41,0.81,2.55,0.15,2.55-1.47c0-1.63-1.14-3.61-2.55-4.42
						C514.41,386.15,513.27,386.81,513.27,388.44z"/>
				</g>
			</g>
			<g>
				<path class="st10" d="M506.44,357.29L506.44,357.29v-21.82l48.94-0.03l16.92-9.77c3.88-2.24,10.66-1.96,15.15,0.63l15.78,9.11
					l48.98-0.03v22.45c0.11,1.52-0.74,2.98-2.6,4.06l-63.25,36.52c-3.88,2.24-10.66,1.96-15.15-0.63l-61.08-35.26
					C507.54,361.03,506.3,359.09,506.44,357.29z"/>
				<path class="st10" d="M579.32,324.17c2.84,0.07,5.79,0.78,8.12,2.13l15.78,9.11l48.98-0.03v22.45c0.11,1.52-0.74,2.98-2.6,4.06
					l-63.25,36.52c-1.87,1.08-4.4,1.57-7.03,1.5V324.17z"/>
				<path class="st16" d="M646.66,335.39l5.54,0v22.45c0.11,1.52-0.74,2.98-2.6,4.06l-2.94,1.7V335.39z"/>
				<path class="st16" d="M585.38,398.88c-3.35,1.43-8.19,1.35-12.11-0.14v-25.48h12.11V398.88z"/>
				<path class="st9" d="M586.35,376.04l63.25-36.52c3.88-2.24,3.4-6.16-1.09-8.74l-61.08-35.26c-4.48-2.59-11.26-2.87-15.15-0.63
					l-63.25,36.52c-3.88,2.24-3.4,6.16,1.09,8.74l61.08,35.26C575.69,378,582.47,378.28,586.35,376.04z"/>
				<path class="st6" d="M510.13,335.86l61.08,35.26c4.48,2.59,11.26,2.87,15.15,0.63l63.25-36.52c0.87-0.5,1.5-1.09,1.94-1.72
					c1.33,2.15,0.73,4.47-1.94,6.01l-63.25,36.52c-3.88,2.24-10.66,1.96-15.15-0.63l-61.08-35.26c-3.48-2.01-4.54-4.82-3.02-7.03
					C507.71,334.11,508.73,335.05,510.13,335.86z"/>
				<g>
					<path class="st12" d="M529.71,363.05c0,1.63,1.14,3.61,2.55,4.42c1.41,0.81,2.55,0.15,2.55-1.47c0-1.63-1.14-3.61-2.55-4.42
						C530.85,360.76,529.71,361.42,529.71,363.05z"/>
					<path class="st12" d="M521.49,358.31c0,1.63,1.14,3.61,2.55,4.42c1.41,0.81,2.55,0.15,2.55-1.47s-1.14-3.61-2.55-4.42
						C522.63,356.02,521.49,356.68,521.49,358.31z"/>
					<path class="st9" d="M513.27,353.56c0,1.63,1.14,3.61,2.55,4.42c1.41,0.81,2.55,0.15,2.55-1.47c0-1.63-1.14-3.61-2.55-4.42
						C514.41,351.27,513.27,351.93,513.27,353.56z"/>
				</g>
				<g>
					<path class="st12" d="M582.61,353.4l29.6-17.09c1.82-1.05,1.59-2.88-0.51-4.09l-28.58-16.5c-2.1-1.21-5.27-1.34-7.09-0.29
						l-29.6,17.09c-1.82,1.05-1.59,2.88,0.51,4.09l28.58,16.5C577.62,354.32,580.79,354.45,582.61,353.4z"/>
					<path class="st9" d="M579.78,339.09l4.1-2.36c0.25-0.15,0.22-0.4-0.07-0.57l-3.95-2.28c-0.29-0.17-0.73-0.19-0.98-0.04
						l-4.1,2.36c-0.25,0.15-0.22,0.4,0.07,0.57l3.95,2.28C579.09,339.22,579.52,339.24,579.78,339.09z"/>
					<path class="st13" d="M612.21,336.31l-0.08,0.05c-0.14-0.1-0.27-0.2-0.43-0.29l-28.58-16.5c-2.1-1.21-5.27-1.34-7.09-0.29
						l-29.52,17.04c-1.67-1.2-1.76-2.83-0.08-3.8l29.6-17.09c1.82-1.05,4.99-0.92,7.09,0.29l28.58,16.5
						C613.8,333.43,614.03,335.26,612.21,336.31z"/>
				</g>
			</g>
			<g>
				<path class="st9" d="M591.97,416.12c0,1.17,0.82,1.64,1.83,1.06c1.01-0.58,1.83-2.01,1.83-3.17c0-1.17-0.82-1.64-1.83-1.06
					C592.79,413.53,591.97,414.95,591.97,416.12z"/>
				<path class="st9" d="M597.66,412.86c0,1.17,0.82,1.64,1.83,1.06c1.01-0.58,1.83-2.01,1.83-3.17c0-1.17-0.82-1.64-1.83-1.06
					C598.48,410.27,597.66,411.69,597.66,412.86z"/>
				<path class="st9" d="M591.97,422.98c0,1.17,0.82,1.64,1.83,1.06c1.01-0.58,1.83-2.01,1.83-3.17c0-1.17-0.82-1.64-1.83-1.06
					C592.79,420.39,591.97,421.81,591.97,422.98z"/>
				<path class="st12" d="M597.66,419.72c0,1.17,0.82,1.64,1.83,1.06c1.01-0.58,1.83-2,1.83-3.17c0-1.17-0.82-1.64-1.83-1.06
					C598.48,417.13,597.66,418.55,597.66,419.72z"/>
			</g>
		</g>
		<g>
			<path class="st15" d="M696.48,558.66l50.51-29.16c3.1-1.79,2.71-4.92-0.87-6.98l-48.77-28.16c-3.58-2.07-8.99-2.29-12.09-0.5
				l-50.51,29.16c-3.1,1.79-2.71,4.92,0.87,6.98l48.77,28.16C687.96,560.22,693.38,560.45,696.48,558.66z"/>
			<g>
				<path class="st11" d="M617.98,489.8L617.98,489.8v-21.82l48.94-0.03l16.92-9.77c3.88-2.24,10.66-1.96,15.15,0.63l15.78,9.11
					l48.98-0.03v22.45c0.11,1.52-0.74,2.98-2.6,4.06l-63.25,36.52c-3.88,2.24-10.66,1.96-15.15-0.63l-61.08-35.26
					C619.09,493.53,617.84,491.6,617.98,489.8z"/>
				<path class="st11" d="M690.86,456.68c2.84,0.07,5.79,0.78,8.12,2.13l15.78,9.11l48.98-0.03v22.45c0.11,1.52-0.74,2.98-2.6,4.06
					l-63.25,36.52c-1.87,1.08-4.4,1.57-7.03,1.5V456.68z"/>
				<path class="st22" d="M758.2,467.9l5.54,0v22.45c0.11,1.52-0.74,2.98-2.6,4.06l-2.94,1.7V467.9z"/>
				<path class="st22" d="M696.92,531.39c-3.35,1.43-8.19,1.35-12.11-0.14v-25.48h12.11V531.39z"/>
				<path class="st9" d="M697.89,508.55l63.25-36.52c3.88-2.24,3.4-6.16-1.09-8.74l-61.08-35.26c-4.48-2.59-11.26-2.87-15.15-0.63
					l-63.25,36.52c-3.88,2.24-3.4,6.16,1.09,8.74l61.08,35.26C687.23,510.51,694.01,510.79,697.89,508.55z"/>
				<path class="st12" d="M696.75,501.98l53.01-30.6c3.25-1.88,2.85-5.16-0.91-7.33l-51.18-29.55c-3.76-2.17-9.44-2.4-12.69-0.53
					l-53.01,30.6c-3.25,1.88-2.85,5.16,0.91,7.33l51.18,29.55C687.82,503.62,693.5,503.86,696.75,501.98z"/>
				<g>
					<path class="st9" d="M641.25,495.56c0,1.63,1.14,3.61,2.55,4.42c1.41,0.81,2.55,0.15,2.55-1.47s-1.14-3.61-2.55-4.42
						C642.39,493.27,641.25,493.93,641.25,495.56z"/>
					<path class="st12" d="M633.03,490.81c0,1.63,1.14,3.61,2.55,4.42c1.41,0.81,2.55,0.15,2.55-1.47c0-1.63-1.14-3.61-2.55-4.42
						C634.17,488.52,633.03,489.18,633.03,490.81z"/>
					<path class="st9" d="M624.81,486.07c0,1.63,1.14,3.61,2.55,4.42c1.41,0.81,2.55,0.15,2.55-1.47c0-1.63-1.14-3.61-2.55-4.42
						C625.95,483.78,624.81,484.44,624.81,486.07z"/>
				</g>
			</g>
			<g>
				<path class="st11" d="M617.98,454.92L617.98,454.92V433.1l48.94-0.03l16.92-9.77c3.88-2.24,10.66-1.96,15.15,0.63l15.78,9.11
					l48.98-0.03v22.45c0.11,1.52-0.74,2.98-2.6,4.06l-63.25,36.52c-3.88,2.24-10.66,1.96-15.15-0.63l-61.08-35.26
					C619.09,458.66,617.84,456.72,617.98,454.92z"/>
				<path class="st11" d="M690.86,421.8c2.84,0.07,5.79,0.78,8.12,2.13l15.78,9.11l48.98-0.03v22.45c0.11,1.52-0.74,2.98-2.6,4.06
					l-63.25,36.52c-1.87,1.08-4.4,1.57-7.03,1.5V421.8z"/>
				<path class="st22" d="M758.2,433.02l5.54,0v22.45c0.11,1.52-0.74,2.98-2.6,4.06l-2.94,1.7V433.02z"/>
				<path class="st22" d="M696.92,496.52c-3.35,1.43-8.19,1.35-12.11-0.14v-25.49h12.11V496.52z"/>
				<path class="st9" d="M697.89,473.67l63.25-36.52c3.88-2.24,3.4-6.16-1.09-8.74l-61.08-35.26c-4.48-2.59-11.26-2.87-15.15-0.63
					l-63.25,36.52c-3.88,2.24-3.4,6.16,1.09,8.74l61.08,35.26C687.23,475.63,694.01,475.92,697.89,473.67z"/>
				<path class="st12" d="M696.75,467.1l53.01-30.6c3.25-1.88,2.85-5.16-0.91-7.33l-51.18-29.55c-3.76-2.17-9.44-2.4-12.69-0.53
					l-53.01,30.6c-3.25,1.88-2.85,5.16,0.91,7.33l51.18,29.55C687.82,468.74,693.5,468.98,696.75,467.1z"/>
				<g>
					<path class="st12" d="M641.25,460.68c0,1.63,1.14,3.61,2.55,4.42c1.41,0.81,2.55,0.15,2.55-1.47c0-1.63-1.14-3.61-2.55-4.42
						C642.39,458.39,641.25,459.05,641.25,460.68z"/>
					<path class="st12" d="M633.03,455.94c0,1.63,1.14,3.61,2.55,4.42c1.41,0.81,2.55,0.15,2.55-1.47c0-1.63-1.14-3.61-2.55-4.42
						C634.17,453.65,633.03,454.31,633.03,455.94z"/>
					<path class="st9" d="M624.81,451.19c0,1.63,1.14,3.61,2.55,4.42c1.41,0.81,2.55,0.15,2.55-1.47s-1.14-3.61-2.55-4.42
						C625.95,448.9,624.81,449.56,624.81,451.19z"/>
				</g>
			</g>
			<g>
				<path class="st10" d="M617.98,420.05L617.98,420.05v-21.82l48.94-0.03l16.92-9.77c3.88-2.24,10.66-1.96,15.15,0.63l15.78,9.11
					l48.98-0.03v22.45c0.11,1.52-0.74,2.98-2.6,4.06l-63.25,36.52c-3.88,2.24-10.66,1.96-15.15-0.63l-61.08-35.26
					C619.09,423.78,617.84,421.85,617.98,420.05z"/>
				<path class="st10" d="M690.86,386.93c2.84,0.07,5.79,0.78,8.12,2.13l15.78,9.11l48.98-0.03v22.45c0.11,1.52-0.74,2.98-2.6,4.06
					l-63.25,36.52c-1.87,1.08-4.4,1.57-7.03,1.5V386.93z"/>
				<path class="st16" d="M758.2,398.14l5.54,0v22.45c0.11,1.52-0.74,2.98-2.6,4.06l-2.94,1.7V398.14z"/>
				<path class="st16" d="M696.92,461.64c-3.35,1.43-8.19,1.35-12.11-0.14v-25.49h12.11V461.64z"/>
				<path class="st9" d="M697.89,438.8l63.25-36.52c3.88-2.24,3.4-6.16-1.09-8.74l-61.08-35.26c-4.48-2.59-11.26-2.87-15.15-0.63
					l-63.25,36.52c-3.88,2.24-3.4,6.16,1.09,8.74l61.08,35.26C687.23,440.76,694.01,441.04,697.89,438.8z"/>
				<path class="st6" d="M621.67,398.61l61.08,35.26c4.48,2.59,11.26,2.87,15.15,0.63l63.25-36.52c0.87-0.5,1.5-1.09,1.94-1.72
					c1.33,2.15,0.73,4.47-1.94,6.01l-63.25,36.52c-3.88,2.24-10.66,1.96-15.15-0.63l-61.08-35.26c-3.48-2.01-4.54-4.82-3.02-7.03
					C619.26,396.86,620.27,397.8,621.67,398.61z"/>
				<g>
					<path class="st9" d="M641.25,425.81c0,1.63,1.14,3.61,2.55,4.42c1.41,0.81,2.55,0.15,2.55-1.47s-1.14-3.61-2.55-4.42
						C642.39,423.52,641.25,424.18,641.25,425.81z"/>
					<path class="st9" d="M633.03,421.06c0,1.63,1.14,3.61,2.55,4.42c1.41,0.81,2.55,0.15,2.55-1.47c0-1.63-1.14-3.61-2.55-4.42
						C634.17,418.77,633.03,419.43,633.03,421.06z"/>
					<path class="st12" d="M624.81,416.31c0,1.63,1.14,3.61,2.55,4.42c1.41,0.81,2.55,0.15,2.55-1.47c0-1.63-1.14-3.61-2.55-4.42
						C625.95,414.02,624.81,414.69,624.81,416.31z"/>
				</g>
				<g>
					<path class="st12" d="M694.15,416.16l29.6-17.09c1.82-1.05,1.59-2.88-0.51-4.09l-28.58-16.5c-2.1-1.21-5.27-1.34-7.09-0.29
						l-29.6,17.09c-1.82,1.05-1.59,2.88,0.51,4.09l28.58,16.5C689.16,417.07,692.34,417.21,694.15,416.16z"/>
					<path class="st9" d="M691.32,401.85l4.1-2.36c0.25-0.15,0.22-0.4-0.07-0.57l-3.95-2.28c-0.29-0.17-0.73-0.19-0.98-0.04
						l-4.1,2.36c-0.25,0.15-0.22,0.4,0.07,0.57l3.95,2.28C690.63,401.98,691.07,401.99,691.32,401.85z"/>
					<path class="st13" d="M723.75,399.07l-0.08,0.05c-0.14-0.1-0.27-0.2-0.43-0.29l-28.58-16.5c-2.1-1.21-5.27-1.34-7.09-0.29
						l-29.52,17.04c-1.67-1.2-1.76-2.83-0.08-3.8l29.6-17.09c1.82-1.05,4.99-0.92,7.09,0.29l28.58,16.5
						C725.34,396.19,725.57,398.02,723.75,399.07z"/>
				</g>
			</g>
			<g>
				<path class="st9" d="M702.71,444.5c0,1.17,0.82,1.64,1.83,1.06c1.01-0.58,1.83-2.01,1.83-3.17c0-1.17-0.82-1.64-1.83-1.06
					C703.53,441.91,702.71,443.33,702.71,444.5z"/>
				<path class="st9" d="M708.39,441.24c0,1.17,0.82,1.64,1.83,1.06c1.01-0.58,1.83-2.01,1.83-3.17s-0.82-1.64-1.83-1.06
					C709.21,438.65,708.39,440.07,708.39,441.24z"/>
				<path class="st9" d="M702.71,451.36c0,1.17,0.82,1.64,1.83,1.06c1.01-0.58,1.83-2.01,1.83-3.17c0-1.17-0.82-1.64-1.83-1.06
					C703.53,448.77,702.71,450.19,702.71,451.36z"/>
				<path class="st12" d="M708.39,448.1c0,1.17,0.82,1.64,1.83,1.06c1.01-0.58,1.83-2.01,1.83-3.17c0-1.17-0.82-1.64-1.83-1.06
					C709.21,445.51,708.39,446.93,708.39,448.1z"/>
			</g>
			<g>
				<path class="st12" d="M702.71,479.38c0,1.17,0.82,1.64,1.83,1.06c1.01-0.58,1.83-2.01,1.83-3.17c0-1.17-0.82-1.64-1.83-1.06
					C703.53,476.79,702.71,478.21,702.71,479.38z"/>
				<path class="st9" d="M708.39,476.12c0,1.17,0.82,1.64,1.83,1.06c1.01-0.58,1.83-2,1.83-3.17c0-1.17-0.82-1.64-1.83-1.06
					C709.21,473.53,708.39,474.95,708.39,476.12z"/>
				<path class="st12" d="M702.71,486.24c0,1.17,0.82,1.64,1.83,1.06c1.01-0.58,1.83-2.01,1.83-3.17c0-1.17-0.82-1.64-1.83-1.06
					C703.53,483.65,702.71,485.07,702.71,486.24z"/>
				<path class="st9" d="M708.39,482.97c0,1.17,0.82,1.64,1.83,1.06c1.01-0.58,1.83-2.01,1.83-3.17c0-1.17-0.82-1.64-1.83-1.06
					C709.21,480.39,708.39,481.81,708.39,482.97z"/>
			</g>
			<g>
				<path class="st9" d="M702.71,514.25c0,1.17,0.82,1.64,1.83,1.06c1.01-0.58,1.83-2.01,1.83-3.17s-0.82-1.64-1.83-1.06
					C703.53,511.66,702.71,513.08,702.71,514.25z"/>
				<path class="st12" d="M708.39,510.99c0,1.17,0.82,1.64,1.83,1.06c1.01-0.58,1.83-2,1.83-3.17c0-1.17-0.82-1.64-1.83-1.06
					C709.21,508.4,708.39,509.82,708.39,510.99z"/>
				<path class="st9" d="M702.71,521.11c0,1.17,0.82,1.64,1.83,1.06c1.01-0.58,1.83-2.01,1.83-3.17s-0.82-1.64-1.83-1.06
					C703.53,518.52,702.71,519.94,702.71,521.11z"/>
				<path class="st9" d="M708.39,517.85c0,1.17,0.82,1.64,1.83,1.06c1.01-0.58,1.83-2.01,1.83-3.17c0-1.17-0.82-1.64-1.83-1.06
					C709.21,515.26,708.39,516.68,708.39,517.85z"/>
			</g>
		</g>
		<g>
			<polygon class="st9" points="700.91,333.55 705.01,331.89 701.82,329.44 			"/>
			<polygon class="st9" points="698.85,289.09 702.84,287.47 702.56,289.14 			"/>
			<polygon class="st9" points="713.79,323.15 717.95,321.48 711.89,315.37 			"/>
			<g>
				<path class="st9" d="M703.93,331.79l-15.89-9.18c-0.81-0.47-1.29-1.64-1.09-2.62l3.81-18.04l18.82,10.86l-3.81,18.04
					C705.56,331.84,704.74,332.25,703.93,331.79z"/>
				<path class="st9" d="M702.8,287.49l-21.48,10.83c-0.91,0.46-0.61,2.17,0.5,2.81l17.53,10.12l17.53,10.12
					c1.11,0.64,1.99-0.39,1.45-1.69l-12.74-30.58C705.04,287.79,703.73,287.02,702.8,287.49z"/>
			</g>
			<g>
				<path class="st11" d="M699.76,333.47l-15.9-9.18c-0.81-0.47-1.29-1.64-1.09-2.62l3.81-18.04l18.82,10.86l-3.81,18.04
					C701.39,333.52,700.57,333.94,699.76,333.47z"/>
				<path class="st11" d="M698.63,289.17L677.15,300c-0.91,0.46-0.61,2.17,0.5,2.81l17.53,10.12l17.53,10.12
					c1.11,0.64,1.99-0.39,1.45-1.69l-12.74-30.58C700.88,289.47,699.56,288.71,698.63,289.17z"/>
			</g>
		</g>
		<g>
			<polygon class="st9" points="590.61,270.27 594.71,268.62 591.52,266.17 			"/>
			<polygon class="st9" points="588.56,225.82 592.54,224.2 592.26,225.87 			"/>
			<polygon class="st9" points="603.5,259.88 607.65,258.21 601.59,252.1 			"/>
			<g>
				<path class="st9" d="M593.63,268.52l-15.9-9.18c-0.81-0.47-1.29-1.64-1.09-2.62l3.81-18.04l18.82,10.86l-3.81,18.04
					C595.26,268.56,594.44,268.98,593.63,268.52z"/>
				<path class="st9" d="M592.5,224.22l-21.48,10.83c-0.91,0.46-0.61,2.17,0.5,2.81l17.53,10.12l17.53,10.12
					c1.11,0.64,1.99-0.39,1.45-1.69l-12.74-30.58C594.75,224.51,593.43,223.75,592.5,224.22z"/>
			</g>
			<g>
				<path class="st11" d="M589.47,270.2l-15.89-9.18c-0.81-0.47-1.29-1.64-1.09-2.62l3.81-18.04l18.82,10.86l-3.81,18.04
					C591.1,270.25,590.27,270.66,589.47,270.2z"/>
				<path class="st11" d="M588.33,225.9l-21.48,10.83c-0.91,0.46-0.61,2.17,0.5,2.81l17.53,10.12l17.53,10.12
					c1.11,0.64,1.99-0.39,1.45-1.69l-12.74-30.58C590.58,226.2,589.26,225.44,588.33,225.9z"/>
			</g>
		</g>
		<g>
			<path class="st15" d="M208.12,537.73l119.46-68.64c9.42-5.41,25.86-4.7,36.71,1.6l244.99,142.13c10.85,6.3,12.01,15.79,2.59,21.2
				l-119.46,68.64c-9.42,5.41-25.86,4.7-36.71-1.6L210.71,558.93C199.85,552.63,198.69,543.14,208.12,537.73z"/>
			<path class="st23" d="M497.17,662.21l122.33-70.29c5.36-3.08,8.05-7.18,8.18-11.5l0,0l0.1-21.06l-3.93,6.78
				c-1.88-2.2-4.44-4.3-7.68-6.18L369.84,417.04c-13.96-8.1-35.1-9.02-47.21-2.06l-122.33,70.29c-1.3,0.75-2.43,1.55-3.42,2.41
				l-4.69-6.01l-0.1,19.8l0-0.01c-0.17,5.45,3.73,11.25,11.52,15.77l246.35,142.92C463.91,668.25,485.05,669.17,497.17,662.21z"/>
			<path class="st11" d="M200.38,469.62l122.33-70.29c12.12-6.96,33.25-6.04,47.21,2.06l246.35,142.92
				c13.96,8.1,15.45,20.31,3.33,27.27l-122.33,70.29c-12.12,6.96-33.25,6.04-47.21-2.06L203.71,496.89
				C189.75,488.79,188.26,476.58,200.38,469.62z"/>
			<path class="st10" d="M619.61,571.58l-122.33,70.29c-12.12,6.96-33.26,6.04-47.21-2.06L203.71,496.89
				c-6.76-3.92-10.57-8.81-11.35-13.6c-0.97,5.85,2.87,12.28,11.35,17.2l246.35,142.92c13.96,8.1,35.1,9.02,47.21,2.06l122.33-70.29
				c6.25-3.59,8.85-8.57,8.02-13.67C627,565.3,624.37,568.84,619.61,571.58z"/>
			<path class="st6" d="M208.12,472.45l119.46-68.64c9.42-5.41,25.86-4.7,36.71,1.6l244.99,142.13c10.85,6.3,12.01,15.79,2.59,21.2
				l-119.46,68.64c-9.42,5.41-25.86,4.7-36.71-1.6L210.71,493.65C199.85,487.36,198.69,477.86,208.12,472.45z"/>
			<g id="XMLID_4666_">
				<polygon id="XMLID_4409_" class="st24" points="474.02,629.64 601.2,556.76 507.07,502.01 379.89,574.89 				"/>
				<g id="XMLID_4403_">
					<g id="XMLID_4400_">
						<g id="XMLID_2989_">
							<g id="XMLID_4683_">
								<polygon id="XMLID_4664_" class="st25" points="474.05,623.5 601.23,550.61 507.11,495.86 379.92,568.75 								"/>
							</g>
							<g id="XMLID_4686_">
								<polygon id="XMLID_4663_" class="st26" points="474.04,627.69 379.91,572.94 379.92,568.75 474.05,623.5 								"/>
							</g>
							<g id="XMLID_2987_">
								<g id="XMLID_4684_">
									<polygon id="XMLID_4662_" class="st11" points="601.23,550.61 601.22,554.8 474.04,627.69 474.05,623.5 									"/>
								</g>
								<g id="XMLID_4685_" class="st27">
									<polygon id="XMLID_4661_" class="st11" points="601.23,550.61 601.22,554.8 474.04,627.69 474.05,623.5 									"/>
								</g>
							</g>
							<g id="XMLID_2985_">
								<g id="XMLID_2959_">
									<polygon id="XMLID_4660_" class="st28" points="474.04,627.69 474.05,623.5 455.95,612.97 455.94,617.16 									"/>
								</g>
								<g id="XMLID_2960_" class="st29">
									<polygon id="XMLID_4643_" class="st28" points="474.04,627.69 474.05,623.5 455.95,612.97 455.94,617.16 									"/>
								</g>
							</g>
							<g id="XMLID_2980_">
								<g id="XMLID_2962_">
									<polygon id="XMLID_4641_" class="st12" points="455.95,612.97 583.13,540.08 601.23,550.61 474.05,623.5 									"/>
								</g>
								<g id="XMLID_2964_" class="st30">
									<polygon id="XMLID_4575_" class="st12" points="455.95,612.97 583.13,540.08 601.23,550.61 474.05,623.5 									"/>
								</g>
							</g>
							<g id="XMLID_4146_">
								<g id="XMLID_4316_">
									<path id="XMLID_5152_" class="st31" d="M455.53,602.76c-1-0.58-0.94-1.55,0.13-2.16l9.53-5.47
										c1.07-0.61,2.75-0.64,3.75-0.06s0.94,1.55-0.13,2.16l-9.53,5.47C458.21,603.31,456.53,603.34,455.53,602.76z"/>
								</g>
								<g id="XMLID_4312_">
									<path id="XMLID_5150_" class="st31" d="M471.62,593.54c-1-0.58-0.94-1.55,0.13-2.16l9.53-5.47
										c1.07-0.61,2.75-0.64,3.75-0.06s0.94,1.55-0.13,2.16l-9.53,5.47C474.3,594.1,472.62,594.12,471.62,593.54z"/>
								</g>
								<g id="XMLID_4308_">
									<path id="XMLID_5148_" class="st31" d="M487.7,584.32c-1-0.58-0.94-1.55,0.13-2.16l9.53-5.47
										c1.07-0.61,2.75-0.64,3.75-0.06c1,0.58,0.94,1.55-0.13,2.16l-9.53,5.47C490.38,584.88,488.7,584.9,487.7,584.32z"/>
								</g>
								<g id="XMLID_4302_">
									<path id="XMLID_5146_" class="st31" d="M503.79,575.11c-1-0.58-0.94-1.55,0.13-2.16l9.53-5.47
										c1.07-0.61,2.75-0.64,3.75-0.06c1,0.58,0.94,1.55-0.13,2.16l-9.53,5.47C506.47,575.66,504.79,575.69,503.79,575.11z"/>
								</g>
								<g id="XMLID_4299_">
									<path id="XMLID_5144_" class="st31" d="M519.88,565.89c-1-0.58-0.94-1.55,0.13-2.16l9.53-5.47
										c1.07-0.61,2.75-0.64,3.75-0.06c1,0.58,0.94,1.55-0.13,2.16l-9.53,5.47C522.55,566.44,520.88,566.47,519.88,565.89z"/>
								</g>
								<g id="XMLID_4297_">
									<path id="XMLID_5142_" class="st31" d="M535.96,556.67c-1-0.58-0.94-1.55,0.13-2.16l9.53-5.47
										c1.07-0.61,2.75-0.64,3.75-0.06c1,0.58,0.94,1.55-0.13,2.16l-9.53,5.47C538.64,557.22,536.96,557.25,535.96,556.67z"/>
								</g>
								<g id="XMLID_4296_">
									<path id="XMLID_5140_" class="st31" d="M552.05,547.45c-1-0.58-0.94-1.55,0.13-2.16l9.53-5.47
										c1.07-0.61,2.75-0.64,3.75-0.06c1,0.58,0.94,1.55-0.13,2.16l-9.53,5.47C554.73,548.01,553.05,548.03,552.05,547.45z"/>
								</g>
							</g>
							<g id="XMLID_2983_">
								<g id="XMLID_4290_">
									<path id="XMLID_4640_" class="st26" d="M506.69,504.01c-0.12,0.21-0.05,0.49,0.16,0.61l50.68,29.48
										c0.21,0.12,0.49,0.05,0.61-0.16c0.12-0.21,0.05-0.49-0.16-0.61l-50.68-29.48C507.09,503.73,506.82,503.8,506.69,504.01z"/>
								</g>
								<g id="XMLID_4289_">
									<path id="XMLID_4590_" class="st26" d="M490.6,513.24c-0.12,0.21-0.05,0.49,0.16,0.61l50.69,29.48
										c0.21,0.12,0.49,0.05,0.61-0.16c0.12-0.21,0.05-0.49-0.16-0.61l-50.69-29.48C491,512.95,490.72,513.02,490.6,513.24z"/>
								</g>
								<g id="XMLID_4285_">
									<path id="XMLID_4589_" class="st26" d="M474.51,522.46c-0.12,0.21-0.05,0.49,0.16,0.61l50.69,29.48
										c0.21,0.12,0.49,0.05,0.61-0.16c0.12-0.21,0.05-0.49-0.16-0.61l-50.69-29.48C474.91,522.17,474.63,522.25,474.51,522.46z"
										/>
								</g>
								<g id="XMLID_4284_">
									<path id="XMLID_4588_" class="st26" d="M458.42,531.68c-0.12,0.21-0.05,0.49,0.16,0.61l50.69,29.48
										c0.21,0.12,0.49,0.05,0.61-0.16c0.12-0.21,0.05-0.49-0.16-0.61l-50.69-29.48C458.81,531.4,458.54,531.47,458.42,531.68z"/>
								</g>
								<g id="XMLID_4200_">
									<path id="XMLID_4587_" class="st26" d="M442.32,540.9c-0.12,0.21-0.05,0.49,0.16,0.61L493.17,571
										c0.21,0.12,0.49,0.05,0.61-0.16c0.12-0.21,0.05-0.49-0.16-0.61l-50.69-29.48C442.72,540.62,442.45,540.69,442.32,540.9z"/>
								</g>
								<g id="XMLID_4199_">
									<path id="XMLID_4586_" class="st26" d="M426.23,550.13c-0.12,0.21-0.05,0.49,0.16,0.61l50.69,29.48
										c0.21,0.12,0.49,0.05,0.61-0.16c0.12-0.21,0.05-0.49-0.16-0.61l-50.69-29.48C426.63,549.84,426.36,549.91,426.23,550.13z"
										/>
								</g>
								<g id="XMLID_4147_">
									<path id="XMLID_4585_" class="st26" d="M410.14,559.35c-0.12,0.21-0.05,0.49,0.16,0.61l50.69,29.48
										c0.21,0.12,0.49,0.05,0.61-0.16c0.12-0.21,0.05-0.49-0.16-0.61l-50.69-29.48C410.54,559.06,410.26,559.14,410.14,559.35z"
										/>
								</g>
								<g id="XMLID_3014_">
									<path id="XMLID_4584_" class="st26" d="M394.05,568.57c-0.12,0.21-0.05,0.49,0.16,0.61l50.69,29.48
										c0.21,0.12,0.49,0.05,0.61-0.16c0.12-0.21,0.05-0.49-0.16-0.61l-50.69-29.48C394.44,568.28,394.17,568.36,394.05,568.57z"
										/>
								</g>
								<g id="XMLID_2981_">
									<path id="XMLID_4583_" class="st26" d="M432.06,590.68c-0.08,0.13-0.08,0.3,0,0.45c0.12,0.21,0.4,0.29,0.61,0.17
										l112.65-64.56c0.21-0.12,0.29-0.39,0.17-0.61c-0.12-0.21-0.4-0.29-0.61-0.17l-112.65,64.56
										C432.15,590.56,432.1,590.62,432.06,590.68z"/>
								</g>
								<g id="XMLID_2982_">
									<path id="XMLID_4582_" class="st26" d="M419.39,583.31c-0.08,0.13-0.08,0.3,0,0.45c0.12,0.21,0.4,0.29,0.61,0.17
										l112.64-64.56c0.22-0.12,0.29-0.39,0.17-0.61c-0.12-0.21-0.4-0.29-0.61-0.17l-112.65,64.56
										C419.48,583.19,419.43,583.25,419.39,583.31z"/>
								</g>
								<g id="XMLID_2984_">
									<path id="XMLID_4581_" class="st26" d="M406.72,575.94c-0.08,0.13-0.08,0.3,0,0.45c0.12,0.21,0.4,0.29,0.61,0.17
										L519.97,512c0.21-0.12,0.29-0.4,0.17-0.61c-0.12-0.21-0.4-0.29-0.61-0.17l-112.65,64.56
										C406.81,575.82,406.76,575.88,406.72,575.94z"/>
								</g>
								<g id="XMLID_2968_">
									<path id="XMLID_4576_" class="st26" d="M394.21,568.41l112.65-64.56c0.14-0.08,0.31-0.08,0.45,0l50.68,29.48
										c0.14,0.08,0.22,0.23,0.22,0.39c0,0.16-0.09,0.31-0.22,0.39l-112.65,64.56c-0.14,0.08-0.31,0.08-0.45,0l-50.69-29.48
										c-0.14-0.08-0.22-0.23-0.22-0.39c0-0.08,0.02-0.16,0.06-0.22C394.09,568.5,394.14,568.45,394.21,568.41z M556.87,533.72
										l-49.79-28.96L395.33,568.8l49.79,28.96L556.87,533.72z"/>
								</g>
							</g>
							<g id="XMLID_4398_">
								<g id="XMLID_4295_">
									<path id="XMLID_5110_" class="st32" d="M456.01,560.93l-1.21-1.76c-0.08-0.11-0.06-0.23,0.05-0.31l1.7-1.37
										c0.27-0.22-0.06-0.56-0.56-0.58l-3.13-0.12c-0.2-0.01-0.39-0.07-0.52-0.17l-1.99-1.56c-0.32-0.25-0.94-0.22-1.05,0.05
										l-0.72,1.69c-0.05,0.11-0.18,0.19-0.37,0.21l-2.93,0.4c-0.46,0.06-0.52,0.42-0.09,0.61l2.68,1.16
										c0.17,0.07,0.28,0.18,0.29,0.3l0.18,1.81c0.03,0.29,0.62,0.48,0.99,0.33l2.38-0.97c0.15-0.06,0.35-0.07,0.55-0.03
										l3.04,0.71C455.79,561.45,456.21,561.21,456.01,560.93z"/>
								</g>
								<g id="XMLID_4401_">
									<path id="XMLID_5108_" class="st32" d="M521.33,531.13c1.49,0.98,2.68,2.46,2.32,4.37c-0.43,2.34-2.91,3.07-4.91,3.52
										c-0.53,0.12-0.35-0.55,0.03-0.66c1.9-0.56,4.42-2.18,3.62-4.43c-0.78-2.21-3.51-2.89-5.61-3.21
										c-3.49-0.53-7.89,0.75-9.57,4.2c-3.66,7.53,13.59,7.11,16.79,3.25c0.26-0.31,0.94-0.24,0.75,0.27
										c-0.9,2.36-3.72,2.78-5.95,3.28c-2.49,0.56-4.98,0.69-7.51,0.26c-4.67-0.79-8.14-5.65-3.92-9.46
										C511.06,529.18,517.04,528.3,521.33,531.13z"/>
								</g>
								<g id="XMLID_55_">
									<path id="XMLID_56_" class="st33" d="M440.28,594.77c-1.49-0.98-2.68-2.46-2.32-4.37c0.43-2.34,2.91-3.07,4.91-3.52
										c0.53-0.12,0.35,0.55-0.03,0.66c-1.9,0.56-4.42,2.18-3.62,4.43c0.78,2.21,3.51,2.89,5.61,3.21
										c3.49,0.53,7.89-0.75,9.57-4.2c3.66-7.53-13.59-7.11-16.79-3.25c-0.26,0.31-0.94,0.24-0.75-0.27
										c0.9-2.36,3.72-2.78,5.95-3.28c2.49-0.56,4.98-0.69,7.51-0.26c4.67,0.79,8.14,5.65,3.92,9.46
										C450.55,596.72,444.57,597.6,440.28,594.77z"/>
								</g>
								<g id="XMLID_4407_">
									<path id="XMLID_5106_" class="st32" d="M425.95,563.99c0.47,0.81,0.58,1.67,0.88,2.53c0.12,0.34-0.46,0.68-0.68,0.39
										c-0.53-0.7-0.56-1.53-0.97-2.27c-0.07-0.12-0.13-0.25-0.2-0.39c0.2,1.3-0.63,3.36-0.89,4.24c-0.85,2.89-2.67,5.01-4.9,6.9
										c-0.21,0.18-0.38-0.04-0.28-0.25c0.2-0.45,0.47-0.59,0.8-0.95c1.01-1.06,1.8-2.35,2.48-3.64c0.66-1.24,1.93-4.36,1.73-6.15
										c-0.53,1.4-1.39,2.68-2.8,2.91c-0.16,0.03-0.37-0.08-0.29-0.28c0.37-0.86,1.06-1.36,1.5-2.18c0.52-0.97,0.9-1.92,1.11-3
										c0.08-0.42,0.6-0.46,0.9-0.27C425.2,562.13,425.47,563.16,425.95,563.99z"/>
								</g>
							</g>
						</g>
						<g id="XMLID_4319_">
							<g id="XMLID_4328_">
								<g id="XMLID_4329_">
									<path id="XMLID_5102_" class="st31" d="M588.75,545.6c0,0-0.04,0.01-0.12,0.04c-0.08,0.02-0.2,0.06-0.26,0.11
										c-0.18,0.09-0.11,0.23-0.12,0.4c0,0.35,0,0.84,0.01,1.44c0,0.6,0,1.29,0.02,2.03c0.02,0.74,0.02,1.54,0.06,2.33
										c0.01,0.24,0.77,0.25,0.79,0c0.04-0.79,0.05-1.59,0.07-2.33c0.02-0.74,0.03-1.44,0.03-2.03c0.01-0.6,0.01-1.09,0.02-1.44
										c-0.01-0.17,0.06-0.31-0.12-0.4c-0.06-0.05-0.17-0.08-0.26-0.11C588.79,545.62,588.75,545.6,588.75,545.6z"/>
								</g>
							</g>
							<g id="XMLID_4320_">
								<g id="XMLID_4326_">
									<g id="XMLID_4327_">
										<path id="XMLID_5099_" class="st8" d="M588.61,544.05c-1.92-0.01-3.49,0.9-3.55,2.77c0,0.03,0,0.07,0,0.1
											c0,0.01,0,0.03,0,0.04c0.02,0.51,0.36,1.01,1.03,1.41c1.38,0.8,3.62,0.81,5.01,0.02c0.65-0.37,0.99-0.85,1.03-1.34
											c0-0.03,0-0.07,0-0.1c0-0.06,0-0.12-0.01-0.18C592.05,544.94,590.51,544.05,588.61,544.05z"/>
									</g>
								</g>
								<g id="XMLID_4325_">
									<path id="XMLID_5096_" class="st31" d="M586.78,540.65l3.67-0.01c0.01,0.39-0.15,2.81,0.37,4.74
										c0.01,0.03,0.02,0.06,0.03,0.1c0.01,0.03,0.01,0.06,0.02,0.08l-0.01,0c0.05,0.37-0.16,0.76-0.66,1.04
										c-0.9,0.52-2.36,0.51-3.26-0.01c-0.45-0.26-0.67-0.6-0.67-0.94h0l0,0c0-0.11,0.03-0.21,0.07-0.32
										C586.89,543.13,586.81,541.07,586.78,540.65z"/>
								</g>
								<g id="XMLID_4323_">
									<g id="XMLID_4324_">
										<path id="XMLID_5094_" class="st8" d="M590.73,538.96c0.93,0.54,1.25,1.74,0.71,2.67c-0.12,0.21-0.28,0.39-0.46,0.53
											c-0.01,0.01-0.02,0.02-0.03,0.03c-0.02,0.02-0.05,0.03-0.07,0.05c-0.09,0.07-0.17,0.13-0.28,0.19
											c-1.1,0.63-2.87,0.62-3.96-0.01c-0.16-0.09-0.29-0.19-0.4-0.3c-0.71-0.6-0.92-1.64-0.43-2.47
											c0.54-0.93,1.74-1.25,2.67-0.71c0.05,0.03,0.1,0.07,0.15,0.11C589.24,538.63,590.05,538.56,590.73,538.96z"/>
									</g>
								</g>
								<g id="XMLID_4321_">
									<g id="XMLID_4322_">
										<path id="XMLID_5091_" class="st31" d="M590.61,541.15c1.1-0.63,1.1-1.65,0.01-2.29c-1.09-0.63-2.86-0.64-3.96-0.01
											c-1.1,0.63-1.1,1.65-0.01,2.29C587.74,541.77,589.51,541.77,590.61,541.15z"/>
									</g>
								</g>
							</g>
						</g>
						<g id="XMLID_4348_">
							<g id="XMLID_4382_">
								<g id="XMLID_4384_">
									<path id="XMLID_5086_" class="st31" d="M475.78,610.71c0,0-0.04,0.01-0.12,0.04c-0.08,0.02-0.2,0.06-0.26,0.11
										c-0.18,0.09-0.11,0.23-0.12,0.4c0,0.35,0,0.84,0.01,1.44c0,0.6,0,1.29,0.02,2.03c0.02,0.74,0.02,1.54,0.06,2.33
										c0.01,0.24,0.77,0.25,0.79,0c0.04-0.79,0.05-1.59,0.07-2.33c0.02-0.74,0.03-1.44,0.03-2.03c0.01-0.6,0.01-1.09,0.02-1.44
										c-0.01-0.17,0.06-0.31-0.12-0.4c-0.06-0.05-0.17-0.08-0.26-0.11C475.82,610.73,475.78,610.71,475.78,610.71z"/>
								</g>
							</g>
							<g id="XMLID_4349_">
								<g id="XMLID_4380_">
									<g id="XMLID_4381_">
										<path id="XMLID_5083_" class="st8" d="M475.65,609.16c-1.92-0.01-3.49,0.9-3.55,2.77c0,0.03,0,0.07,0,0.1
											c0,0.01,0,0.03,0,0.04c0.02,0.51,0.36,1.01,1.03,1.41c1.38,0.8,3.62,0.81,5.01,0.02c0.65-0.37,0.99-0.85,1.03-1.34
											c0-0.03,0-0.07,0-0.1c0-0.06,0-0.12-0.01-0.18C479.09,610.05,477.54,609.16,475.65,609.16z"/>
									</g>
								</g>
								<g id="XMLID_4378_">
									<path id="XMLID_5080_" class="st31" d="M473.81,605.76l3.67-0.01c0.01,0.39-0.15,2.81,0.37,4.74
										c0.01,0.03,0.02,0.06,0.03,0.1c0.01,0.03,0.01,0.06,0.02,0.08l-0.01,0c0.05,0.37-0.16,0.76-0.66,1.04
										c-0.9,0.52-2.36,0.51-3.26-0.01c-0.45-0.26-0.67-0.6-0.67-0.94h0l0,0c0-0.11,0.03-0.21,0.07-0.32
										C473.92,608.24,473.84,606.18,473.81,605.76z"/>
								</g>
								<g id="XMLID_4353_">
									<g id="XMLID_4357_">
										<path id="XMLID_5078_" class="st8" d="M477.76,604.07c0.93,0.54,1.25,1.74,0.71,2.67c-0.12,0.21-0.28,0.39-0.46,0.53
											c-0.01,0.01-0.02,0.02-0.03,0.03c-0.02,0.02-0.05,0.03-0.07,0.05c-0.09,0.07-0.17,0.13-0.28,0.19
											c-1.1,0.63-2.87,0.62-3.96-0.01c-0.16-0.09-0.29-0.19-0.4-0.3c-0.71-0.6-0.92-1.64-0.43-2.47
											c0.54-0.93,1.74-1.25,2.67-0.71c0.05,0.03,0.1,0.07,0.15,0.11C476.27,603.74,477.08,603.67,477.76,604.07z"/>
									</g>
								</g>
								<g id="XMLID_4350_">
									<g id="XMLID_4352_">
										<path id="XMLID_5075_" class="st31" d="M477.64,606.26c1.1-0.63,1.1-1.65,0.01-2.29c-1.09-0.63-2.86-0.64-3.96-0.01
											c-1.1,0.63-1.1,1.65-0.01,2.29C474.77,606.88,476.54,606.88,477.64,606.26z"/>
									</g>
								</g>
							</g>
						</g>
					</g>
				</g>
			</g>
			<g id="XMLID_4410_">
				<polygon id="XMLID_4404_" class="st24" points="423.69,532.58 365.62,566.82 293.38,526 351.46,491.75 				"/>
				<g id="XMLID_4156_">
					<g id="XMLID_3034_">
						<polygon id="XMLID_4347_" class="st34" points="365.6,564.23 423.67,529.98 423.63,524.8 365.55,559.04 						"/>
						<polygon id="XMLID_4385_" class="st26" points="365.6,564.23 293.36,523.41 293.32,518.22 365.55,559.04 						"/>
						<polygon id="XMLID_1_" class="st35" points="423.63,524.8 365.55,559.04 293.32,518.22 351.39,483.98 						"/>
					</g>
					<g id="XMLID_2888_">
						<polygon id="XMLID_2875_" class="st36" points="365.5,553.86 414.64,524.88 360.47,494.27 311.33,523.25 						"/>
						<polygon id="XMLID_2883_" class="st37" points="365.5,553.86 414.64,524.88 360.47,494.27 311.33,523.25 						"/>
					</g>
					<polygon id="XMLID_4177_" class="st36" points="329.39,533.45 363.72,530.74 362.05,506.09 365.15,515.37 377.11,514.71 
						375.52,502.77 360.47,494.27 311.33,523.25 					"/>
					<path id="XMLID_4242_" class="st36" d="M388.26,528.15c-2.47,1.45-6.49,1.49-8.98,0.08c-2.49-1.41-2.52-3.73-0.05-5.19
						c2.47-1.45,6.49-1.49,8.98-0.08S390.73,526.69,388.26,528.15z"/>
				</g>
				<g id="XMLID_4251_">
					<g id="XMLID_4396_">
						<path id="XMLID_4397_" class="st31" d="M388.65,534.25c0,0-0.05,0.02-0.15,0.05c-0.1,0.03-0.24,0.08-0.32,0.13
							c-0.22,0.12-0.13,0.29-0.14,0.5c0.01,0.43,0.02,1.04,0.03,1.78c0.01,0.74,0.02,1.6,0.06,2.52c0.03,0.92,0.05,1.9,0.11,2.89
							c0.02,0.3,0.96,0.3,0.97-0.01c0.03-0.98,0.04-1.97,0.05-2.89c0.02-0.92,0.01-1.78,0.01-2.52c0-0.74,0-1.35,0-1.78
							c-0.02-0.21,0.07-0.38-0.15-0.5c-0.08-0.06-0.22-0.1-0.32-0.13C388.7,534.26,388.65,534.25,388.65,534.25z"/>
					</g>
					<g id="XMLID_4252_">
						<g id="XMLID_4394_">
							<path id="XMLID_4395_" class="st8" d="M388.46,532.32c-2.38,0.02-4.3,1.16-4.35,3.49c-0.01,0.04,0,0.09,0,0.13
								c0,0.02,0,0.03,0,0.05c0.03,0.63,0.46,1.25,1.3,1.72c1.72,0.97,4.5,0.95,6.2-0.05c0.79-0.47,1.21-1.07,1.26-1.67
								c0.01-0.04,0-0.09,0-0.13c0-0.07,0-0.15-0.02-0.22C392.74,533.37,390.81,532.3,388.46,532.32z"/>
						</g>
						<path id="XMLID_4393_" class="st31" d="M386.14,528.15l4.54-0.07c0.02,0.48-0.15,3.48,0.53,5.86
							c0.02,0.04,0.02,0.08,0.03,0.12c0.01,0.03,0.02,0.07,0.03,0.1l-0.01,0c0.07,0.46-0.19,0.94-0.8,1.3
							c-1.11,0.65-2.92,0.67-4.04,0.04c-0.56-0.32-0.84-0.73-0.85-1.16h0l0,0c0-0.13,0.03-0.26,0.09-0.39
							C386.31,531.21,386.18,528.67,386.14,528.15z"/>
						<g id="XMLID_4389_">
							<path id="XMLID_4392_" class="st8" d="M391.01,525.99c1.16,0.66,1.57,2.13,0.92,3.3c-0.15,0.26-0.35,0.48-0.57,0.67
								c-0.01,0.01-0.02,0.02-0.04,0.04c-0.03,0.02-0.06,0.04-0.08,0.06c-0.1,0.08-0.21,0.17-0.34,0.25
								c-1.35,0.79-3.54,0.81-4.9,0.04c-0.2-0.11-0.36-0.24-0.5-0.37c-0.89-0.73-1.16-2.02-0.57-3.06c0.66-1.16,2.13-1.57,3.3-0.92
								c0.07,0.04,0.12,0.09,0.19,0.13C389.15,525.6,390.16,525.51,391.01,525.99z"/>
						</g>
						<g id="XMLID_4386_">
							<path id="XMLID_4388_" class="st31" d="M390.89,528.7c1.35-0.79,1.34-2.06-0.03-2.83c-1.36-0.77-3.56-0.75-4.9,0.04
								c-1.35,0.79-1.34,2.06,0.03,2.83C387.35,529.51,389.54,529.49,390.89,528.7z"/>
						</g>
					</g>
				</g>
			</g>
			<g id="XMLID_4402_">
				<polygon id="XMLID_4250_" class="st38" points="282.61,519.98 235.06,493.64 279.63,466.85 327.17,493.19 				"/>
				<g id="XMLID_4406_">
					<g id="XMLID_14190_">
						<polygon id="XMLID_4399_" class="st11" points="248.17,494.48 249.38,481.06 256.31,489.29 						"/>
						<path id="XMLID_4408_" class="st10" d="M279.79,461.02c0,0-25.9,16.04-29.14,18.06c-3.24,2.03,0.4,6.53,3.24,8.14
							c-3.49,1.89-7.98,7.23-4.42,9.6l25.93,17.1l44.56-26.78L279.79,461.02z"/>
						<polygon id="XMLID_14191_" class="st11" points="319.96,487.13 275.4,513.92 282.7,517.96 327.26,491.18 						"/>
					</g>
				</g>
			</g>
		</g>
		<path class="st9" d="M647.54,174.84c0,1.17-0.82,1.64-1.83,1.06c-1.01-0.58-1.83-2.01-1.83-3.17s0.82-1.64,1.83-1.06
			C646.72,172.25,647.54,173.67,647.54,174.84z"/>
		<path class="st9" d="M672.87,188.51c0,1.17-0.82,1.64-1.83,1.06c-1.01-0.58-1.83-2.01-1.83-3.17c0-1.17,0.82-1.64,1.83-1.06
			C672.05,185.93,672.87,187.35,672.87,188.51z"/>
		<g>
			<path class="st39" d="M388.65,440.19l-48.2-27.83c-1.79-1.03-1.56-2.83,0.5-4.03l0,0c2.06-1.19,5.19-1.32,6.97-0.29l48.2,27.83
				c1.79,1.03,1.56,2.83-0.5,4.03l0,0C393.56,441.1,390.44,441.23,388.65,440.19z"/>
			<path class="st39" d="M342.96,430.77l-17.19-9.93c-1.79-1.03-1.56-2.83,0.5-4.03l0,0c2.06-1.19,5.19-1.32,6.97-0.29l17.19,9.93
				c1.79,1.03,1.56,2.83-0.5,4.03l0,0C347.87,431.67,344.75,431.8,342.96,430.77z"/>
			<path class="st13" d="M371.82,447.43l-17.19-9.93c-1.79-1.03-1.56-2.83,0.5-4.03l0,0c2.06-1.19,5.19-1.32,6.97-0.29l17.19,9.93
				c1.79,1.03,1.56,2.83-0.5,4.03l0,0C376.73,448.33,373.6,448.46,371.82,447.43z"/>
			<path class="st39" d="M430.16,481.11l-46.69-26.95c-1.79-1.03-1.56-2.83,0.5-4.03l0,0c2.06-1.19,5.19-1.32,6.97-0.29l46.69,26.95
				c1.79,1.03,1.56,2.83-0.5,4.03l0,0C435.07,482.02,431.95,482.15,430.16,481.11z"/>
			<path class="st39" d="M371.31,464.09l-60.23-34.77c-1.79-1.03-1.56-2.83,0.5-4.03l0,0c2.06-1.19,5.19-1.32,6.97-0.29l60.23,34.77
				c1.79,1.03,1.56,2.83-0.5,4.03l0,0C376.22,464.99,373.1,465.12,371.31,464.09z"/>
			<path class="st13" d="M443.74,522.86L296.4,437.79c-1.79-1.03-1.56-2.83,0.5-4.03l0,0c2.06-1.19,5.19-1.32,6.97-0.29
				l147.34,85.07c1.79,1.03,1.56,2.83-0.5,4.03l0,0C448.65,523.77,445.53,523.9,443.74,522.86z"/>
			<path class="st39" d="M486.73,496.82l-84.78-48.95c-1.79-1.03-1.56-2.83,0.5-4.03l0,0c2.06-1.19,5.19-1.32,6.97-0.29l84.78,48.95
				c1.79,1.03,1.56,2.83-0.5,4.03l0,0C491.64,497.73,488.52,497.86,486.73,496.82z"/>
		</g>
		<path class="st39" d="M600.63,594.51c0,2.38-1.67,5.26-3.72,6.45c-2.06,1.19-3.72,0.22-3.72-2.15s1.67-5.26,3.72-6.45
			C598.96,591.18,600.63,592.14,600.63,594.51z"/>
		<g>
			<path class="st10" d="M504.45,284.96l4.1-2.36c0.25-0.15,0.22-0.4-0.07-0.57l-3.95-2.28c-0.29-0.17-0.73-0.19-0.98-0.04
				l-4.1,2.36c-0.25,0.15-0.22,0.4,0.07,0.57l3.95,2.28C503.76,285.09,504.2,285.11,504.45,284.96z"/>
			<path class="st10" d="M495.01,290.41l4.1-2.36c0.25-0.15,0.22-0.4-0.07-0.57l-3.95-2.28c-0.29-0.17-0.73-0.19-0.98-0.04
				l-4.1,2.36c-0.25,0.15-0.22,0.4,0.07,0.57l3.95,2.28C494.32,290.54,494.76,290.56,495.01,290.41z"/>
			<path class="st10" d="M485.57,295.86l4.1-2.36c0.25-0.15,0.22-0.4-0.07-0.57l-3.95-2.28c-0.29-0.17-0.73-0.19-0.98-0.04
				l-4.1,2.36c-0.25,0.15-0.22,0.4,0.07,0.57l3.95,2.28C484.88,295.99,485.32,296.01,485.57,295.86z"/>
		</g>
		<g>
			<path class="st10" d="M450.37,252.55l4.1-2.36c0.25-0.15,0.22-0.4-0.07-0.57l-3.95-2.28c-0.29-0.17-0.73-0.19-0.98-0.04
				l-4.1,2.36c-0.25,0.15-0.22,0.4,0.07,0.57l3.95,2.28C449.68,252.68,450.12,252.7,450.37,252.55z"/>
			<path class="st10" d="M440.93,258l4.1-2.36c0.25-0.15,0.22-0.4-0.07-0.57l-3.95-2.28c-0.29-0.17-0.73-0.19-0.98-0.04l-4.1,2.36
				c-0.25,0.15-0.22,0.4,0.07,0.57l3.95,2.28C440.24,258.13,440.68,258.15,440.93,258z"/>
			<path class="st10" d="M431.49,263.45l4.1-2.36c0.25-0.15,0.22-0.4-0.07-0.57l-3.95-2.28c-0.29-0.17-0.73-0.19-0.98-0.04
				l-4.1,2.36c-0.25,0.15-0.22,0.4,0.07,0.57l3.95,2.28C430.8,263.58,431.24,263.6,431.49,263.45z"/>
		</g>
		<g>
			<path class="st17" d="M617.86,345.98l4.1-2.36c0.25-0.15,0.22-0.4-0.07-0.57l-3.95-2.28c-0.29-0.17-0.73-0.19-0.98-0.04
				l-4.1,2.36c-0.25,0.15-0.22,0.4,0.07,0.57l3.95,2.28C617.17,346.11,617.61,346.13,617.86,345.98z"/>
			<path class="st17" d="M608.42,351.43l4.1-2.36c0.25-0.15,0.22-0.4-0.07-0.57l-3.95-2.28c-0.29-0.17-0.73-0.19-0.98-0.04
				l-4.1,2.36c-0.25,0.15-0.22,0.4,0.07,0.57l3.95,2.28C607.73,351.56,608.17,351.58,608.42,351.43z"/>
			<path class="st17" d="M598.98,356.88l4.1-2.36c0.25-0.15,0.22-0.4-0.07-0.57l-3.95-2.28c-0.29-0.17-0.73-0.19-0.98-0.04
				l-4.1,2.36c-0.25,0.15-0.22,0.4,0.07,0.57l3.95,2.28C598.29,357.01,598.73,357.03,598.98,356.88z"/>
		</g>
		<g>
			<path class="st17" d="M563.78,313.57l4.1-2.36c0.25-0.15,0.22-0.4-0.07-0.57l-3.95-2.28c-0.29-0.17-0.73-0.19-0.98-0.04
				l-4.1,2.36c-0.25,0.15-0.22,0.4,0.07,0.57l3.95,2.28C563.09,313.7,563.53,313.72,563.78,313.57z"/>
			<path class="st17" d="M554.34,319.02l4.1-2.36c0.25-0.15,0.22-0.4-0.07-0.57l-3.95-2.28c-0.29-0.17-0.73-0.19-0.98-0.04
				l-4.1,2.36c-0.25,0.15-0.22,0.4,0.07,0.57l3.95,2.28C553.65,319.15,554.09,319.17,554.34,319.02z"/>
			<path class="st17" d="M544.9,324.47l4.1-2.36c0.25-0.15,0.22-0.4-0.07-0.57l-3.95-2.28c-0.29-0.17-0.73-0.19-0.98-0.04l-4.1,2.36
				c-0.25,0.15-0.22,0.4,0.07,0.57l3.95,2.28C544.21,324.6,544.65,324.62,544.9,324.47z"/>
		</g>
		<g>
			<path class="st8" d="M729.51,408.56l4.1-2.36c0.25-0.15,0.22-0.4-0.07-0.57l-3.95-2.28c-0.29-0.17-0.73-0.19-0.98-0.04l-4.1,2.36
				c-0.25,0.15-0.22,0.4,0.07,0.57l3.95,2.28C728.82,408.69,729.26,408.71,729.51,408.56z"/>
			<path class="st8" d="M720.07,414.01l4.1-2.36c0.25-0.15,0.22-0.4-0.07-0.57l-3.95-2.28c-0.29-0.17-0.73-0.19-0.98-0.04l-4.1,2.36
				c-0.25,0.15-0.22,0.4,0.07,0.57l3.95,2.28C719.38,414.14,719.82,414.16,720.07,414.01z"/>
			<path class="st8" d="M710.63,419.46l4.1-2.36c0.25-0.15,0.22-0.4-0.07-0.57l-3.95-2.28c-0.29-0.17-0.73-0.19-0.98-0.04l-4.1,2.36
				c-0.25,0.15-0.22,0.4,0.07,0.57l3.95,2.28C709.94,419.59,710.38,419.61,710.63,419.46z"/>
		</g>
		<g>
			<path class="st8" d="M675.43,376.15l4.1-2.36c0.25-0.15,0.22-0.4-0.07-0.57l-3.95-2.28c-0.29-0.17-0.73-0.19-0.98-0.04l-4.1,2.36
				c-0.25,0.15-0.22,0.4,0.07,0.57l3.95,2.28C674.74,376.28,675.18,376.3,675.43,376.15z"/>
			<path class="st8" d="M665.99,381.6l4.1-2.36c0.25-0.15,0.22-0.4-0.07-0.57l-3.95-2.28c-0.29-0.17-0.73-0.19-0.98-0.04l-4.1,2.36
				c-0.25,0.15-0.22,0.4,0.07,0.57l3.95,2.28C665.3,381.73,665.74,381.75,665.99,381.6z"/>
			<path class="st8" d="M656.55,387.05l4.1-2.36c0.25-0.15,0.22-0.4-0.07-0.57l-3.95-2.28c-0.29-0.17-0.73-0.19-0.98-0.04l-4.1,2.36
				c-0.25,0.15-0.22,0.4,0.07,0.57l3.95,2.28C655.86,387.18,656.3,387.2,656.55,387.05z"/>
		</g>
		<g>
			<path class="st15" d="M113.91,644.28l-61.31-35.4c-1.05-0.61-0.92-1.66,0.29-2.36l60.72-35.05c1.21-0.7,3.04-0.78,4.09-0.17
				l61.31,35.39c1.05,0.61,0.92,1.66-0.29,2.36L118,644.11C116.79,644.8,114.95,644.88,113.91,644.28z"/>
			<g>
				<path class="st11" d="M179.71,580.12V568.3l-19.26,0.01l-42.74-24.68c-1.05-0.61-2.88-0.53-4.09,0.17l-42.55,24.57l-19.17,0.01
					l0,11.86h0.01c0.02,0.37,0.24,0.72,0.69,0.98l61.31,35.39c1.05,0.61,2.88,0.53,4.09-0.17l60.72-35.05
					C179.34,581.03,179.67,580.57,179.71,580.12z"/>
				
					<linearGradient id="SVGID_5_" gradientUnits="userSpaceOnUse" x1="246.965" y1="1122.8521" x2="156.4259" y2="1195.4542" gradientTransform="matrix(0.866 0.5 -1 0.5774 1080.2052 -202.2925)">
					<stop  offset="0" style="stop-color:#C0D6FF"/>
					<stop  offset="0.2978" style="stop-color:#C5DBFF"/>
					<stop  offset="0.6488" style="stop-color:#D3E9FF"/>
					<stop  offset="1" style="stop-color:#E9FFFF"/>
				</linearGradient>
				<path class="st40" d="M113.91,604.79l-61.31-35.4c-1.05-0.61-0.92-1.66,0.29-2.36l60.72-35.05c1.21-0.7,3.04-0.78,4.09-0.17
					l61.31,35.39c1.05,0.61,0.92,1.66-0.29,2.36L118,604.62C116.79,605.32,114.95,605.39,113.91,604.79z"/>
				<path class="st41" d="M114.12,600.64l-54.34-31.37c-0.93-0.54-0.81-1.47,0.26-2.09l53.82-31.07c1.07-0.62,2.7-0.69,3.63-0.15
					l54.34,31.37c0.93,0.54,0.81,1.47-0.26,2.09l-53.82,31.07C116.67,601.11,115.05,601.18,114.12,600.64z"/>
				<path class="st12" d="M114.26,598.01l-49.93-28.82c-0.85-0.49-0.75-1.35,0.24-1.92l49.45-28.55c0.99-0.57,2.48-0.63,3.33-0.14
					l49.93,28.82c0.85,0.49,0.75,1.35-0.24,1.92l-49.45,28.55C116.6,598.44,115.11,598.51,114.26,598.01z"/>
			</g>
			<g>
				<polygon class="st35" points="114.66,566.42 108.82,563.05 112.01,561.21 117.84,564.58 				"/>
				<polygon class="st35" points="125.51,565.94 119.67,569.31 116.48,567.47 122.32,564.1 				"/>
				<polygon class="st35" points="113.33,567.18 110.14,569.02 106.96,567.18 110.14,565.34 				"/>
				<polygon class="st35" points="124.35,573.54 121.16,575.38 111.97,570.08 115.16,568.24 				"/>
			</g>
		</g>
		<g>
			<path class="st15" d="M884.01,396.18l61.31-35.4c1.05-0.61,0.92-1.66-0.29-2.36l-60.72-35.05c-1.21-0.7-3.04-0.78-4.09-0.17
				l-61.31,35.39c-1.05,0.61-0.92,1.66,0.29,2.36l60.72,35.05C881.13,396.71,882.96,396.79,884.01,396.18z"/>
			<g>
				<path class="st11" d="M818.21,332.03V320.2l19.26,0.01l42.74-24.68c1.05-0.61,2.88-0.53,4.09,0.17l42.55,24.57l19.17,0.01
					l0,11.86h-0.01c-0.02,0.37-0.24,0.72-0.69,0.98l-61.31,35.39c-1.05,0.61-2.88,0.53-4.09-0.17L819.2,333.3
					C818.57,332.93,818.24,332.47,818.21,332.03z"/>
				
					<linearGradient id="SVGID_6_" gradientUnits="userSpaceOnUse" x1="1041.8124" y1="4.8815" x2="951.2733" y2="77.4837" gradientTransform="matrix(-0.866 0.5 1 0.5774 1724.0194 -202.2925)">
					<stop  offset="0" style="stop-color:#C0D6FF"/>
					<stop  offset="0.2978" style="stop-color:#C5DBFF"/>
					<stop  offset="0.6488" style="stop-color:#D3E9FF"/>
					<stop  offset="1" style="stop-color:#E9FFFF"/>
				</linearGradient>
				<path class="st42" d="M884.01,356.69l61.31-35.4c1.05-0.61,0.92-1.66-0.29-2.36l-60.72-35.05c-1.21-0.7-3.04-0.78-4.09-0.17
					l-61.31,35.39c-1.05,0.61-0.92,1.66,0.29,2.36l60.72,35.05C881.13,357.22,882.96,357.3,884.01,356.69z"/>
				<path class="st41" d="M883.79,352.55l54.34-31.37c0.93-0.54,0.81-1.47-0.26-2.09l-53.82-31.07c-1.07-0.62-2.7-0.69-3.63-0.15
					l-54.34,31.37c-0.93,0.54-0.81,1.47,0.26,2.09l53.82,31.07C881.24,353.02,882.86,353.09,883.79,352.55z"/>
				<path class="st12" d="M883.66,349.92l49.93-28.82c0.85-0.49,0.75-1.35-0.24-1.92l-49.45-28.55c-0.99-0.57-2.48-0.63-3.33-0.14
					l-49.93,28.82c-0.85,0.49-0.75,1.35,0.24,1.92l49.45,28.55C881.31,350.35,882.8,350.41,883.66,349.92z"/>
			</g>
			<g>
				<polygon class="st35" points="883.26,318.33 889.1,314.95 885.91,313.11 880.07,316.49 				"/>
				<polygon class="st35" points="872.41,317.85 878.25,321.22 881.44,319.38 875.6,316.01 				"/>
				<polygon class="st35" points="884.59,319.09 887.77,320.93 890.96,319.09 887.77,317.25 				"/>
				<polygon class="st35" points="873.57,325.45 876.76,327.29 885.95,321.98 882.76,320.14 				"/>
			</g>
		</g>
		<g>
			<g>
				<g>
					<path class="st7" d="M658.17,808.52c-0.17,0-0.34-0.04-0.49-0.13l-144.74-83.57c-0.3-0.17-0.49-0.5-0.49-0.85
						s0.19-0.68,0.49-0.85l144.74-83.57c0.15-0.09,0.32-0.13,0.49-0.13c0.17,0,0.34,0.04,0.49,0.13l144.74,83.57
						c0.3,0.17,0.49,0.5,0.49,0.85s-0.19,0.68-0.49,0.85l-144.74,83.57C658.51,808.47,658.34,808.52,658.17,808.52z M515.4,723.97
						l142.77,82.43l142.78-82.43l-142.77-82.43L515.4,723.97z"/>
					<g>
						<path class="st15" d="M655.41,777.63l-89.33-51.96c-1.53-0.89-1.34-2.44,0.43-3.47l88.47-51.46c1.76-1.03,4.43-1.14,5.96-0.25
							l89.33,51.96c1.53,0.89,1.34,2.44-0.43,3.47l-88.47,51.46C659.6,778.41,656.93,778.52,655.41,777.63z"/>
						<g>
							<path class="st11" d="M751.28,683.46V666.1l-28.07,0.02l-62.28-36.23c-1.53-0.89-4.2-0.78-5.96,0.25l-62,36.06l-27.93,0.02
								l0.01,17.4h0.02c0.03,0.54,0.35,1.05,1.01,1.44l89.33,51.96c1.53,0.89,4.2,0.78,5.96-0.25l88.47-51.46
								C750.75,684.78,751.23,684.11,751.28,683.46z"/>
							
								<linearGradient id="SVGID_7_" gradientUnits="userSpaceOnUse" x1="673.1029" y1="924.1904" x2="541.1818" y2="1029.9763" gradientTransform="matrix(0.866 0.5 -1 0.5774 1080.2052 -202.2925)">
								<stop  offset="0" style="stop-color:#C0D6FF"/>
								<stop  offset="0.2978" style="stop-color:#C5DBFF"/>
								<stop  offset="0.6488" style="stop-color:#D3E9FF"/>
								<stop  offset="1" style="stop-color:#E9FFFF"/>
							</linearGradient>
							<path class="st43" d="M655.41,719.66l-89.33-51.96c-1.53-0.89-1.34-2.44,0.43-3.47l88.47-51.46
								c1.76-1.03,4.43-1.14,5.96-0.25l89.33,51.96c1.53,0.89,1.34,2.44-0.43,3.47l-88.47,51.46
								C659.6,720.44,656.93,720.55,655.41,719.66z"/>
							<path class="st41" d="M655.72,713.58l-79.18-46.06c-1.35-0.79-1.18-2.16,0.38-3.07l78.42-45.62
								c1.56-0.91,3.93-1.01,5.28-0.22l79.18,46.06c1.35,0.79,1.18,2.16-0.38,3.07L661,713.36
								C659.44,714.27,657.07,714.37,655.72,713.58z"/>
							<path class="st12" d="M655.92,709.72l-72.74-42.32c-1.24-0.72-1.09-1.99,0.35-2.82l72.05-41.91c1.44-0.84,3.61-0.93,4.85-0.2
								l72.74,42.31c1.24,0.72,1.09,1.99-0.35,2.82l-72.05,41.91C659.34,710.35,657.16,710.44,655.92,709.72z"/>
						</g>
					</g>
				</g>
				<g>
					<path d="M633.69,633.02c0,0-1.52,1.51-3.1,3.29c-1.58,1.78-5.96,4.2-7.81,5.29c-1.84,1.08-10.31,7.18-12.2,13.34
						c-1.89,6.16,4.03,7.13,10.13,6.2c6.1-0.93,11.92-6.39,13.62-8.38c1.7-1.98,7.57-6.43,15.12-10.11
						c7.55-3.67,3.17-8.98,3.17-8.98L633.69,633.02z"/>
					<path d="M688.6,652.83c0,0,1.16,2.82,1.42,6.42c0.26,3.6,0.57,11.39,0.7,13.67c0.13,2.28,0.07,7.85-4.07,13.08
						c-4.14,5.23-6.26,7.29-11.53,5.06c-5.27-2.23-4.93-11.16-3.87-15.73s2.19-14.83,2.12-15.91c-0.07-1.08,0.35-1.76,0.35-1.76
						L688.6,652.83z"/>
					<path class="st44" d="M617.94,527.15c0,0,0.1,41,9.11,62.99c0,0,6.36,19.32,6.7,42.13c0,0-1.68,3.88,0.48,7.13
						c2.16,3.25,16.11,6.51,18.68-3.91c2.58-10.42,2.17-30.05-0.17-38.29c-2.34-8.24,1.67-30.69,1.67-30.69s3.77,2.54,8.39,18.86
						c4.62,16.31,8.16,22.58,9.78,27.1c1.62,4.51,2.52,31.99,1.1,45.36c0,0,11.31,1.89,14.73-3.45c3.42-5.35,5.21-33.39,4.6-42.36
						c-0.61-8.97-3.64-37.74-2.91-46.6c0.73-8.86,2.76-16.02,0.95-24.93c-1.81-8.91-61.22-30.09-61.22-30.09L617.94,527.15z"/>
					<path class="st45" d="M690.12,565.42c0.73-8.86,2.76-16.02,0.95-24.93c-0.68-3.35-9.5-8.43-20.25-13.47
						c-18.29-2.13-41.49-4.65-43.1-4.45c-1.45,0.18-5.28,1.53-8.45,2.71l-1.33,1.87c0,0,0.01,2.49,0.15,6.57
						c4.24,1.39,12.5,0.27,12.5,0.27c1.09,2.9,7.98,13.3,16.75,17.93c8.78,4.63,34.81,3.76,36.26,5.48c1.45,1.71,1.18,24.15,0.95,27
						c-0.24,2.85,1.93,20.87,3.96,36.81c1.99,15.68-2.1,34.58-2.23,35.18c0.85-0.52,1.6-1.16,2.14-2c3.42-5.35,5.21-33.39,4.6-42.36
						C692.41,603.04,689.38,574.28,690.12,565.42z"/>
					<path class="st46" d="M641.32,393.63c0,0-13.36,2.7-17.86,3.64c-0.75,0.16-1.36,0.66-1.65,1.36
						c-1.37,3.24-4.86,13.31-2.79,28.19c2.55,18.29,1.29,30.53,1.29,30.53l-6.94,31.84c0,0-8.48,30.28-7.84,31.13
						c0.65,0.85,17.45,14.31,22.85,12.61c5.4-1.7,3.71-4.78,3.71-4.78s3.79,22.19,22.99,22.46s34.88,0.72,38.33-6.96
						c3.45-7.68,0.11-40.4-2.95-53.4c-3.06-13-10.47-38.94-10.47-38.94l28.89-30.42l-23.57-18.95c0,0-5.48-10.81-7.8-12.22
						c-2.33-1.41-3.59-0.3-3.59-0.3L641.32,393.63z"/>
					<g>
						<path class="st47" d="M628.88,525.91c-0.01,1.11-0.7,2.74-4.18,3.84c-3.76,1.19-12.75-4.59-18.64-8.92
							c2.93,2.56,17.37,13.66,22.31,12.11c1.07-0.34,1.86-0.73,2.44-1.14C629.77,529.31,629.18,527.17,628.88,525.91z"/>
						<path class="st47" d="M693.33,541.06c-3.64,8.1-20.19,7.63-40.45,7.35c-5.15-0.07-9.25-1.64-12.5-3.94
							c3.42,3.43,8.17,6.06,14.7,6.15c19.2,0.26,34.88,0.72,38.33-6.96c1.13-2.52,1.53-7.75,1.45-14.08
							C694.78,534.71,694.32,538.86,693.33,541.06z"/>
					</g>
					<path class="st48" d="M676.99,389.45c0,0,4.76,6.06-2.5,13.9c-4.47,4.83-12.21,15.28-18.86,26.17
						c-4.15,6.8-7.92,10.39-10.16,16.27c0,0-0.12-7.05-0.13-17.94c-0.01-10.27,0.12-20.94,0.64-23.62
						C647.07,398.72,671.63,386.62,676.99,389.45z"/>
					<path class="st49" d="M658.18,406.85c0,0-2.55,1.5-3.42,1.35c-0.86-0.15-3.58-2.93-3.58-2.93s-6.96-0.3-7.65-3.3
						c-0.69-3-1.11-6.03-1.78-7.59c-0.67-1.57-3.49-9.09-3.44-12.11c0.05-3.02,0.3-8.42-0.93-11.31
						c-1.23-2.89-2.28-31.53,25.31-30.04s18.3,29.95,18.3,29.95s2,0.91,0.68,4.57c-1.31,3.66-1.6,4.04-2.26,5.85
						c-0.67,1.82-1,2.98-2.8,4.43l-0.54,3.39c0,0,1.18,5.23-2.38,10.19C670.15,404.26,658.18,406.85,658.18,406.85z"/>
					<path class="st50" d="M622.69,397.58c0,0-2.95,0.36-13.11,24.16c-5.66,13.28-14.24,26.96-16.23,36.89
						c-1.99,9.92-1.28,20.6,0.67,21.4c1.88,0.77,35.89,14.47,46.53,18.79c0.59,0.24,1.24-0.12,1.37-0.74l3.37-16.5l-21.1-8.76
						c0,0-3.93-5.06-7.7-7.01c0,0,4.47-7.76,4.25-9.92c-0.22-2.16,0.99-24.37-1.29-33.48C617.19,413.29,622.69,397.58,622.69,397.58
						z"/>
					<path class="st49" d="M633.59,461.41c0,0-2.88-2.04-3.6-2.34c-0.72-0.3-4.61-1.74-5.35-2.09c-0.55-0.26-2.84-0.13-3.99-0.04
						c-0.42,0.03-0.78,0.26-0.99,0.62c-0.95,1.66-3.59,6.49-3.36,8.36c0,0,6.98,4.66,7.72,6.68l1.13,0.27
						C625.15,472.87,630.15,462.79,633.59,461.41z"/>
					<path class="st51" d="M690.45,490.26c-0.74-3.13-1.73-7.01-2.8-11.09l-43.6,17.42c0,0,12.52,16.2,35.18,15.74
						c6.2-0.13,10.76-2.25,14.13-4.08C692.53,501.16,691.48,494.6,690.45,490.26z"/>
					<path class="st52" d="M708.87,420.89c0,0-11.42,1.28-20.97,15.62c-9.55,14.34-16.67,31.03-16.67,31.03l-0.36,1.89
						c-0.95,4.93-6.3,7.64-10.84,5.48c-9.6-4.57-23.81-11.48-26.44-13.52c0,0-8.71,4.54-11.34,15.71c-2.09,8.91-1.62,8.95-1.62,8.95
						s37.86,18.83,52.66,19.02c14.8,0.19,34.78-47.99,37.09-57.99C712.71,437.09,715.31,423.9,708.87,420.89z"/>
					<path class="st53" d="M708.87,420.89c0,0-11.42,1.28-20.97,15.62c-9.55,14.34-16.67,31.03-16.67,31.03l-0.36,1.89
						c-0.95,4.93-6.3,7.64-10.84,5.48c-9.6-4.57-23.81-11.48-26.44-13.52c0,0-8.71,4.54-11.34,15.71c-2.09,8.91-1.62,8.95-1.62,8.95
						s37.86,18.83,52.66,19.02c14.8,0.19,34.78-47.99,37.09-57.99C712.71,437.09,715.31,423.9,708.87,420.89z"/>
					<path class="st54" d="M665.47,477.33c0,0,4.72,4.64,6.89,2.22c2.17-2.42,1.55-2.71,1.55-2.71s4.35,0.07,4.95-2.64
						c0.6-2.71,2.7-1.22,2.9-4.25c0.2-3.03-3.46-2.5-3.46-2.5L665.47,477.33z"/>
					<path class="st49" d="M659.69,474.76c0,0,1.36-1.2,3.11-2.61c1.75-1.41,4.67-7.34,5.15-7.86c0.48-0.52,6.37-4.81,9.16-4.82
						c2.79-0.01,0.64,3.06-0.01,3.48c-0.65,0.42-3.41,1.71-3.41,1.71s-2.86,2.28-3.18,2.62c-0.33,0.34,7.8-0.36,9.06,0.46
						c1.27,0.82,0.92,2.88-0.01,3.42c-0.92,0.54-1.61,0.5-1.61,0.5s0.85,2.46-1.61,3.53c-2.46,1.07-3,0.43-3,0.43
						s-0.31,4.21-4.31,3.27L659.69,474.76z"/>
					<path class="st55" d="M637.13,356.32c0,0-3.89,11.39,5.68,8.36c9.57-3.03,18.29-8.28,21.22-6.13c2.23,1.64,2,6.49,1.77,8.72
						c-0.08,0.76,0.1,1.52,0.52,2.15l2.71,4.16c0.31,0.47,0.48,1.01,0.51,1.57l0.13,2.85c0.03,0.72,0.59,1.3,1.31,1.36l0.65,0.05
						c0.72,0.06,1.37-0.43,1.52-1.14l0.84-4.16c0,0,2.37-5.56,7.04-3.24c0,0,3.26-4.16,2.44-13.26c-0.82-9.1-4.65-18.63-22.41-20.58
						C643.27,335.09,637.13,356.32,637.13,356.32z"/>
					<path class="st56" d="M662.83,417.08l-2.61-2.13c0,0-2.51,1.99-3.53,4.13c-1.01,2.15-0.22,9.07-0.22,9.07l-0.85,1.38
						l-0.95-1.85l-0.64-8.18c0,0,1.06-6.01,1.15-6.16c0.09-0.15,5.12,0.66,5.12,0.66S662.02,415.38,662.83,417.08z"/>
					<path class="st56" d="M650.23,408.64c0,0-2.85,0.12-4.16,1.15c0,0,2.98,0.22,3.45,0.29C650,410.14,650.23,408.64,650.23,408.64
						z"/>
					<path class="st57" d="M655.63,409.42l4.66,4.58c0,0-4.24,1.83-5.5,5.54c0,0-5.22,0.84-5.65-1.05
						c-0.43-1.89,0.18-6.62-0.39-8.74C648.19,407.63,655.63,409.42,655.63,409.42z"/>
					<path class="st57" d="M649.34,418.39c0,0-0.98,3.89-1.99,5.48c-1.01,1.59-2.05,3.37-2.05,3.37l-0.45,22.92
						c0,0,8.86-17.16,10.77-20.63c0,0-0.07-8.37-0.83-9.98C654.04,417.94,649.34,418.39,649.34,418.39z"/>
					<path class="st58" d="M672.81,385.09c-5.93,15.84-21.63,20.19-21.63,20.19s2.72,2.77,3.58,2.93c0.86,0.15,3.42-1.35,3.42-1.35
						s11.96-2.59,15.52-7.55c3.56-4.96,2.38-10.19,2.38-10.19l0.54-3.39C674.13,386.47,672.81,385.09,672.81,385.09z"/>
					<path class="st59" d="M685.02,404.1c0,0-2.37,7.48-2.66,7.76c-0.29,0.28-5.48-0.45-5.48-0.45l2.41,4.86
						c0,0-26.92,27.47-32.73,42.45c0,0,12.88-18.86,35.29-41.21l-2.97-4.75l5.33,1.18L685.02,404.1z"/>
					<path class="st59" d="M642.11,396.38l-1.43,1.55l1.6,1.57l-4.96,4.26c0,0-2.25,30.72,3.17,51.24c0,0-7.57-18.89-4.92-52.12
						l5.33-3.43l-1.67-1.73L642.11,396.38z"/>
					<path class="st45" d="M654.42,566.52c0,0,0.06,0.04,0.18,0.15l-6.61-7.4c3.03,4.5-1.09,24.65-1.58,29.28
						c-0.49,4.63,3.27,14.3,4.49,25.55c1.22,11.24-2.24,27.15-2.26,27.2c1.97-1.08,3.56-2.91,4.28-5.8
						c2.58-10.42,2.17-30.05-0.17-38.29C650.41,588.97,654.42,566.52,654.42,566.52z"/>
					<path class="st60" d="M673.3,505.08c14.8,0.19,34.78-47.99,37.09-57.99c0.39-1.67,0.78-3.43,1.14-5.21
						c-0.06,0.14-4.15,10.55-8.08,19.77c-3.96,9.28-24.43,37.21-34.58,38.81c-9.15,1.44-41.55-14.67-47.82-17.85
						c-0.66,3.4-0.41,3.44-0.41,3.44S658.5,504.89,673.3,505.08z"/>
					<path class="st61" d="M671.61,379.41c0.72,0.06,1.37-0.43,1.52-1.14l0.84-4.16c0,0,2.37-5.56,7.04-3.24
						c0,0,3.08-3.96,2.49-12.55c-5.44,7.75-17.18,11.1-17.18,11.1l2.71,4.16c0.31,0.47,0.48,1.01,0.51,1.57l0.13,2.85
						c0.03,0.72,0.59,1.3,1.31,1.36L671.61,379.41z"/>
				</g>
			</g>
		</g>
		<g class="st5">
			<path class="st62" d="M60.66,463.8c-2.14,0-4.12-0.5-5.88-1.52c-4.23-2.44-6.55-7.5-6.55-14.25c0-13.48,9.5-29.92,21.17-36.66
				c3.67-2.11,7.29-3.1,10.56-2.9c4.22-15.85,15.26-31.19,27.68-38.36c7.94-4.59,15.49-5.35,21.25-2.14
				c5.21,2.9,8.38,8.74,9.05,16.56c0.85-0.65,1.7-1.22,2.53-1.71l0,0c4.4-2.54,8.59-2.92,11.79-1.07c3.21,1.85,4.97,5.67,4.97,10.74
				c0,10.03-7.07,22.28-15.76,27.29l-71.08,41.04C66.98,462.8,63.66,463.8,60.66,463.8z M79.08,410.44c-2.68,0-5.66,0.91-8.7,2.66
				c-11.12,6.42-20.17,22.09-20.17,34.93c0,6,1.97,10.45,5.55,12.51c3.58,2.07,8.42,1.55,13.61-1.45l71.08-41.04
				c8.14-4.7,14.76-16.17,14.76-25.56c0-4.33-1.41-7.53-3.97-9.01c-2.56-1.48-6.04-1.1-9.79,1.07c-1.23,0.71-2.49,1.63-3.75,2.75
				l-1.6,1.41l-0.07-2.13c-0.25-8.09-3.14-14.08-8.14-16.87c-5.12-2.85-11.97-2.1-19.28,2.12c-12.2,7.04-23.03,22.29-26.96,37.95
				l-0.22,0.87l-0.89-0.12C80.09,410.48,79.59,410.44,79.08,410.44z"/>
		</g>
		<g class="st5">
			<path class="st62" d="M312.76,245.27c-1.35,0-2.6-0.32-3.71-0.96c-2.65-1.53-4.12-4.68-4.12-8.86c0-8.18,5.76-18.16,12.84-22.25
				c2.3-1.33,4.55-1.93,6.59-1.79c-0.08-0.93-0.12-1.79-0.12-2.65c0-16.74,11.8-37.18,26.3-45.55c5.75-3.32,11.27-4.4,15.96-3.13
				c3.16,0.85,5.82,2.76,7.75,5.56c2.41-2.71,5.07-4.94,7.76-6.5c4.93-2.85,9.63-3.3,13.23-1.28c3.03,1.7,4.95,4.97,5.53,9.33
				c1.32-1.3,2.7-2.36,4.12-3.19v0c3.49-2.02,6.83-2.31,9.39-0.83c2.56,1.48,3.98,4.52,3.98,8.55c0,7.87-5.55,17.48-12.37,21.42
				l-87.11,50.29C316.67,244.65,314.62,245.27,312.76,245.27z M323.75,213.4c-1.52,0-3.21,0.52-4.98,1.54
				c-6.53,3.77-11.84,12.97-11.84,20.51c0,3.43,1.11,5.96,3.12,7.12c2.01,1.16,4.75,0.85,7.73-0.86l87.11-50.29
				c6.27-3.62,11.37-12.45,11.37-19.69c0-3.29-1.06-5.71-2.98-6.82c-1.92-1.11-4.54-0.81-7.39,0.83c-1.81,1.04-3.55,2.54-5.18,4.46
				l-1.7,2l-0.06-2.62c-0.11-4.79-1.78-8.33-4.68-9.96c-2.96-1.66-6.96-1.21-11.25,1.26c-2.82,1.63-5.63,4.08-8.11,7.08l-0.92,1.11
				l-0.72-1.25c-1.7-2.97-4.22-4.98-7.28-5.81c-4.17-1.13-9.17-0.11-14.44,2.94c-13.95,8.05-25.3,27.71-25.3,43.82
				c0,1.17,0.08,2.35,0.25,3.72l0.18,1.46l-1.43-0.37C324.77,213.46,324.27,213.4,323.75,213.4z"/>
		</g>
	</g>
</g>
</svg>
