<?xml version="1.0" encoding="iso-8859-1"?>
<!-- Generator: Adobe Illustrator 19.0.0, SVG Export Plug-In . SVG Version: 6.00 Build 0)  -->
<svg version="1.1" id="Capa_1" xmlns="http://www.w3.org/2000/svg" xmlns:xlink="http://www.w3.org/1999/xlink" x="0px" y="0px"
	 viewBox="0 0 512 512" style="enable-background:new 0 0 512 512;" xml:space="preserve">
<g>
	<path style="fill:#2980BA;" d="M317.793,335.492h167.724c7.027,0.009,13.768-2.778,18.736-7.746
		c4.969-4.969,7.756-11.71,7.746-18.736V44.182c0.009-7.027-2.778-13.768-7.746-18.736s-11.71-7.756-18.736-7.746H26.483
		c-7.027-0.009-13.768,2.778-18.737,7.746S-0.009,37.156,0,44.182V309.01c-0.009,7.027,2.778,13.768,7.746,18.736
		c4.969,4.969,11.71,7.756,18.737,7.746h167.724"/>
	<g>
		<path style="fill:#E64C3C;" d="M467.862,300.182h-44.138c-4.875,0-8.828-3.952-8.828-8.828s3.952-8.828,8.828-8.828h44.138
			c4.875,0,8.828,3.952,8.828,8.828S472.737,300.182,467.862,300.182z"/>
		<path style="fill:#E64C3C;" d="M467.862,264.872h-61.793c-4.875,0-8.828-3.952-8.828-8.828s3.952-8.828,8.828-8.828h61.793
			c4.875,0,8.828,3.952,8.828,8.828S472.737,264.872,467.862,264.872z"/>
	</g>
	<path style="fill:#BBD1B5;" d="M317.793,361.975c-2.341,0.001-4.587-0.929-6.243-2.585c-1.656-1.656-2.585-3.901-2.585-6.243
		v-61.879c-0.039-29.222-23.744-52.888-52.966-52.879c-29.214,0.01-52.908,23.665-52.966,52.879v61.879
		c0,4.875-3.952,8.828-8.828,8.828s-8.828-3.952-8.828-8.828v-61.879c0.067-38.961,31.66-70.515,70.621-70.534
		c38.97-0.002,70.575,31.565,70.621,70.534v61.879c0.001,2.341-0.929,4.587-2.585,6.243
		C322.38,361.046,320.135,361.976,317.793,361.975z"/>
	<rect x="0" y="70.665" style="fill:#2C2F38;" width="512" height="52.966"/>
	<g>
		<path style="fill:#D1D4D1;" d="M52.966,247.217h35.31c9.751,0,17.655,7.904,17.655,17.655v17.655
			c0,9.751-7.904,17.655-17.655,17.655h-35.31c-9.751,0-17.655-7.905-17.655-17.655v-17.655
			C35.31,255.121,43.215,247.217,52.966,247.217z"/>
		<path style="fill:#D1D4D1;" d="M44.138,158.941h220.69c4.875,0,8.828,3.952,8.828,8.828v17.655c0,4.875-3.952,8.828-8.828,8.828
			H44.138c-4.875,0-8.828-3.952-8.828-8.828v-17.655C35.31,162.893,39.263,158.941,44.138,158.941z"/>
	</g>
	<circle style="fill:#F0C419;" cx="256" cy="406.025" r="88.276"/>
	<g>
		<circle style="fill:#2C3E50;" cx="256" cy="388.37" r="26.483"/>
		<path style="fill:#2C3E50;" d="M256,459.079c-2.341,0.001-4.587-0.929-6.243-2.585c-1.656-1.656-2.585-3.901-2.585-6.243v-35.31
			c0-4.875,3.952-8.828,8.828-8.828c4.875,0,8.828,3.952,8.828,8.828v35.31c0.001,2.341-0.929,4.587-2.585,6.243
			C260.587,458.149,258.341,459.079,256,459.079z"/>
	</g>
</g>
<g>
</g>
<g>
</g>
<g>
</g>
<g>
</g>
<g>
</g>
<g>
</g>
<g>
</g>
<g>
</g>
<g>
</g>
<g>
</g>
<g>
</g>
<g>
</g>
<g>
</g>
<g>
</g>
<g>
</g>
</svg>
