<?xml version="1.0" encoding="iso-8859-1"?>
<!-- Generator: Adobe Illustrator 21.0.0, SVG Export Plug-In . SVG Version: 6.00 Build 0)  -->
<svg xmlns="http://www.w3.org/2000/svg" xmlns:xlink="http://www.w3.org/1999/xlink" version="1.1" id="Capa_1" x="0px" y="0px" viewBox="0 0 512 512" style="enable-background:new 0 0 512 512;" xml:space="preserve" width="512" height="512">
<path d="M447.823,300.162l-38.516-95.264c-9.999-24.729-33.694-40.708-60.368-40.708h-22.821  c16.702-17.447,26.977-41.093,26.977-67.095C353.096,43.557,309.539,0,256,0s-97.096,43.557-97.096,97.096  c0,26.002,10.276,49.648,26.977,67.095h-22.821c-26.674,0-50.369,15.979-60.368,40.709l-38.516,95.262  c-9.646,23.859-2.911,51.038,16.76,67.632l52.903,44.626C145.5,469.18,195.84,512,256,512c60.163,0,110.509-42.822,122.167-99.587  l52.896-44.62C450.734,351.199,457.47,324.021,447.823,300.162z M188.904,97.096C188.904,60.099,219.003,30,256,30  s67.096,30.099,67.096,67.096c0,36.996-30.099,67.095-67.096,67.095S188.904,134.092,188.904,97.096z M167.908,422.036l13.746,2.252  l7.168-22.004h22.956c4.662,13.704,15.518,24.56,29.222,29.221v49.284C207.625,475.453,180.021,452.634,167.908,422.036z   M192.135,317.402c16.853-15.417,39.279-24.835,63.865-24.835c24.584,0,47.001,9.424,63.853,24.838l-22.252,6.367l15.804,48.512  h-13.183c-6.264-18.416-23.715-31.707-44.222-31.707s-37.958,13.291-44.222,31.707h-13.183l15.804-48.512L192.135,317.402z   M256,403.99c-9.212,0-16.707-7.494-16.707-16.706s7.495-16.707,16.707-16.707s16.707,7.495,16.707,16.707  S265.212,403.99,256,403.99z M271,480.789v-49.284c13.704-4.661,24.56-15.517,29.222-29.221h22.956l7.168,22.004l13.735-2.251  C331.967,452.633,304.373,475.453,271,480.789z M411.72,344.861l-52.513,44.297l-8.311,1.362l-15.136-46.463l12.716-3.638  l16.824,0.466l0.83-29.988l-11.881-0.329c-22.846-29.196-58.389-48.001-98.25-48.001c-39.859,0-75.395,18.807-98.241,48l-11.89,0.33  l0.83,29.988l16.824-0.466l12.716,3.638l-15.136,46.463l-8.311-1.362l-52.513-44.297c-9.73-8.208-13.063-21.652-8.291-33.455  l38.516-95.262c5.393-13.337,18.171-21.954,32.556-21.954h185.879c14.385,0,27.163,8.617,32.556,21.953l38.516,95.264  C424.782,323.209,421.45,336.653,411.72,344.861z"/>















</svg>
