<?xml version="1.0" encoding="utf-8"?>
<!-- Generator: Adobe Illustrator 23.0.0, SVG Export Plug-In . SVG Version: 6.00 Build 0)  -->
<svg version="1.1" id="Layer_1" xmlns="http://www.w3.org/2000/svg" xmlns:xlink="http://www.w3.org/1999/xlink" x="0px" y="0px"
	 viewBox="0 0 405 105" style="enable-background:new 0 0 405 105;" xml:space="preserve">
<style type="text/css">
	.st0{fill:#2394BC;}
	.st1{fill:#EFC75E;}
	.st2{fill:#E2574C;}
	.st3{fill:#F4B459;}
</style>
<g>
	<g>
		<g>
			<path class="st0" d="M102.5,19.2L91.6,86.9H109l10.9-67.6C119.9,19.2,102.5,19.2,102.5,19.2z M154.9,46.8c-6.1-3-9.8-5-9.8-8.1
				c0.1-2.8,3.1-5.6,10-5.6c5.6-0.1,9.8,1.2,12.9,2.5l1.6,0.7l2.4-14.2c-3.4-1.3-8.9-2.8-15.6-2.8c-17.2,0-29.2,8.9-29.3,21.7
				c-0.1,9.4,8.6,14.6,15.2,17.8c6.7,3.2,9,5.3,9,8.2c-0.1,4.4-5.4,6.4-10.4,6.4c-6.9,0-10.7-1-16.3-3.5l-2.3-1l-2.4,14.7
				c4.1,1.8,11.6,3.4,19.4,3.5c18.2,0,30.1-8.8,30.2-22.4C169.6,57.2,164.9,51.4,154.9,46.8z M216.5,19.4h-13.4
				c-4.1,0-7.3,1.2-9.1,5.4l-25.8,62h18.2l5-13.4h20.4l2.6,13.5h16.1L216.5,19.4z M196.5,59.9c0.4,0,7-21.9,7-21.9l5.3,21.9
				C208.8,59.9,200,59.9,196.5,59.9z M77.1,19.2l-17,46l-1.9-9.1c-3.1-10.5-13-21.8-24-27.5l15.6,58.1h18.4l27.3-67.6L77.1,19.2
				L77.1,19.2z"/>
		</g>
	</g>
	<path class="st1" d="M52.5,27.9c-1.3-5.2-5.6-8.6-11.3-8.7h-27L14,20.5c21,5.2,38.7,21.1,44.4,36.1L52.5,27.9z"/>
</g>
<g>
	<g>
		<path class="st2" d="M336.6,55.3c0,23.2-18.9,42-42.3,42c-23.3,0-42.3-18.8-42.3-42s18.9-42,42.3-42
			C317.6,13.2,336.6,32,336.6,55.3z"/>
		<path class="st3" d="M345,13.2c-9.5,0-18.2,3.1-25.2,8.4l0,0c1.4,1.3,2.9,2.3,4.1,3.8l-8.8,0.1c-1.4,1.4-2.6,2.9-3.8,4.5h15.5
			c1.2,1.4,2.3,2.6,3.3,4.2h-21.6c-0.8,1.4-1.5,2.7-2.2,4.2h26.2c0.7,1.4,1.3,2.5,1.8,4.1h-29.6c-0.5,1.5-0.9,2.9-1.2,4.4h32
			c0.3,1.5,0.6,2.8,0.7,4.2H303c-0.1,1.4-0.2,2.8-0.2,4.2h33.8c0,1.5-0.1,2.9-0.3,4.2H303c0.1,1.4,0.4,2.8,0.6,4.2h31.9
			c-0.3,1.4-0.7,2.7-1.2,4.2h-29.7c0.4,1.4,1,2.8,1.6,4.2h26.2c-0.7,1.5-1.6,2.8-2.5,4.2h-21.6c0.9,1.5,1.8,2.9,2.8,4.2l15.6,0.2
			c-1.3,1.6-3,2.5-4.6,3.9c0.1,0.1-2.5,0-7.5-0.1c7.7,7.9,18.4,12.8,30.3,12.8c23.3,0,42.3-18.8,42.3-42S368.4,13.2,345,13.2z"/>
	</g>
	<g>
	</g>
	<g>
	</g>
	<g>
	</g>
	<g>
	</g>
	<g>
	</g>
	<g>
	</g>
	<g>
	</g>
	<g>
	</g>
	<g>
	</g>
	<g>
	</g>
	<g>
	</g>
	<g>
	</g>
	<g>
	</g>
	<g>
	</g>
	<g>
	</g>
</g>
</svg>
