<svg xmlns="http://www.w3.org/2000/svg" height="480pt" viewBox="0 0 480 480.00012" width="480pt" style="&#10;    width: 100%;&#10;    height: 100%;&#10;"><path d="m370.34375 173.65625c3.125 3.121094 8.1875 3.121094 11.3125 0l10.34375-10.34375 10.34375 10.34375c3.140625 3.03125 8.128906 2.988281 11.214844-.097656 3.085937-3.085938 3.128906-8.074219.097656-11.214844l-10.34375-10.34375 10.34375-10.34375c3.03125-3.140625 2.988281-8.128906-.097656-11.214844-3.085938-3.085937-8.074219-3.128906-11.214844-.097656l-10.34375 10.34375-10.34375-10.34375c-3.140625-3.03125-8.128906-2.988281-11.214844.097656-3.085937 3.085938-3.128906 8.074219-.097656 11.214844l10.34375 10.34375-10.34375 10.34375c-3.121094 3.125-3.121094 8.1875 0 11.3125zm0 0"/><path d="m232 192h-160c-4.417969 0-8 3.582031-8 8v208c0 4.417969 3.582031 8 8 8h160c4.417969 0 8-3.582031 8-8v-208c0-4.417969-3.582031-8-8-8zm-8 208h-144v-192h144zm0 0"/><path d="m392 224h-128c-4.417969 0-8 3.582031-8 8v32c0 4.417969 3.582031 8 8 8h128c4.417969 0 8-3.582031 8-8v-32c0-4.417969-3.582031-8-8-8zm-8 32h-112v-16h112zm0 0"/><path d="m392 288h-128c-4.417969 0-8 3.582031-8 8v32c0 4.417969 3.582031 8 8 8h128c4.417969 0 8-3.582031 8-8v-32c0-4.417969-3.582031-8-8-8zm-8 32h-112v-16h112zm0 0"/><path d="m392 96c-16.285156-.121094-31.800781 6.902344-42.457031 19.21875-10.652344 12.316406-15.367188 28.683594-12.902344 44.78125h-264.640625c-22.082031.027344-39.972656 17.917969-40 40v208c.027344 22.082031 17.917969 39.972656 40 40h336c22.082031-.027344 39.972656-17.917969 40-40v-208c-.015625-7.734375-2.300781-15.292969-6.574219-21.734375 9.246094-17.351563 8.710938-38.28125-1.414062-55.132813-10.125-16.851562-28.351563-27.152343-48.011719-27.132812zm0 16c22.089844 0 40 17.910156 40 40s-17.910156 40-40 40-40-17.910156-40-40c.027344-22.082031 17.917969-39.972656 40-40zm40 296c0 13.253906-10.746094 24-24 24h-336c-13.253906 0-24-10.746094-24-24v-208c0-13.253906 10.746094-24 24-24h269.480469c7.679687 16.277344 22.734375 27.851562 40.4375 31.089844 17.703125 3.242187 35.878906-2.253906 48.824219-14.753906.832031 2.46875 1.257812 5.058593 1.257812 7.664062zm0 0"/><path d="m368 352h-80c-4.417969 0-8 3.582031-8 8s3.582031 8 8 8h80c4.417969 0 8-3.582031 8-8s-3.582031-8-8-8zm0 0"/><path d="m352 384h-48c-4.417969 0-8 3.582031-8 8s3.582031 8 8 8h48c4.417969 0 8-3.582031 8-8s-3.582031-8-8-8zm0 0"/><path d="m456 64h-187.054688l-29.746093-59.574219c-1.359375-2.726562-4.152344-4.441406-7.199219-4.425781h-208c-13.253906 0-24 10.746094-24 24v432c0 13.253906 10.746094 24 24 24h432c13.253906 0 24-10.746094 24-24v-368c0-13.253906-10.746094-24-24-24zm-440-40c0-4.417969 3.582031-8 8-8h203.054688l24 48h-235.054688zm448 432c0 4.417969-3.582031 8-8 8h-432c-4.417969 0-8-3.582031-8-8v-376h440c4.417969 0 8 3.582031 8 8zm0 0"/><path d="m114.34375 341.65625c3.125 3.121094 8.1875 3.121094 11.3125 0l64-64c3.03125-3.140625 2.988281-8.128906-.097656-11.214844-3.085938-3.085937-8.074219-3.128906-11.214844-.097656l-64 64c-3.121094 3.125-3.121094 8.1875 0 11.3125zm0 0"/><path d="m120 296c13.253906 0 24-10.746094 24-24s-10.746094-24-24-24-24 10.746094-24 24 10.746094 24 24 24zm0-32c4.417969 0 8 3.582031 8 8s-3.582031 8-8 8-8-3.582031-8-8 3.582031-8 8-8zm0 0"/><path d="m160 336c0 13.253906 10.746094 24 24 24s24-10.746094 24-24-10.746094-24-24-24-24 10.746094-24 24zm32 0c0 4.417969-3.582031 8-8 8s-8-3.582031-8-8 3.582031-8 8-8 8 3.582031 8 8zm0 0"/><path d="m32 32h16v16h-16zm0 0"/><path d="m64 32h16v16h-16zm0 0"/><path d="m96 32h16v16h-16zm0 0"/></svg>