<?xml version="1.0" encoding="iso-8859-1"?>
<!-- Generator: Adobe Illustrator 19.0.0, SVG Export Plug-In . SVG Version: 6.00 Build 0)  -->
<svg version="1.1" id="Capa_1" xmlns="http://www.w3.org/2000/svg" xmlns:xlink="http://www.w3.org/1999/xlink" x="0px" y="0px"
	 viewBox="0 0 384 384" style="enable-background:new 0 0 384 384;" xml:space="preserve">
<g>
	<g>
		<path d="M304.439,192v-32l-35.145-5.023c-1.789-6.535-4.369-12.683-7.66-18.442l21.317-28.418l-22.629-22.629l-28.422,21.317
			c-5.752-3.293-11.902-5.871-18.442-7.66L208.439,64h-32l-5.019,35.145c-6.539,1.789-12.69,4.367-18.442,7.66l-28.422-21.317
			l-22.629,22.629l21.317,28.418c-3.291,5.758-5.871,11.906-7.66,18.442L80.439,160v32l35.145,5.019
			c1.789,6.539,4.369,12.687,7.66,18.442l-21.317,28.422l22.629,22.625l28.422-21.313c5.754,3.289,11.902,5.871,18.442,7.66
			l5.02,35.146h32l5.019-35.145c6.539-1.789,12.687-4.371,18.442-7.66l28.422,21.313l22.629-22.625l-21.317-28.422
			c3.291-5.754,5.871-11.902,7.66-18.442L304.439,192z M261.825,242.379l-3.004,3.004c-23.432-17.57-16.799-12.598-25.734-19.297
			c-17.297,9.89-15.562,9.07-33.981,14.106c-1.61,11.265-0.842,5.89-4.543,31.808h-4.246c-3.701-25.906-2.934-20.543-4.543-31.809
			c-18.386-5.027-16.645-4.191-33.981-14.106l-8.414,6.309l-17.32,12.988l-3.004-3.004c16.486-21.981,12.213-16.282,19.301-25.73
			c-9.873-17.258-9.061-15.527-14.111-33.984c-10.977-1.566-5.233-0.746-31.805-4.543v-4.246
			c26.574-3.797,20.805-2.973,31.802-4.543c5.023-18.355,4.18-16.614,14.111-33.984c-7.088-9.45-2.809-3.742-19.299-25.73
			l3.002-3.004c21.989,16.489,16.287,12.215,25.738,19.302c17.306-9.902,15.554-9.066,33.981-14.11
			c1.336-9.348,0.939-6.578,4.543-31.805h4.246c3.603,25.226,3.207,22.457,4.541,31.805c19.057,5.215,17.23,4.527,33.981,14.11
			c9.451-7.086,3.75-2.813,25.736-19.301l3.004,3.004c-16.125,21.5-12.625,16.832-19.299,25.73
			c9.885,17.293,9.068,15.566,14.11,33.984c11.68,1.668,4.629,0.66,31.805,4.543v4.246c-26.58,3.797-20.806,2.973-31.805,4.543
			c-5.215,19.054-4.526,17.226-14.111,33.984C249.612,226.098,245.338,220.399,261.825,242.379z"/>
	</g>
</g>
<g>
	<g>
		<path d="M320,0H64C46.328,0,32,14.324,32,32c0,149.195,0,106.398,0,256l96,96c76.562,0,115.381,0,192,0c17.672,0,32-14.328,32-32
			V32C352,14.324,337.672,0,320,0z M128,361.371C82.982,316.355,99.633,333.004,54.629,288H112c8.822,0,16,7.176,16,16V361.371z
			 M336,352c0,8.82-7.178,16-16,16H144v-64c0-17.676-14.326-32-32-32H48V32c0-8.824,7.178-16,16-16h256c8.822,0,16,7.176,16,16V352z
			"/>
	</g>
</g>
<g>
	<g>
		<path d="M192,144c-17.672,0-32,14.324-32,32c0,17.672,14.328,32,32,32c17.674,0,32-14.328,32-32C224,158.324,209.674,144,192,144z
			 M192,192c-8.822,0-16-7.176-16-16c0-8.824,7.178-16,16-16s16,7.176,16,16C208,184.824,200.822,192,192,192z"/>
	</g>
</g>
<g>
</g>
<g>
</g>
<g>
</g>
<g>
</g>
<g>
</g>
<g>
</g>
<g>
</g>
<g>
</g>
<g>
</g>
<g>
</g>
<g>
</g>
<g>
</g>
<g>
</g>
<g>
</g>
<g>
</g>
</svg>
