<?xml version="1.0"?>
<svg xmlns="http://www.w3.org/2000/svg" viewBox="0 0 512 512" width="512" height="512"><g id="Approve"><path d="M500.731,241.549,424,185.276V40a8,8,0,0,0-8-8H96a8,8,0,0,0-8,8V185.276L11.269,241.549A8,8,0,0,0,8,248V472a8,8,0,0,0,8,8H496a8,8,0,0,0,8-8V248A8,8,0,0,0,500.731,241.549ZM163.859,353.65,24,456.213V262.742ZM256,305.92,471.563,464H40.437Zm92.141,47.73L488,262.742V456.213ZM481.931,247.6,424,285.258v-80.14ZM408,48V295.658l-73.654,47.875L260.73,289.549a7.994,7.994,0,0,0-9.46,0l-73.616,53.984L104,295.658V48ZM88,285.258,30.069,247.6,88,205.118Z"/><path d="M256,280A104,104,0,1,0,152,176,104.118,104.118,0,0,0,256,280Zm0-192a88,88,0,1,1-88,88A88.1,88.1,0,0,1,256,88Z"/><path d="M232.231,218.625a8,8,0,0,0,10.309.852l74.111-52.968a8,8,0,1,0-9.3-13.018l-68.6,49.027-19.206-19.206a8,8,0,0,0-11.315,11.313Z"/><path d="M168,440H96a8,8,0,0,0,0,16h72a8,8,0,0,0,0-16Z"/><path d="M200,440h-8a8,8,0,0,0,0,16h8a8,8,0,0,0,0-16Z"/></g></svg>
