<svg id="Layer_1" enable-background="new 0 0 512.002 512.002" height="512" viewBox="0 0 512.002 512.002" width="512" xmlns="http://www.w3.org/2000/svg"><g><g><path d="m480.826 60.001h-18.825-.001v-30.001c0-16.542-13.458-30-30-30h-351.997c-16.542 0-30 13.458-30 30v30.001h-18.826c-17.191 0-31.177 13.986-31.177 31.177v309.648c0 17.191 13.985 31.176 31.176 31.176h172.26l-15.586 60h-21.852c-5.523 0-10 4.477-10 10s4.477 10 10 10h180.004c5.522 0 10-4.477 10-10s-4.478-10-10-10h-21.817l-15.683-60h123.456c4.005 1.924 8.428 2.944 13.015 2.944s9.01-1.02 13.015-2.944h22.838c17.19 0 31.176-13.985 31.176-31.176v-309.648c0-17.191-13.986-31.177-31.176-31.177zm-18.825 20h18.825c6.162 0 11.176 5.014 11.176 11.176v280.823h-30.002zm-391.997-50.001c0-5.514 4.486-10 10-10h351.996c5.514 0 10 4.486 10 10v10h-141.001c-5.522 0-10 4.477-10 10s4.478 10 10 10h141.001v299.569l-82.65-82.649c10.573-17.868 16.653-38.696 16.653-60.92 0-66.168-53.832-120-120-120s-120 53.832-120 120 53.832 120 120 120c22.224 0 43.052-6.08 60.92-16.653l52.654 52.653h-299.573v-312h140.995c5.523 0 10-4.477 10-10s-4.477-10-10-10h-140.995zm186 286c-55.14 0-100-44.86-100-100 0-55.141 44.86-100 100-100 55.141 0 100 44.86 100 100 0 55.141-44.86 100-100 100zm-224.827-235.999h18.827v291.998h-30c-.001 0-.002 0-.003 0v-280.821c-.001-6.163 5.013-11.177 11.176-11.177zm-11.177 320.825v-8.826h.003 369.573l20.002 20.002h-378.401c-6.163 0-11.177-5.014-11.177-11.176zm283.513 91.176h-94.999l15.585-60h63.73zm134.39-79.961-104.456-104.455c5.095-4.315 9.826-9.046 14.142-14.142l104.456 104.455c1.873 1.873 2.904 4.384 2.904 7.07s-1.031 5.198-2.905 7.072c-1.873 1.873-4.384 2.904-7.07 2.904s-5.198-1.03-7.071-2.904zm42.923-.039h-6.698c1.593-6.651.888-13.741-2.108-20.002h19.982v8.826c0 6.162-5.014 11.176-11.176 11.176z"/><path d="m256.002 60c5.523 0 10-4.477 10-10s-4.477-10-10-10h-.007c-5.523 0-9.996 4.477-9.996 10s4.48 10 10.003 10z"/><path d="m256.004 136c-44.112 0-80 35.888-80 80s35.888 80 80 80 80-35.888 80-80-35.888-80-80-80zm0 140c-33.084 0-60-26.916-60-60s26.916-60 60-60 60 26.916 60 60-26.916 60-60 60z"/></g></g></svg>