<svg width="161" height="41" viewBox="0 0 161 41" fill="none" xmlns="http://www.w3.org/2000/svg">
<path d="M153.637 8.24704C152.151 3.46902 147.78 0 142.635 0H17.9509C12.8066 0 8.43507 3.46902 6.94973 8.24704C2.78351 10.6763 0 15.2624 0 20.5015C0 25.7376 2.78351 30.3268 6.94973 32.753C8.43507 37.531 12.8036 41 17.9509 41H142.632C147.78 41 152.148 37.531 153.634 32.753C157.8 30.3237 160.583 25.7376 160.583 20.4985C160.586 15.2624 157.803 10.6763 153.637 8.24704ZM147.164 27.3963V29.1725C147.164 31.7379 145.135 33.8175 142.632 33.8175H17.9509C15.4482 33.8175 13.4194 31.7379 13.4194 29.1725V27.3963C9.85098 27.2168 7.01011 24.2027 7.01011 20.5015C7.01011 16.8004 9.85098 13.7863 13.4194 13.6068V11.8306C13.4194 9.26515 15.4482 7.1856 17.9509 7.1856H142.632C145.135 7.1856 147.164 9.26515 147.164 11.8306V13.6068C150.732 13.7863 153.573 16.8004 153.573 20.5015C153.573 24.2027 150.732 27.2168 147.164 27.3963Z" fill="#E30613"/>
<path d="M89.5556 0.959675C88.1366 0.959675 86.9864 2.13871 86.9864 3.59316C86.9864 5.04761 88.1366 6.22664 89.5556 6.22664C90.9745 6.22664 92.1247 5.04761 92.1247 3.59316C92.1247 2.13871 90.9745 0.959675 89.5556 0.959675ZM99.159 0.959675C97.7401 0.959675 96.5898 2.13871 96.5898 3.59316C96.5898 5.04761 97.7401 6.22664 99.159 6.22664C100.578 6.22664 101.728 5.04761 101.728 3.59316C101.728 2.13871 100.578 0.959675 99.159 0.959675ZM108.759 0.959675C107.34 0.959675 106.19 2.13871 106.19 3.59316C106.19 5.04761 107.34 6.22664 108.759 6.22664C110.178 6.22664 111.329 5.04761 111.329 3.59316C111.332 2.13871 110.181 0.959675 108.759 0.959675ZM118.363 0.959675C116.944 0.959675 115.794 2.13871 115.794 3.59316C115.794 5.04761 116.944 6.22664 118.363 6.22664C119.782 6.22664 120.932 5.04761 120.932 3.59316C120.935 2.13871 119.782 0.959675 118.363 0.959675ZM127.966 0.959675C126.547 0.959675 125.397 2.13871 125.397 3.59316C125.397 5.04761 126.547 6.22664 127.966 6.22664C129.385 6.22664 130.535 5.04761 130.535 3.59316C130.535 2.13871 129.385 0.959675 127.966 0.959675ZM137.57 0.959675C136.151 0.959675 135 2.13871 135 3.59316C135 5.04761 136.151 6.22664 137.57 6.22664C138.989 6.22664 140.139 5.04761 140.139 3.59316C140.139 2.13871 138.989 0.959675 137.57 0.959675ZM147.173 2.33676C145.754 2.33676 144.604 3.51579 144.604 4.97024C144.604 6.42469 145.754 7.60372 147.173 7.60372C148.592 7.60372 149.742 6.42469 149.742 4.97024C149.742 3.51579 148.592 2.33676 147.173 2.33676ZM152.634 14.5449C154.053 14.5449 155.204 13.3658 155.204 11.9114C155.204 10.4569 154.053 9.27789 152.634 9.27789C151.215 9.27789 150.065 10.4569 150.065 11.9114C150.065 13.3658 151.215 14.5449 152.634 14.5449ZM157.121 17.8653C155.702 17.8653 154.551 19.0444 154.551 20.4988C154.551 21.9533 155.702 23.1323 157.121 23.1323C158.54 23.1323 159.69 21.9533 159.69 20.4988C159.693 19.0475 158.54 17.8653 157.121 17.8653ZM71.031 0.959675C69.6121 0.959675 68.4618 2.13871 68.4618 3.59316C68.4618 5.04761 69.6121 6.22664 71.031 6.22664C72.4499 6.22664 73.6002 5.04761 73.6002 3.59316C73.6032 2.13871 72.4499 0.959675 71.031 0.959675ZM80.2933 0.959675C78.8743 0.959675 77.7241 2.13871 77.7241 3.59316C77.7241 5.04761 78.8743 6.22664 80.2933 6.22664C81.7122 6.22664 82.8624 5.04761 82.8624 3.59316C82.8624 2.13871 81.7122 0.959675 80.2933 0.959675ZM61.4276 0.959675C60.0086 0.959675 58.8584 2.13871 58.8584 3.59316C58.8584 5.04761 60.0086 6.22664 61.4276 6.22664C62.8465 6.22664 63.9967 5.04761 63.9967 3.59316C63.9998 2.13871 62.8495 0.959675 61.4276 0.959675ZM51.8272 0.959675C50.4082 0.959675 49.258 2.13871 49.258 3.59316C49.258 5.04761 50.4082 6.22664 51.8272 6.22664C53.2461 6.22664 54.3963 5.04761 54.3963 3.59316C54.3963 2.13871 53.2461 0.959675 51.8272 0.959675ZM42.2238 0.959675C40.8048 0.959675 39.6546 2.13871 39.6546 3.59316C39.6546 5.04761 40.8048 6.22664 42.2238 6.22664C43.6427 6.22664 44.7929 5.04761 44.7929 3.59316C44.7929 2.13871 43.6427 0.959675 42.2238 0.959675ZM32.6203 0.959675C31.2014 0.959675 30.0512 2.13871 30.0512 3.59316C30.0512 5.04761 31.2014 6.22664 32.6203 6.22664C34.0393 6.22664 35.1895 5.04761 35.1895 3.59316C35.1895 2.13871 34.0393 0.959675 32.6203 0.959675ZM23.0169 0.959675C21.598 0.959675 20.4477 2.13871 20.4477 3.59316C20.4477 5.04761 21.598 6.22664 23.0169 6.22664C24.4358 6.22664 25.5861 5.04761 25.5861 3.59316C25.5861 2.13871 24.4358 0.959675 23.0169 0.959675ZM13.4135 2.33676C11.9946 2.33676 10.8443 3.51579 10.8443 4.97024C10.8443 6.42469 11.9946 7.60372 13.4135 7.60372C14.8324 7.60372 15.9826 6.42469 15.9826 4.97024C15.9826 3.51579 14.8324 2.33676 13.4135 2.33676ZM7.95212 9.27789C6.53319 9.27789 5.38296 10.4569 5.38296 11.9114C5.38296 13.3658 6.53319 14.5449 7.95212 14.5449C9.37105 14.5449 10.5213 13.3658 10.5213 11.9114C10.5213 10.4569 9.37105 9.27789 7.95212 9.27789ZM89.5556 34.7741C88.1366 34.7741 86.9864 35.9531 86.9864 37.4076C86.9864 38.862 88.1366 40.041 89.5556 40.041C90.9745 40.041 92.1247 38.862 92.1247 37.4076C92.1247 35.9531 90.9745 34.7741 89.5556 34.7741ZM99.159 34.7741C97.7401 34.7741 96.5898 35.9531 96.5898 37.4076C96.5898 38.862 97.7401 40.041 99.159 40.041C100.578 40.041 101.728 38.862 101.728 37.4076C101.728 35.9531 100.578 34.7741 99.159 34.7741ZM108.759 34.7741C107.34 34.7741 106.19 35.9531 106.19 37.4076C106.19 38.862 107.34 40.041 108.759 40.041C110.178 40.041 111.329 38.862 111.329 37.4076C111.332 35.9531 110.181 34.7741 108.759 34.7741ZM118.363 34.7741C116.944 34.7741 115.794 35.9531 115.794 37.4076C115.794 38.862 116.944 40.041 118.363 40.041C119.782 40.041 120.932 38.862 120.932 37.4076C120.935 35.9531 119.782 34.7741 118.363 34.7741ZM127.966 34.7741C126.547 34.7741 125.397 35.9531 125.397 37.4076C125.397 38.862 126.547 40.041 127.966 40.041C129.385 40.041 130.535 38.862 130.535 37.4076C130.535 35.9531 129.385 34.7741 127.966 34.7741ZM137.57 34.7741C136.151 34.7741 135 35.9531 135 37.4076C135 38.862 136.151 40.041 137.57 40.041C138.989 40.041 140.139 38.862 140.139 37.4076C140.139 35.9531 138.989 34.7741 137.57 34.7741ZM147.173 33.397C145.754 33.397 144.604 34.576 144.604 36.0305C144.604 37.4849 145.754 38.664 147.173 38.664C148.592 38.664 149.742 37.4849 149.742 36.0305C149.742 34.576 148.592 33.397 147.173 33.397ZM152.634 26.4559C151.215 26.4559 150.065 27.6349 150.065 29.0893C150.065 30.5438 151.215 31.7228 152.634 31.7228C154.053 31.7228 155.204 30.5438 155.204 29.0893C155.204 27.6349 154.053 26.4559 152.634 26.4559ZM71.031 34.7741C69.6121 34.7741 68.4618 35.9531 68.4618 37.4076C68.4618 38.862 69.6121 40.041 71.031 40.041C72.4499 40.041 73.6002 38.862 73.6002 37.4076C73.6032 35.9531 72.4499 34.7741 71.031 34.7741ZM80.2933 34.7741C78.8743 34.7741 77.7241 35.9531 77.7241 37.4076C77.7241 38.862 78.8743 40.041 80.2933 40.041C81.7122 40.041 82.8624 38.862 82.8624 37.4076C82.8624 35.9531 81.7122 34.7741 80.2933 34.7741ZM61.4276 34.7741C60.0086 34.7741 58.8584 35.9531 58.8584 37.4076C58.8584 38.862 60.0086 40.041 61.4276 40.041C62.8465 40.041 63.9967 38.862 63.9967 37.4076C63.9998 35.9531 62.8495 34.7741 61.4276 34.7741ZM51.8272 34.7741C50.4082 34.7741 49.258 35.9531 49.258 37.4076C49.258 38.862 50.4082 40.041 51.8272 40.041C53.2461 40.041 54.3963 38.862 54.3963 37.4076C54.3963 35.9531 53.2461 34.7741 51.8272 34.7741ZM42.2238 34.7741C40.8048 34.7741 39.6546 35.9531 39.6546 37.4076C39.6546 38.862 40.8048 40.041 42.2238 40.041C43.6427 40.041 44.7929 38.862 44.7929 37.4076C44.7929 35.9531 43.6427 34.7741 42.2238 34.7741ZM32.6203 34.7741C31.2014 34.7741 30.0512 35.9531 30.0512 37.4076C30.0512 38.862 31.2014 40.041 32.6203 40.041C34.0393 40.041 35.1895 38.862 35.1895 37.4076C35.1895 35.9531 34.0393 34.7741 32.6203 34.7741ZM23.0169 34.7741C21.598 34.7741 20.4477 35.9531 20.4477 37.4076C20.4477 38.862 21.598 40.041 23.0169 40.041C24.4358 40.041 25.5861 38.862 25.5861 37.4076C25.5861 35.9531 24.4358 34.7741 23.0169 34.7741ZM13.4135 33.397C11.9946 33.397 10.8443 34.576 10.8443 36.0305C10.8443 37.4849 11.9946 38.664 13.4135 38.664C14.8324 38.664 15.9826 37.4849 15.9826 36.0305C15.9826 34.576 14.8324 33.397 13.4135 33.397ZM7.95212 26.4559C6.53319 26.4559 5.38296 27.6349 5.38296 29.0893C5.38296 30.5438 6.53319 31.7228 7.95212 31.7228C9.37105 31.7228 10.5213 30.5438 10.5213 29.0893C10.5213 27.6349 9.37105 26.4559 7.95212 26.4559ZM6.03506 20.5019C6.03506 19.0475 4.88482 17.8684 3.46589 17.8684C2.04697 17.8684 0.896729 19.0475 0.896729 20.5019C0.896729 21.9564 2.04697 23.1354 3.46589 23.1354C4.88482 23.1354 6.03506 21.9564 6.03506 20.5019Z" fill="#FFED00"/>
<path d="M16.3083 11.3539C16.3083 12.8424 18.1922 12.3689 18.1922 14.3308C18.1922 16.2928 18.1922 26.9041 18.1922 26.9041C18.1922 26.9041 18.2526 28.7082 17.4375 29.2343C16.6223 29.7604 16.3083 29.8934 16.3083 30.4443C16.3083 30.9951 17.6307 30.9735 19.3273 30.9735C21.021 30.9735 22.8022 30.8868 22.8022 30.2246C22.8022 29.5623 21.2142 29.1693 21.2142 27.851C21.2142 26.5327 21.2142 21.9125 21.2142 21.9125C21.2142 21.9125 21.172 20.5943 22.0293 20.5943C23.0739 20.5943 26.3827 27.3188 27.5088 29.6675C27.6628 29.9894 28.1126 29.9894 28.2636 29.6645L31.9407 21.8692C31.9407 21.8692 32.5203 20.749 33.3566 20.749C34.1929 20.749 34.5582 21.4515 34.5582 22.1137C34.5582 22.7728 34.5582 25.8303 34.5582 27.1052C34.5582 28.3802 32.7981 29.1941 32.7981 30.0513C32.7981 30.4041 33.743 31.3046 35.3944 31.3046C35.3944 31.3046 42.4317 31.8771 42.4317 30.0079C42.4317 28.6897 40.6082 28.4019 40.6082 25.8303C40.6082 23.2587 40.8437 14.3742 40.8437 14.3742C40.8437 14.3742 40.8015 13.1425 41.4445 12.6814C42.0875 12.2203 42.6249 11.6912 42.6249 11.2517C42.6249 10.8123 41.8521 9.88704 39.4067 9.93345C36.9613 9.97987 35.4156 10.4162 34.5159 11.9356C33.6162 13.452 30.9625 19.1274 29.4681 19.1274C27.9737 19.1274 24.8189 11.4034 23.2943 10.3481C21.7697 9.29288 16.3083 9.54354 16.3083 11.3539Z" fill="#E30613"/>
<path d="M73.1951 11.3537C73.1951 12.8422 75.0789 12.3688 75.0789 14.3307C75.0789 16.2927 75.0789 26.904 75.0789 26.904C75.0789 26.904 75.1393 28.7081 74.3242 29.2342C73.509 29.7633 73.1951 29.8933 73.1951 30.4442C73.1951 30.995 74.5174 30.9733 76.2141 30.9733C77.9107 30.9733 79.6889 30.8867 79.6889 30.2244C79.6889 29.5622 78.1009 29.1692 78.1009 27.8509C78.1009 26.5326 78.1009 21.9124 78.1009 21.9124C78.1009 21.9124 78.0587 20.5941 78.9161 20.5941C79.9606 20.5941 83.2695 27.3186 84.3955 29.6674C84.5495 29.9893 84.9993 29.9893 85.1503 29.6643L88.8274 21.8691C88.8274 21.8691 89.4071 20.7489 90.2433 20.7489C91.0796 20.7489 91.4449 21.4513 91.4449 22.1136C91.4449 22.7727 91.4449 25.8301 91.4449 27.1051C91.4449 28.3801 89.6848 29.1939 89.6848 30.0511C89.6848 30.4039 90.6298 31.3044 92.2812 31.3044C92.2812 31.3044 99.3184 31.8769 99.3184 30.0078C99.3184 28.6895 97.495 28.4017 97.495 25.8301C97.495 23.2586 97.7304 14.374 97.7304 14.374C97.7304 14.374 97.6882 13.1424 98.3312 12.6813C98.9743 12.2202 99.5116 11.691 99.5116 11.2516C99.5116 10.8122 98.7388 9.88691 96.2934 9.93333C93.848 9.97974 92.3023 10.4161 91.4026 11.9355C90.503 13.4549 87.8493 19.1273 86.3549 19.1273C84.8605 19.1273 81.7086 11.4094 80.184 10.3542C78.6595 9.29275 73.1951 9.54341 73.1951 11.3537Z" fill="#E30613"/>
<path d="M70.9189 29.5655C70.8102 28.8414 69.4818 28.8167 68.7724 27.9595C68.0659 27.1023 64.428 19.2916 63.2868 16.8499C62.1457 14.4083 59.1206 9.41369 56.1922 9.41369C53.2004 9.41369 52.9196 12.2607 53.0706 13.514C53.2215 14.7673 52.6419 16.3301 52.6419 16.3301C52.6419 16.3301 48.1798 26.0254 47.3858 27.5417C46.5918 29.058 44.5117 29.4758 44.5117 30.2464C44.5117 31.0169 46.2507 31.5863 48.8017 31.5863C51.3558 31.5863 52.814 30.9921 52.814 30.07C52.814 29.1478 51.5067 29.058 51.0539 28.4639C50.6041 27.8697 51.2894 26.9259 51.869 26.2203C52.4487 25.5178 55.2593 25.7159 57.1673 25.7159C59.0753 25.7159 60.8566 26.2451 60.8566 27.5634C60.8566 28.8816 59.1629 28.9931 59.1629 30.07C59.1629 31.1469 61.2853 31.4099 65.5118 31.4099C69.7384 31.413 71.0245 30.2928 70.9189 29.5655ZM58.9455 22.2159C58.7825 22.9184 53.4661 23.4073 52.9891 22.2159C52.5121 21.0245 54.6555 17.1161 55.6397 17.0418C56.8564 16.9459 59.1086 21.5135 58.9455 22.2159Z" fill="#E30613"/>
<path d="M120.645 26.2232C119.615 27.6529 118.691 29.2126 116.485 29.2126C114.275 29.2126 112.515 29.2126 112.515 29.2126C112.515 29.2126 110.392 29.1692 110.392 27.5848V23.4071C110.392 23.4071 110.41 21.4637 111.742 21.4637C113.073 21.4637 113.39 21.4637 113.39 21.4637C113.39 21.4637 114.266 21.4235 114.543 22.2683C114.821 23.1132 114.963 24.6078 115.597 24.6078C116.231 24.6078 116.814 23.2834 116.814 21.1636V19.9041C116.814 17.7843 116.231 16.4598 115.597 16.4598C114.963 16.4598 114.824 17.9545 114.543 18.7993C114.299 19.5389 113.601 19.6008 113.429 19.6039H113.39C113.39 19.6039 113.073 19.6039 111.742 19.6039C110.41 19.6039 110.392 17.8679 110.392 17.8679V14.0987C110.392 12.5142 112.515 12.4709 112.515 12.4709C117.641 12.4709 118.456 13.3807 119.7 14.5907C120.944 15.8007 121.523 14.7671 121.523 13.3591C121.523 11.951 120.171 10.1716 119.763 9.93027C119.356 9.6889 116.032 10.2614 111.461 10.2614C106.89 10.2614 103.074 10.1562 103.074 10.1562C102.757 10.1562 101.574 10.2552 101.574 10.7441C101.574 11.7715 104.134 12.9815 104.134 14.501V27.1918C104.134 28.7112 101.574 29.9212 101.574 30.9486C101.574 31.4376 102.757 31.5366 103.074 31.5366H119.772C120.216 31.5366 120.636 31.3262 120.901 30.961C121.559 30.0605 122.565 28.2409 122.565 26.9628C122.568 25.1803 121.671 24.7966 120.645 26.2232Z" fill="#E30613"/>
<path d="M142.355 26.2232C141.325 27.6529 140.401 29.2126 138.195 29.2126C135.985 29.2126 134.225 29.2126 134.225 29.2126C134.225 29.2126 132.102 29.1692 132.102 27.5848V23.4071C132.102 23.4071 132.12 21.4637 133.452 21.4637C134.783 21.4637 135.1 21.4637 135.1 21.4637C135.1 21.4637 135.976 21.4235 136.253 22.2683C136.531 23.1132 136.673 24.6078 137.307 24.6078C137.941 24.6078 138.524 23.2834 138.524 21.1636V19.9041C138.524 17.7843 137.941 16.4598 137.307 16.4598C136.673 16.4598 136.534 17.9545 136.253 18.7993C136.009 19.5389 135.311 19.6008 135.139 19.6039H135.1C135.1 19.6039 134.783 19.6039 133.452 19.6039C132.12 19.6039 132.102 17.8679 132.102 17.8679V14.0987C132.102 12.5142 134.225 12.4709 134.225 12.4709C139.351 12.4709 140.166 13.3807 141.41 14.5907C142.654 15.8007 143.233 14.7671 143.233 13.3591C143.233 11.951 141.881 10.1716 141.473 9.93027C141.066 9.6889 137.742 10.2614 133.171 10.2614C128.6 10.2614 124.784 10.1562 124.784 10.1562C124.467 10.1562 123.284 10.2552 123.284 10.7441C123.284 11.7715 125.844 12.9815 125.844 14.501V27.1918C125.844 28.7112 123.284 29.9212 123.284 30.9486C123.284 31.4376 124.467 31.5366 124.784 31.5366H141.482C141.926 31.5366 142.346 31.3262 142.611 30.961C143.269 30.0605 144.275 28.2409 144.275 26.9628C144.278 25.1803 143.381 24.7966 142.355 26.2232Z" fill="#E30613"/>
</svg>
