<?xml version="1.0" encoding="utf-8"?>
<!-- Generator: Adobe Illustrator 23.0.3, SVG Export Plug-In . SVG Version: 6.00 Build 0)  -->
<svg version="1.1" id="Capa_1" xmlns="http://www.w3.org/2000/svg" xmlns:xlink="http://www.w3.org/1999/xlink" x="0px" y="0px"
	 viewBox="0 0 56 56" style="enable-background:new 0 0 56 56;" xml:space="preserve">
<style type="text/css">
	.st0{fill:#E9E9E0;}
	.st1{fill:#D9D7CA;}
	.st2{fill:#8697CB;}
	.st3{fill:#0096E6;}
	.st4{fill:#FFFFFF;}
</style>
<g>
	<path class="st0" d="M36.99,0H7.96C7.16,0,6.5,0.65,6.5,1.93V55c0,0.35,0.65,1,1.46,1h40.07c0.81,0,1.46-0.65,1.46-1V12.98
		c0-0.7-0.09-0.92-0.26-1.09L37.61,0.26C37.44,0.09,37.22,0,36.99,0z"/>
	<polygon class="st1" points="37.5,0.15 37.5,12 49.35,12 	"/>
	<path class="st2" d="M18.5,13h-6c-0.55,0-1-0.45-1-1s0.45-1,1-1h6c0.55,0,1,0.45,1,1S19.05,13,18.5,13z"/>
	<path class="st2" d="M21.5,18h-9c-0.55,0-1-0.45-1-1s0.45-1,1-1h9c0.55,0,1,0.45,1,1S22.05,18,21.5,18z"/>
	<path class="st2" d="M25.5,18c-0.26,0-0.52-0.11-0.71-0.29c-0.18-0.19-0.29-0.45-0.29-0.71c0-0.26,0.11-0.52,0.29-0.71
		c0.37-0.37,1.05-0.37,1.42,0c0.18,0.19,0.29,0.45,0.29,0.71c0,0.26-0.11,0.52-0.29,0.71C26.02,17.89,25.76,18,25.5,18z"/>
	<path class="st2" d="M37.5,18h-8c-0.55,0-1-0.45-1-1s0.45-1,1-1h8c0.55,0,1,0.45,1,1S38.05,18,37.5,18z"/>
	<path class="st2" d="M12.5,33c-0.26,0-0.52-0.11-0.71-0.29c-0.18-0.19-0.29-0.45-0.29-0.71s0.11-0.52,0.29-0.71
		c0.37-0.37,1.05-0.37,1.42,0c0.18,0.19,0.29,0.44,0.29,0.71c0,0.26-0.11,0.52-0.29,0.71C13.02,32.89,12.76,33,12.5,33z"/>
	<path class="st2" d="M24.5,33h-8c-0.55,0-1-0.45-1-1c0-0.55,0.45-1,1-1h8c0.55,0,1,0.45,1,1C25.5,32.55,25.05,33,24.5,33z"/>
	<path class="st2" d="M43.5,18h-2c-0.55,0-1-0.45-1-1s0.45-1,1-1h2c0.55,0,1,0.45,1,1S44.05,18,43.5,18z"/>
	<path class="st2" d="M34.5,23h-22c-0.55,0-1-0.45-1-1s0.45-1,1-1h22c0.55,0,1,0.45,1,1S35.05,23,34.5,23z"/>
	<path class="st2" d="M43.5,23h-6c-0.55,0-1-0.45-1-1s0.45-1,1-1h6c0.55,0,1,0.45,1,1S44.05,23,43.5,23z"/>
	<path class="st2" d="M16.5,28h-4c-0.55,0-1-0.45-1-1s0.45-1,1-1h4c0.55,0,1,0.45,1,1S17.05,28,16.5,28z"/>
	<path class="st2" d="M30.5,28h-10c-0.55,0-1-0.45-1-1s0.45-1,1-1h10c0.55,0,1,0.45,1,1S31.05,28,30.5,28z"/>
	<path class="st2" d="M43.5,28h-9c-0.55,0-1-0.45-1-1s0.45-1,1-1h9c0.55,0,1,0.45,1,1S44.05,28,43.5,28z"/>
	<path class="st3" d="M48.04,56H7.96c-0.81,0-1.46-0.65-1.46-1.46V39h43v15.54C49.5,55.35,48.85,56,48.04,56z"/>
	<g>
		<path class="st4" d="M9.79,43.06c0.8-0.13,1.82-0.21,2.9-0.21c1.87,0,3.15,0.38,4.07,1.16c0.96,0.79,1.56,1.97,1.56,3.67
			c0,1.78-0.61,3.11-1.56,3.97c-0.99,0.9-2.58,1.36-4.52,1.36c-1.07,0-1.87-0.06-2.46-0.13V43.06z M11.61,51.51
			c0.25,0.04,0.64,0.04,1.01,0.04c2.37,0.02,3.78-1.29,3.78-3.82c0.01-2.21-1.26-3.47-3.54-3.47c-0.58,0-0.99,0.04-1.24,0.1V51.51z"
			/>
		<path class="st4" d="M28.77,47.81c0,3.35-2.03,5.26-4.78,5.26c-2.81,0-4.59-2.15-4.59-5.08c0-3.07,1.93-5.23,4.74-5.23
			C27.05,42.76,28.77,44.97,28.77,47.81z M21.32,47.96c0,2.03,1.02,3.64,2.77,3.64c1.76,0,2.75-1.63,2.75-3.72
			c0-1.88-0.93-3.66-2.75-3.66C22.28,44.23,21.32,45.9,21.32,47.96z"/>
		<path class="st4" d="M37.5,52.61c-0.43,0.22-1.38,0.44-2.58,0.44c-3.17,0-5.09-1.98-5.09-5.02c0-3.29,2.28-5.27,5.33-5.27
			c1.2,0,2.06,0.25,2.43,0.44l-0.4,1.45c-0.47-0.21-1.13-0.38-1.95-0.38c-2.03,0-3.5,1.27-3.5,3.67c0,2.19,1.29,3.6,3.48,3.6
			c0.74,0,1.51-0.15,1.98-0.37L37.5,52.61z"/>
		<path class="st4" d="M44.4,52.91l-1.08-1.98c-0.43-0.77-0.71-1.3-0.99-1.88h-0.04c-0.24,0.58-0.5,1.11-0.9,1.88l-0.99,1.98H38.3
			l2.96-5.05l-2.84-4.93h2.09l1.08,2.06c0.33,0.62,0.56,1.11,0.83,1.67h0.03c0.27-0.62,0.47-1.07,0.79-1.67l1.07-2.06h2.09
			l-2.92,4.87l3.04,5.11H44.4z"/>
	</g>
</g>
</svg>
