<?xml version="1.0" encoding="utf-8"?>
<!-- Generator: Adobe Illustrator 23.0.3, SVG Export Plug-In . SVG Version: 6.00 Build 0)  -->
<svg version="1.1" id="Layer_1" xmlns="http://www.w3.org/2000/svg" xmlns:xlink="http://www.w3.org/1999/xlink" x="0px" y="0px"
	 viewBox="0 0 56.01 56.01" style="enable-background:new 0 0 56.01 56.01;" xml:space="preserve">
<style type="text/css">
	.st0{fill:#E9E9E0;}
	.st1{fill:#D9D7CA;}
	.st2{fill:#5FB77D;}
	.st3{fill:#FFFFFF;}
	.st4{fill:#8FCCA0;}
</style>
<g>
	<path class="st0" d="M36.99,0H7.96C7.16,0,6.5,0.66,6.5,1.93v53.09c0,0.35,0.66,1,1.46,1h40.08c0.81,0,1.46-0.66,1.46-1V12.98
		c0-0.7-0.09-0.92-0.26-1.09L37.62,0.26C37.45,0.09,37.23,0,36.99,0z"/>
	<polygon class="st1" points="37.51,0.15 37.51,12 49.36,12 	"/>
	<path class="st2" d="M48.05,56.01H7.96c-0.81,0-1.46-0.66-1.46-1.46V39.01h43.01v15.54C49.51,55.36,48.86,56.01,48.05,56.01z"/>
	<g>
		<path class="st3" d="M18.4,53.01l-1.05-1.93c-0.42-0.75-0.69-1.27-0.96-1.83h-0.04c-0.23,0.56-0.49,1.08-0.88,1.83l-0.96,1.93
			h-2.03l2.88-4.9l-2.76-4.79h2.03l1.05,2c0.32,0.6,0.55,1.08,0.8,1.63h0.03c0.26-0.6,0.46-1.04,0.76-1.63l1.04-2h2.03l-2.83,4.73
			l2.95,4.96H18.4z"/>
		<path class="st3" d="M21.75,43.32h1.77v8.21h3.98v1.48h-5.75V43.32z"/>
		<path class="st3" d="M28.8,51.09c0.57,0.33,1.44,0.62,2.34,0.62c1.14,0,1.77-0.53,1.77-1.32c0-0.73-0.49-1.16-1.73-1.61
			c-1.6-0.58-2.62-1.42-2.62-2.82c0-1.58,1.32-2.79,3.42-2.79c1.05,0,1.83,0.23,2.33,0.49l-0.43,1.42
			c-0.35-0.19-1.02-0.46-1.93-0.46c-1.12,0-1.61,0.6-1.61,1.16c0,0.75,0.56,1.09,1.85,1.6c1.68,0.63,2.5,1.48,2.5,2.88
			c0,1.55-1.18,2.9-3.68,2.9c-1.02,0-2.08-0.29-2.62-0.6L28.8,51.09z"/>
		<path class="st3" d="M41.5,53.01l-1.05-1.93c-0.42-0.75-0.69-1.27-0.96-1.83h-0.04c-0.23,0.56-0.49,1.08-0.88,1.83l-0.96,1.93
			h-2.03l2.87-4.9l-2.76-4.79h2.03l1.05,2c0.32,0.6,0.55,1.08,0.8,1.63h0.03c0.26-0.6,0.46-1.04,0.76-1.63l1.04-2h2.03l-2.83,4.73
			l2.95,4.96H41.5z"/>
	</g>
	<path class="st4" d="M32.68,13.46h-9.34H12.79v4.5v0.6v3.9v0.6v3.9v0.6v4.5h9.94h0.6h9.34h0.6h9.94v-5.1v-3.9v-4.5v-0.6v-4.5H32.68
		z M32.68,22.45h-9.34v-3.9h9.34V22.45z M13.39,14.06h9.34v3.9h-9.34V14.06z M13.39,18.56h9.34v3.9h-9.34V18.56z M13.39,23.05h9.34
		v3.9h-9.34V23.05z M13.39,31.45v-3.9h9.34v3.9H13.39z M23.33,31.45v-3.9h9.34v3.9H23.33z M42.62,31.45h-9.34v-3.9h9.34L42.62,31.45
		L42.62,31.45z M42.62,22.45h-9.34v-3.9h9.34L42.62,22.45L42.62,22.45z M33.28,17.96v-3.9h9.34v3.9H33.28z"/>
</g>
</svg>
